<svg id="Data_Cleaning_Icon" data-name="Data Cleaning Icon" xmlns="http://www.w3.org/2000/svg" width="122.389" height="79.289" viewBox="0 0 122.389 79.289">
  <path id="path826" d="M202.154,126.741a8.461,8.461,0,0,1-2.54-1.862c-1.039-1.156-1.069-1.645-.273-4.361,1.219-4.155,3.5-5.512,6.7-3.986,2.2,1.047,2.27,1.215,2.217,5.028-.048,3.433-.27,4.063-1.712,4.862-1.9,1.053-2.5,1.1-4.4.319Zm1.387-2.8a1.555,1.555,0,0,1,1.695-.315c1.672.531,2.4-.765.9-1.6-.965-.54-1.024-.849-.324-1.693,1.109-1.336-.229-2.3-1.606-1.155a1.642,1.642,0,0,1-1.682.361,1.574,1.574,0,0,0-1.5.046c-.548.339-.413.762.444,1.389.95.695,1.054,1.117.452,1.842-.757.912-.429,1.842.651,1.842a1.447,1.447,0,0,0,.971-.713Zm7.2,1.53c-2.316-2.316-2.632-4.521-.986-6.872a5.3,5.3,0,0,1,6.426-2.065c5.259,1.833,4.418,9.517-1.16,10.594-1.84.355-2.538.085-4.28-1.657Zm5.466-2.845c-.513-.959-.4-1.363.455-1.693.836-.321.929-.633.359-1.2s-1.03-.555-1.771.06c-.8.666-1.13.6-1.651-.331-.369-.659-1-.945-1.458-.662-.619.383-.615.732.018,1.495s.634,1.188.033,1.788c-1.309,1.309-.9,2.064.877,1.618.919-.231,1.864-.1,2.1.279.777,1.257,1.752-.016,1.036-1.351Zm-88.487,3.368c-9.608-1.12-17.326-4.4-19.77-8.414-1.23-2.018-1.324-3.612-1.327-22.513,0-21.069.27-23.389,2.841-24.205,1.6-.508,1.645-2.768.072-3.649-1.106-.619-1.078-.792.379-2.343a18.3,18.3,0,0,1,3.9-2.926c2.064-1.111,2.526-1.143,4.141-.278,1.639.877,1.91.847,2.752-.3a11.157,11.157,0,0,0,1.13-1.821c.38-1.055,12.488-2.18,18.686-1.736,12.091.866,20.089,3.868,23.745,8.911l1.936,2.671V91.777c0,14.6-.264,23.151-.758,24.568-2.476,7.1-20.343,11.67-37.723,9.643Zm22.592-5.789a38,38,0,0,0,6.506-2.14c4.076-2.064,4.589-2.878,4.589-7.288,0-3.627-.132-4.018-1.2-3.548-14.4,6.343-33.16,6.337-47.63-.013-1.126-.494-1.215-.163-1.027,3.8.194,4.091.343,4.435,2.56,5.926,6.761,4.546,24.232,6.12,36.2,3.262Zm-2.981-3.829a1.2,1.2,0,0,1,1.826-1.507,1.314,1.314,0,0,1-.762,2.251A1.535,1.535,0,0,1,147.331,116.371Zm4.926-.416c-.818-.818-.442-2.264.589-2.264a1.011,1.011,0,0,1,1.027.987c0,1.144-.977,1.916-1.617,1.277Zm4.142-2.022c-.893-.893-.467-1.612.956-1.612.8,0,1.307.359,1.156.813a1.34,1.34,0,0,1-2.112.8Zm-13.14-7.111c7.415-.835,13.959-2.88,16.374-5.119,1.506-1.4,1.774-2.23,1.774-5.517,0-3.433-.136-3.813-1.2-3.345-8.477,3.734-10.362,4.055-23.8,4.055-13.452,0-15.269-.31-23.833-4.069-1.126-.494-1.215-.163-1.027,3.8.19,4.007.373,4.455,2.361,5.792,2.891,1.944,8.746,3.724,14.42,4.383a48.09,48.09,0,0,0,14.928.016Zm3.767-5.516c0-1.669,1.6-1.433,1.933.285a.856.856,0,0,1-.856,1.142c-.635,0-1.077-.586-1.077-1.427Zm4.341-.326c-.514-1.34.1-1.951,1.451-1.435s1.357,1.557,0,2.076a1.092,1.092,0,0,1-1.454-.641Zm4.562-2.013a1.027,1.027,0,1,1,1.027,1.027A1.03,1.03,0,0,1,155.928,98.968Zm-2.562-8.538c6.715-2.3,8.041-3.765,8.041-8.854v-4.1l-3.791,1.735c-4.954,2.268-12.732,3.614-21.058,3.643-6.306.023-6.661-.05-6.025-1.24.986-1.843,5.766-3.342,12.184-3.822,10.547-.788,20.171-5.2,18.312-8.4-1.09-1.874-7.635-4.841-12.635-5.728-2.448-.434-5.192-.929-6.1-1.1a8.4,8.4,0,0,1-3.528-2.325,8.549,8.549,0,0,0-2.36-2.015,8.548,8.548,0,0,0-2.36,2.015,8.4,8.4,0,0,1-3.528,2.325c-.9.171-3.648.665-6.1,1.1-5,.886-11.545,3.854-12.635,5.728-.588,1.012-.308,1.608,1.533,3.267,1.239,1.116,2.2,2.409,2.145,2.872-.247,1.927.2,2.474,3.211,3.887,1.736.816,3.02,1.621,2.852,1.789-.415.415-8.025-2.238-9.187-3.2-.768-.638-.931.018-.931,3.753,0,4.478.027,4.543,2.592,6.241,5.018,3.321,11.55,4.486,23.774,4.242,9.3-.186,11.656-.459,15.586-1.807Zm-6.22-3.14c.31-1.488,1.525-1.579,1.8-.135.144.75-.192,1.2-.9,1.2a.837.837,0,0,1-.906-1.063Zm4.294-.366a1.2,1.2,0,0,1,1.826-1.507,1.314,1.314,0,0,1-.762,2.251A1.535,1.535,0,0,1,151.44,86.923ZM123.461,83c-1.313-2.591-2.272-3.536-4.463-4.4-3.861-1.517-3.764-3.338.281-5.239,2.283-1.073,3.345-2.1,4.136-3.989,1.014-2.426,2.067-3.587,3.275-3.61.3-.006,1.175,1.4,1.936,3.118a6.933,6.933,0,0,0,4.413,4.427c4.072,1.746,4.163,3.751.238,5.293-2.191.861-3.15,1.806-4.463,4.4-.92,1.815-2.124,3.3-2.676,3.3s-1.757-1.485-2.676-3.3Zm32.466,1.588a1.027,1.027,0,1,1,1.027,1.027A1.03,1.03,0,0,1,155.928,84.586ZM117.242,69.874a1.4,1.4,0,0,1,1.061-2.066c.833,0,.839,1.854.008,2.368a.788.788,0,0,1-1.068-.3Zm17.084-4.442-2.075-2.084,2.084-2.075L136.42,59.2l2.075,2.084,2.075,2.084-2.084,2.075L136.4,67.515ZM166.8,125.669c-2.627-1.427-2.988-2.98-.88-3.782a10.347,10.347,0,0,1,2.4-.663c1.117,0,6.829-5.629,9.018-8.887,3.234-4.814,5.324-6.79,9.584-9.063,2.63-1.4,3.938-2.524,3.938-3.375a1.179,1.179,0,0,1,1.239-1.274c1.051,0,2.213-3.666,7.649-24.14,3.526-13.277,6.677-24.68,7-25.339.731-1.479,2.5-1.565,3.045-.148.222.578-2.575,12.163-6.215,25.746-4.82,17.985-6.42,24.934-5.891,25.572a2.238,2.238,0,0,1,.288,2.019c-.241.629.1,2.861.762,4.961,2.137,6.8-.088,16.764-4.156,18.617-2.67,1.216-25.464,1.016-27.783-.244Zm13.246-8.859a33.006,33.006,0,0,1,4.68-5.684c1.025-.718,1.239-1.233.728-1.745-.968-.968-3.051.912-5.913,5.336a30.575,30.575,0,0,1-3.65,4.714c-1.439,1.293-1.352,2.77.136,2.3.436-.139,2.245-2.352,4.02-4.918Zm41.116,2.563c-1.17-.434-1.083-2.709.121-3.171a1.8,1.8,0,0,1,1.824.646c.679.818.654,1.2-.121,1.932a2.066,2.066,0,0,1-1.824.593ZM222.7,117.8a1.468,1.468,0,0,0-1.068-.685.667.667,0,0,0-.644.685c0,.377.48.685,1.068.685S222.931,118.177,222.7,117.8Zm-15.872-3.151c-.433-1.13.962-2.471,2.176-2.092.377.118.783.883.9,1.7.165,1.124-.133,1.487-1.22,1.487a2.077,2.077,0,0,1-1.859-1.1Zm2.518-.273a.668.668,0,0,0-.644-.685,1.468,1.468,0,0,0-1.068.685c-.233.377.057.685.644.685S209.344,114.753,209.344,114.376Zm7.142,0c0-.753.242-1.37.538-1.37a.612.612,0,0,0,.538-.663c0-.365-.462-.486-1.027-.269s-1.027.035-1.027-.4-.329-.6-.73-.347-.559.623-.348.833,0,.853-.468,1.429c-.713.878-.657.975.348.6.66-.247,1.2-.13,1.2.262,0,1.235-3.056.332-3.306-.976-.291-1.524,1.72-3.887,3.306-3.887,1.9,0,3.646,2.447,3.15,4.424-.517,2.059-2.172,2.341-2.172.37ZM104.566,72.245c0-.573-.77-1.393-1.712-1.822-2.032-.926-2.21-1.928-.426-2.394a3.9,3.9,0,0,0,2.052-2.016l.765-1.68,2.495,2.495c1.962,1.962,2.292,2.623,1.544,3.1a4.02,4.02,0,0,1-1.418.613c-.257.006-.663.627-.9,1.38C106.456,73.515,104.566,73.774,104.566,72.245ZM107.99,61.3a1.027,1.027,0,1,1,1.027,1.027A1.03,1.03,0,0,1,107.99,61.3Zm10.435-.454a2.952,2.952,0,0,1-.847-1.72c0-.48-.925-1.351-2.054-1.935-2.4-1.239-2.612-2.128-.667-2.745a5.932,5.932,0,0,0,2.532-2.272c.629-1.007,1.224-1.946,1.321-2.087s1.588,1.156,3.313,2.881l3.136,3.136-2.079,1.075C121.937,57.772,121,58.5,121,58.792a4.512,4.512,0,0,1-.865,1.72c-.687.94-1.039,1.009-1.712.336Zm11.135-8.111c-.234-.379.069-.88.674-1.112,1.311-.5,2.042.051,1.412,1.071a1.139,1.139,0,0,1-2.086.041Z" transform="translate(-101.201 -47.985)" fill="aqua"/>
</svg>
