<svg id="layer1" xmlns="http://www.w3.org/2000/svg" width="119.201" height="94.108" viewBox="0 0 119.201 94.108">
  <g id="g870">
    <path id="path896" d="M70.811,203.441a4.983,4.983,0,0,1-1.23-9.1l.744-.436-.046-2.782-.046-2.782-1.963-.218A32.52,32.52,0,0,1,60.7,186.26a18.8,18.8,0,0,0-2.01-.685c-.1,0-1.612,2.053-3.362,4.555s-3.359,4.76-3.575,5.019l-.392.47H42.025l-.606.912a5.336,5.336,0,0,1-2.836,2.124,6.272,6.272,0,0,1-3.528-.314,5.114,5.114,0,0,1-2.483-6.169,5.823,5.823,0,0,1,2.974-2.974,5.433,5.433,0,0,1,3.338-.012,6.373,6.373,0,0,1,2.787,2.408l.209.505h7.77l2.879-4.1c1.583-2.254,2.879-4.131,2.879-4.172a18.471,18.471,0,0,0-1.633-1.249,33.263,33.263,0,0,1-7.047-6.768,2.035,2.035,0,0,0-.592-.628c-.078,0-1.691.75-3.584,1.672l-3.442,1.675H29.28l-.4.628a4.879,4.879,0,0,1-4.09,2.519,4.765,4.765,0,0,1-5.166-3.83,4.89,4.89,0,0,1,4.838-6.016,4.783,4.783,0,0,1,4.231,2.281l.6.9h8.995l2.906-1.44c1.6-.792,2.926-1.459,2.95-1.482a16.925,16.925,0,0,0-.788-1.785,33.936,33.936,0,0,1-2.988-10.537l-.121-1.256-9-.043-9-.043-.4.63a4.964,4.964,0,1,1-6.28-7.073,3.559,3.559,0,0,1,2.222-.385,4.928,4.928,0,0,1,4.207,2.647l.259.5,9-.043,9-.043.047-.67a43.305,43.305,0,0,1,1.223-6.468,37.66,37.66,0,0,1,2.34-5.752c.5-.5.151-.782-2.731-2.193l-2.89-1.415H29.294l-.6.9a4.959,4.959,0,0,1-7.723.87,5.05,5.05,0,0,1-.2-6.887,5.281,5.281,0,0,1,5.29-1.341,5.992,5.992,0,0,1,2.795,2.338l.324.6h9.946l3.37,1.675c1.854.921,3.434,1.675,3.512,1.675a9.627,9.627,0,0,0,1.313-1.466,33.458,33.458,0,0,1,7.42-6.69c.272-.16.494-.4.494-.522,0-.229-4.759-7.143-5.412-7.864-.335-.369-.416-.377-4.073-.377H42.025l-.6.9a4.632,4.632,0,0,1-4.445,2.246,4.76,4.76,0,0,1-4.656-4.678,3.546,3.546,0,0,1,.341-2.192,5.035,5.035,0,0,1,7.66-1.975,5.97,5.97,0,0,1,1.086,1.259l.612.922h4.652c4.613,0,4.655,0,4.991.377.321.358,1.42,1.9,5.162,7.245.9,1.29,1.664,2.372,1.691,2.4a13.3,13.3,0,0,0,1.826-.636,33.3,33.3,0,0,1,6.877-1.847c.826-.115,1.842-.259,2.256-.32l.754-.111.046-2.711.046-2.711-.9-.577a4.9,4.9,0,0,1-2.331-4.247,5.161,5.161,0,0,1,3.386-4.718,7.417,7.417,0,0,1,1.7-.188,4.953,4.953,0,0,1,4.572,6.584,6.1,6.1,0,0,1-2.314,2.714l-.6.324v2.81c0,2.342.04,2.81.243,2.81.133,0,1.112.114,2.173.253a32.992,32.992,0,0,1,7.44,1.914,14.749,14.749,0,0,0,1.915.673,6.318,6.318,0,0,0,1.221-1.466c3.331-4.787,5.861-8.343,6.013-8.45.1-.068,2.265-.124,4.819-.126l4.643,0,.574-.9a4.686,4.686,0,0,1,4.21-2.28,4.86,4.86,0,0,1,4.565,2.971,3.546,3.546,0,0,1,.341,2.192,4.787,4.787,0,0,1-2.691,4.238,5.639,5.639,0,0,1-4.028.171,5.082,5.082,0,0,1-2.454-2.058l-.505-.821H94.69l-2.848,4.046c-1.566,2.225-2.866,4.128-2.887,4.228s.5.555,1.164,1.011a33.229,33.229,0,0,1,7.311,7c.243.344.572.628.73.63a34.851,34.851,0,0,0,3.658-1.672l3.37-1.675h9.946l.324-.6a5.992,5.992,0,0,1,2.795-2.338,5.281,5.281,0,0,1,5.29,1.342,5,5,0,0,1-3.836,8.333,4.839,4.839,0,0,1-4.071-2.294l-.612-.922h-8.944l-3.062,1.5-3.062,1.5.569,1.136a32.449,32.449,0,0,1,2.283,6.105,37.6,37.6,0,0,1,1.011,5.9v.439h18.25l.259-.5a4.928,4.928,0,0,1,4.206-2.645,3.558,3.558,0,0,1,2.222.385,4.964,4.964,0,1,1-6.28,7.074l-.4-.628H103.863l-.115,1.214a33.942,33.942,0,0,1-3.033,10.69c-.411.819-.748,1.53-.748,1.58s1.364.767,3.031,1.595l3.031,1.5h9.141l.209-.5a5.5,5.5,0,0,1,2.4-2.272,5.124,5.124,0,0,1,6.46,2.155,4.965,4.965,0,0,1-4.713,7.286,4.879,4.879,0,0,1-4.09-2.519l-.4-.628h-9.827l-3.453-1.675c-1.9-.921-3.551-1.675-3.672-1.675a5.263,5.263,0,0,0-1.213,1.27,38.149,38.149,0,0,1-6.34,5.993,9.484,9.484,0,0,0-1.623,1.3c0,.084,1.293,2,2.873,4.254l2.873,4.1h7.781l.209-.505a6.373,6.373,0,0,1,2.787-2.408,5.433,5.433,0,0,1,3.338.012,5.823,5.823,0,0,1,2.974,2.974,5.114,5.114,0,0,1-2.483,6.169,6.272,6.272,0,0,1-3.528.314,5.336,5.336,0,0,1-2.836-2.124l-.606-.912H97.642c-4.612,0-4.655,0-4.994-.377-.188-.207-1.8-2.45-3.575-4.984s-3.284-4.666-3.346-4.739a4.618,4.618,0,0,0-1.606.47,36.066,36.066,0,0,1-9.533,2.3l-.67.047-.046,2.775-.046,2.775.856.555a4.963,4.963,0,0,1-3.872,9Zm2.536-2.843a2.052,2.052,0,0,0,.987-1.963,2.221,2.221,0,0,0-2.258-2.345,2.345,2.345,0,0,0-1.629,4.056,1.876,1.876,0,0,0,1.646.622,2.134,2.134,0,0,0,1.254-.369Zm-35-4.654a1.98,1.98,0,0,0,1.014-1.106,2.053,2.053,0,0,0-.526-2.6,1.606,1.606,0,0,0-1.572-.636,1.758,1.758,0,0,0-1.525.518,2.217,2.217,0,0,0-.678,2.6,2.245,2.245,0,0,0,3.287,1.223Zm69.834.01a2.305,2.305,0,0,0,.41-3.837,1.758,1.758,0,0,0-1.525-.518,1.606,1.606,0,0,0-1.572.636,2.053,2.053,0,0,0-.527,2.6,2.244,2.244,0,0,0,3.214,1.117Zm-37.9-12.432-.047-2.047-1.518-.2a25.5,25.5,0,0,1-5.078-1.223,1.911,1.911,0,0,0-.965-.2,17.121,17.121,0,0,0-2.284,3.391,27.172,27.172,0,0,0,5.238,1.721,16.122,16.122,0,0,0,3.816.587l.885.025Zm7.709,1.549c2.522-.517,5.9-1.691,5.9-2.052a33.039,33.039,0,0,0-2.186-3.2,6.344,6.344,0,0,0-1.941.446,29.137,29.137,0,0,1-3.662.874c-1.013.159-1.937.313-2.052.344-.153.041-.209.606-.209,2.1v2.04l1.265-.107c.7-.059,2-.257,2.89-.44Zm-19.767-5.189a9.285,9.285,0,0,0,1.034-1.717c0-.12-.4-.457-.879-.749a27.428,27.428,0,0,1-4.9-4.213,3.622,3.622,0,0,0-1.1-1.027,21.457,21.457,0,0,0-3.67,1.738,24.028,24.028,0,0,0,2.409,2.915c1.629,1.7,5.253,4.534,5.808,4.545a5.3,5.3,0,0,0,1.3-1.493Zm30.579.5a31.066,31.066,0,0,0,6.323-6.058c.4-.554.371-.577-1.74-1.557l-1.617-.75-2.056,2.054a27.808,27.808,0,0,1-3.432,2.966,8.562,8.562,0,0,0-1.382,1.03,16.033,16.033,0,0,0,1.119,1.721c.733,1.045,1.205,1.573,1.356,1.516a15.866,15.866,0,0,0,1.43-.92Zm-62.978-1.695a2.413,2.413,0,0,0,0-3.823,2.769,2.769,0,0,0-2.6-.06,3.176,3.176,0,0,0-1.153,1.972,3.255,3.255,0,0,0,1.125,1.964,2.812,2.812,0,0,0,2.624-.052Zm95.256.064a2.159,2.159,0,0,0,1.007-1.442,2.121,2.121,0,0,0-.777-2.284,1.729,1.729,0,0,0-1.475-.511,2.023,2.023,0,0,0-2.03,1.179,2.456,2.456,0,0,0,.693,2.994,2.733,2.733,0,0,0,2.582.064Zm-45.541-2.138a20.355,20.355,0,0,0,14.676-10.894,18.12,18.12,0,0,0,2.122-9.129,19.164,19.164,0,0,0-3.475-11.559,24.988,24.988,0,0,0-5.38-5.358,20.38,20.38,0,0,0-26.2,30.909,21.1,21.1,0,0,0,11.126,6.008,27.171,27.171,0,0,0,7.131.023Zm-6.376-8.043c-4.642-1.052-8.7-3.53-12.922-7.9a20.429,20.429,0,0,1-3.343-4.152c0-.361,2.241-3.038,4.01-4.789q7.43-7.357,15-7.417a13.672,13.672,0,0,1,5.277.845c3.677,1.229,7.917,4.193,11.322,7.915,1.469,1.606,2.581,3.111,2.581,3.494,0,.869-4.531,5.71-7.253,7.748a23.8,23.8,0,0,1-7.922,4.019,19.088,19.088,0,0,1-6.752.236Zm5.595-6.1a6.27,6.27,0,0,0,.967-10.732,5.778,5.778,0,0,0-4.055-1.14,6.044,6.044,0,0,0-5.246,3.46,7.5,7.5,0,0,0-.074,5.421,6.724,6.724,0,0,0,4.261,3.478,6.933,6.933,0,0,0,4.147-.486Zm-1.191-6.877a2.177,2.177,0,0,1-1.01-2.737,2.089,2.089,0,0,1,4.006.9A2.13,2.13,0,0,1,73.564,155.587Zm-11.641,4.6a9.606,9.606,0,0,1-.438-2.84,9.849,9.849,0,0,1,.891-5.046,3.21,3.21,0,0,0,.365-.993c-.243-.243-5.491,4.744-5.491,5.218,0,.5,4.857,5.18,4.983,4.8a4.525,4.525,0,0,0-.309-1.142Zm21.549-.044a32.026,32.026,0,0,0,2.476-2.419c.816-.929.947-1.162.8-1.43a48.291,48.291,0,0,0-5.014-4.772l-.516-.3.5,1.1a10.893,10.893,0,0,1,.43,7.916,3.29,3.29,0,0,0-.3,1.214,14.8,14.8,0,0,0,1.623-1.309Zm-35.055,9.916c.85-.425,1.638-.847,1.75-.937.155-.125.068-.433-.361-1.285a24.248,24.248,0,0,1-2.464-7.851l-.2-1.55H42.968l.116,1.214a29.481,29.481,0,0,0,1.345,6.086c.781,2.334,2.06,5.1,2.359,5.1.046,0,.779-.348,1.629-.773Zm50-1.2a30.515,30.515,0,0,0,2.63-9.381l.108-1.047H97.013l-.353,2.136a27.043,27.043,0,0,1-2.852,8.285,15.9,15.9,0,0,0,3.494,1.8c.178.006.549-.589,1.115-1.792ZM18.845,158.5a2.426,2.426,0,0,0,.788-3,2.176,2.176,0,0,0-2.084-1.259,2.317,2.317,0,0,0-1.543,4.071,2.525,2.525,0,0,0,2.839.185Zm109.23-.007a2.571,2.571,0,0,0,1.038-1.88,2.288,2.288,0,0,0-2.345-2.369,2.256,2.256,0,0,0-2.117,3.229A2.34,2.34,0,0,0,128.075,158.493Zm-80.8-4.917a27.659,27.659,0,0,1,2.506-8.343,5.074,5.074,0,0,0,.437-1.045,18.875,18.875,0,0,0-3.555-1.836,23.649,23.649,0,0,0-2.106,4.535,33.436,33.436,0,0,0-1.473,6.561l-.115,1.3h4.191Zm53.783.039a32.018,32.018,0,0,0-1.357-6.24c-.779-2.338-1.979-4.858-2.314-4.858a12.372,12.372,0,0,0-3.447,1.8,7.5,7.5,0,0,0,.6,1.4,26.671,26.671,0,0,1,2.332,8.063l.112.963h4.19ZM93.683,140.3a8.21,8.21,0,0,0,1.761-1.028,21.53,21.53,0,0,0-3.437-3.928A24.238,24.238,0,0,0,87.34,131.8a14.119,14.119,0,0,0-2.151,2.844l-.288.436,1.544,1.082a30.77,30.77,0,0,1,3.47,3.042c1.06,1.078,1.944,1.964,1.966,1.968s.832-.386,1.8-.868Zm-39.336-1.265a29.5,29.5,0,0,1,3.448-2.962,7.678,7.678,0,0,0,1.466-1.138,33.488,33.488,0,0,0-2.186-3.205c-.264-.286-3.564,2.174-5.506,4.1a22.1,22.1,0,0,0-2.861,3.362A19.373,19.373,0,0,0,52.17,141a16.381,16.381,0,0,0,2.178-1.964Zm-29.231-.377a2.782,2.782,0,0,0,1.131-.759,2.275,2.275,0,0,0,.134-2.769,2.082,2.082,0,0,0-2.025-.988,1.545,1.545,0,0,0-1.452.634,2.055,2.055,0,0,0-.519,2.618,1.78,1.78,0,0,0,1.062,1.1,1.676,1.676,0,0,0,1.669.161Zm95.756-.161a1.78,1.78,0,0,0,1.062-1.1,2.055,2.055,0,0,0-.519-2.618,1.544,1.544,0,0,0-1.452-.634,2.082,2.082,0,0,0-2.025.988,2.274,2.274,0,0,0,.138,2.772,2.145,2.145,0,0,0,2.8.594Zm-38.02-6.719a5.807,5.807,0,0,0,.975-1.737c-.113-.295-2.477-1.2-4.464-1.707a38.71,38.71,0,0,0-5.235-.891c-.264,0-.293.207-.293,2.081v2.084l.8.106a28.791,28.791,0,0,1,5.235,1.147,9.592,9.592,0,0,0,1.759.483,10.436,10.436,0,0,0,1.228-1.565Zm-18.5,1.038a31.207,31.207,0,0,1,5.168-1.109l.8-.1V129.6c0-1.485-.056-2.027-.217-2.088a26.224,26.224,0,0,0-5.128.76,23.608,23.608,0,0,0-4.494,1.571c-.161.154.038.552.913,1.828a8.982,8.982,0,0,0,1.277,1.631c.087,0,.845-.219,1.684-.487ZM38.845,120.971a2.263,2.263,0,0,0,.009-3.3,2.313,2.313,0,1,0-.009,3.3Zm69.958-.136a1.678,1.678,0,0,0,.544-1.511,1.748,1.748,0,0,0-.518-1.508,2.313,2.313,0,1,0-.027,3.018Zm-35.176-4.689c.6-.552.626-.615.626-1.688s-.027-1.139-.6-1.664a2.164,2.164,0,0,0-2.589-.445A1.771,1.771,0,0,0,69.98,113.4a1.857,1.857,0,0,0,0,2.048,2.07,2.07,0,0,0,2.144,1.263,1.667,1.667,0,0,0,1.508-.569Z" transform="translate(-12.559 -109.519)" fill="aqua"/>
    <path id="path894" d="M71.157,203.594a4.8,4.8,0,0,1-3.431-2.755A4.949,4.949,0,0,1,69.7,194.45l.74-.434-.046-2.786-.046-2.786-2.136-.287a34.614,34.614,0,0,1-7.7-1.966,5.177,5.177,0,0,0-1.864-.527c-.081.081-1.7,2.359-3.607,5.064l-3.46,4.917-4.779.044-4.779.044-.323.6a6.1,6.1,0,0,1-2.713,2.311,4.74,4.74,0,0,1-5.108-1.245,3.858,3.858,0,0,1-1.235-1.927,4.9,4.9,0,0,1,2.575-5.894,4.961,4.961,0,0,1,6.411,1.991l.33.647,3.958-.045,3.958-.045,2.822-4.008c1.552-2.2,2.822-4.094,2.822-4.2a5.744,5.744,0,0,0-1.382-1.134,31.84,31.84,0,0,1-5.772-5.175c-.718-.845-1.5-1.758-1.731-2.029l-.426-.493-3.427,1.735-3.427,1.735-5.045.051-5.045.051-.546.843a4.887,4.887,0,0,1-8.514-.442,3.71,3.71,0,0,1-.442-2.178,3.752,3.752,0,0,1,.447-2.193,4.9,4.9,0,0,1,8.525-.38l.666.981h8.781L41.2,173.84c1.659-.8,3.06-1.518,3.115-1.6a6.686,6.686,0,0,0-.7-1.8A32.627,32.627,0,0,1,40.7,160.215c-.058-.6-.14-1.258-.182-1.466l-.077-.377H22.2l-.329.644a4.784,4.784,0,0,1-4.2,2.433,4.685,4.685,0,0,1-4.318-2.658,5.12,5.12,0,0,1-.075-4.124,4.776,4.776,0,0,1,7.524-1.585,6.431,6.431,0,0,1,1.134,1.321,1.084,1.084,0,0,0,.914.684c.807.134,16.176.127,16.988-.007.354-.058.665-.189.693-.291s.14-.977.25-1.944a35.621,35.621,0,0,1,3.274-10.723,2.041,2.041,0,0,0,.319-1.027,28.661,28.661,0,0,0-3.042-1.585L38.4,138.1H29.234l-.579.9a4.712,4.712,0,0,1-4.034,2.278,4.664,4.664,0,0,1-4.739-4.346,4.324,4.324,0,0,1,1.368-3.779,4.713,4.713,0,0,1,7.392.834l.592.925h9.789l3.458,1.675c1.9.921,3.569,1.675,3.7,1.675a4.525,4.525,0,0,0,1.191-1.233,39.4,39.4,0,0,1,6.519-6.2,18.972,18.972,0,0,0,1.727-1.3,40.8,40.8,0,0,0-2.814-4.295L49.9,121.1l-3.955-.045-3.955-.045-.435.743a4.773,4.773,0,0,1-7.568,1.033,4.648,4.648,0,0,1,0-6.722,4.773,4.773,0,0,1,7.566,1.03l.434.74h9.494l3.487,4.963c1.918,2.73,3.58,5,3.694,5.042a4.5,4.5,0,0,0,1.424-.423,30.943,30.943,0,0,1,8.213-2.14,21.7,21.7,0,0,0,2.171-.346,17.4,17.4,0,0,0,.13-2.914v-2.834l-.513-.265a4.855,4.855,0,0,1-1.363-7.673,4.313,4.313,0,0,1,3.067-1.414,4.6,4.6,0,0,1,4.613,2.525,4.763,4.763,0,0,1-1.7,6.236l-.925.592v2.926c0,2.444.04,2.926.243,2.926.133,0,1.106.113,2.16.251a32.891,32.891,0,0,1,7.684,1.994l1.89.764.335-.378c.184-.208,1.829-2.506,3.654-5.106l3.319-4.728h9.495l.434-.74a4.9,4.9,0,0,1,5.891-2.162,5.285,5.285,0,0,1,2.808,2.808,4.808,4.808,0,0,1-8.7,4.014l-.435-.743-3.958.045-3.958.045-2.892,4.1a50.2,50.2,0,0,0-2.893,4.361c0,.141.222.388.494.549a33.611,33.611,0,0,1,7.492,6.774,18.311,18.311,0,0,0,1.323,1.55c.042,0,1.715-.792,3.717-1.759l3.64-1.759h9.791l.592-.925a4.774,4.774,0,1,1-.013,5.012l-.579-.9h-9.165l-3.118,1.5a23.735,23.735,0,0,0-3.118,1.65,19.883,19.883,0,0,0,.852,1.958,34.707,34.707,0,0,1,2.928,10.556,3.184,3.184,0,0,0,.3,1.3c.225.148,16.49.172,17.557.026.634-.087.8-.191,1.057-.674a6.7,6.7,0,0,1,1.1-1.309,4.712,4.712,0,0,1,6.487.1,4.293,4.293,0,0,1,1.452,3.5,4.544,4.544,0,0,1-1.441,3.467,4.894,4.894,0,0,1-7.525-1.15l-.329-.645-9.245.043-9.245.043-.284,2.184a30.776,30.776,0,0,1-2.831,9.743c-.584,1.244-.75,1.751-.609,1.864.107.085,1.553.8,3.213,1.6l3.019,1.444h8.775l.666-.981a4.866,4.866,0,0,1,8.18-.134,4.721,4.721,0,0,1,.329,4.895,4.877,4.877,0,0,1-8.494.432l-.546-.843-5.045-.051-5.045-.051-3.391-1.717c-1.865-.944-3.489-1.717-3.609-1.717s-.5.375-.853.833a33.406,33.406,0,0,1-7.014,6.719,9.313,9.313,0,0,0-1.461,1.126c0,.064,1.311,1.963,2.907,4.221l2.9,4.1,3.956.045,3.956.045.33-.647a4.961,4.961,0,0,1,6.411-1.991,4.9,4.9,0,0,1,2.575,5.894,3.858,3.858,0,0,1-1.235,1.927,4.74,4.74,0,0,1-5.108,1.245,6.1,6.1,0,0,1-2.714-2.314l-.324-.6H93.075l-.487-.628c-.268-.345-1.875-2.616-3.571-5.046s-3.167-4.449-3.268-4.488a6.766,6.766,0,0,0-1.678.533,33.931,33.931,0,0,1-8.99,2.184l-1.131.113v5.783l.481.2a4.923,4.923,0,0,1,1.168.88,4.872,4.872,0,0,1-2.253,8.256,3.433,3.433,0,0,1-2.19.079Zm2.24-2.833a2.144,2.144,0,0,0,1.12-2.018A2.382,2.382,0,0,0,70,197.772a2.5,2.5,0,0,0,.909,3.031,2.783,2.783,0,0,0,2.49-.041ZM38.75,195.944a2.378,2.378,0,0,0-.571-4.164,1.748,1.748,0,0,0-1.453-.081,2.363,2.363,0,0,0,.852,4.636A2.8,2.8,0,0,0,38.75,195.944Zm69.438.222a2.325,2.325,0,0,0,1.133-3.185,1.765,1.765,0,0,0-1.118-1.125,2.195,2.195,0,0,0-2.671.445A2.378,2.378,0,0,0,108.188,196.166ZM70.4,183.636l.047-2.125-.8-.106a31,31,0,0,1-5.229-1.12l-1.592-.51-.437.523c-.24.288-.8,1.06-1.251,1.716-.764,1.118-.8,1.206-.511,1.415.889.65,5.259,1.884,7.886,2.227,1.987.259,1.835.422,1.888-2.019Zm6.905,1.77a27.935,27.935,0,0,0,5.184-1.424c1.922-.739,1.87-.591.766-2.183-.533-.769-1.112-1.556-1.286-1.749l-.317-.351-1.653.554a25.871,25.871,0,0,1-3.22.819c-.862.146-1.868.318-2.237.384l-.67.119-.049,1.758a14.827,14.827,0,0,0,.048,2.147c.091.366.152.382,1.054.282C75.446,185.7,76.518,185.543,77.3,185.407Zm-18.949-5.285c1.269-1.814,1.346-2.026.827-2.264a25.973,25.973,0,0,1-4.957-4.049L52.5,172.042l-1.838.907a5.778,5.778,0,0,0-1.838,1.146c0,.586,3.372,4.08,5.487,5.686a13.379,13.379,0,0,0,2.8,1.863,7.526,7.526,0,0,0,1.237-1.523Zm30.773.321c2.346-1.658,6.435-5.765,6.435-6.463a7.324,7.324,0,0,0-1.833-1.112l-1.833-.919-1.726,1.77a30.25,30.25,0,0,1-4.7,3.984l-.632.46.953,1.371c1.182,1.7,1.4,1.957,1.655,1.957a9.829,9.829,0,0,0,1.685-1.047Zm-63.431-1.424a2.411,2.411,0,1,0-3.5-2.136A2.408,2.408,0,0,0,25.694,179.019Zm95.455-.041a2.417,2.417,0,1,0-2.293.041A2.345,2.345,0,0,0,121.15,178.978Zm-43.937-2.5a20.692,20.692,0,0,0,14.859-14.846,14.257,14.257,0,0,0,.542-4.853,18.317,18.317,0,0,0-2.183-9.616,20.6,20.6,0,0,0-29.863-7.51,21.266,21.266,0,0,0-7.944,10.513,21.721,21.721,0,0,0-.019,12.659A20.647,20.647,0,0,0,68.59,176.795c.691.111,1.369.229,1.508.263s1.344.033,2.68,0a15.927,15.927,0,0,0,4.434-.576Zm-8.182-8a22.516,22.516,0,0,1-8.4-4.036A43.174,43.174,0,0,1,54.109,158c-1.118-1.495-1.166-1.2.544-3.323a32.751,32.751,0,0,1,10.754-8.565,16.183,16.183,0,0,1,11.717-.682,28.333,28.333,0,0,1,10.318,6.822c1.952,1.957,3.6,3.984,3.593,4.433,0,.6-2.864,3.918-5.108,5.916a24.076,24.076,0,0,1-10.672,5.9,19.653,19.653,0,0,1-6.226-.011Zm4.61-5.314a6.549,6.549,0,0,0,4.4-3.625,4.6,4.6,0,0,0,.517-2.68,4.726,4.726,0,0,0-.452-2.555,6.5,6.5,0,0,0-11.775-.2,4.488,4.488,0,0,0-.5,2.755,4.862,4.862,0,0,0,.437,2.68,6.641,6.641,0,0,0,2.814,2.994,6,6,0,0,0,4.562.631Zm.016-7.7a1.927,1.927,0,0,1,.149-3.391,1.875,1.875,0,0,1,2.181.43,1.422,1.422,0,0,1,.477,1.261,1.484,1.484,0,0,1-.57,1.353,1.428,1.428,0,0,1-1.214.564A2.606,2.606,0,0,1,73.656,155.47ZM62.678,161.6c-.049-.161-.257-.745-.463-1.3a8.815,8.815,0,0,1-.453-2.851,9.308,9.308,0,0,1,1.067-5.244,4.271,4.271,0,0,0,.505-1.322c-.312-.312-6.134,5.141-6.134,5.744,0,.481,4.916,5.264,5.41,5.264.086,0,.117-.132.068-.293ZM83.16,160.8c1.586-1.323,4.025-3.872,4.025-4.207,0-.547-5.619-5.764-6.209-5.764a3.828,3.828,0,0,0,.512,1.357,10.571,10.571,0,0,1,.266,9.07c-.177.414-.2.628-.081.628A8.247,8.247,0,0,0,83.16,160.8ZM50.406,169.2c.112-.174.026-.49-.29-1.071a26.443,26.443,0,0,1-2.524-8.151l-.2-1.518-2.239-.047-2.239-.047.113,1.217a29.622,29.622,0,0,0,3.394,10.888l.389.62,1.72-.822a9.452,9.452,0,0,0,1.879-1.069Zm48.195-.042a29.6,29.6,0,0,0,2.694-9.777l.044-.921H96.987l-.133.838a27.234,27.234,0,0,1-2.454,8.435c-.495.984-.623,1.384-.477,1.482a34.865,34.865,0,0,0,3.617,1.711,5.6,5.6,0,0,0,1.061-1.767Zm-79.6-10.429a2.472,2.472,0,0,0,.017-4.16,2.523,2.523,0,0,0-3.577.963,2.392,2.392,0,0,0,.59,2.979,2.424,2.424,0,0,0,2.969.219Zm109.219,0a2.472,2.472,0,0,0,.017-4.16,2.523,2.523,0,0,0-3.577.963,2.392,2.392,0,0,0,.59,2.979,2.424,2.424,0,0,0,2.969.219Zm-81.066-3.709a.692.692,0,0,0,.324-.557,27.222,27.222,0,0,1,2.428-8.611,6,6,0,0,0,.648-1.752,23.453,23.453,0,0,0-3.82-1.806c-.279,0-1.967,3.591-2.521,5.36-.975,3.12-1.552,7.082-1.075,7.384a12.907,12.907,0,0,0,4.015-.019Zm54.086.016c.538-.34-.415-5.507-1.6-8.68a17.742,17.742,0,0,0-1.9-3.973,15.411,15.411,0,0,0-4.028,1.914,9.588,9.588,0,0,0,.651,1.477,26.576,26.576,0,0,1,2.442,8.278c.081.691.189.974.394,1.028a18.3,18.3,0,0,0,4.041-.044ZM54.632,139.305a26.209,26.209,0,0,1,3.614-3.114,12.789,12.789,0,0,0,1.466-1.046A34.519,34.519,0,0,0,57.3,131.75c-.308-.256-.549-.136-2.416,1.206-2.5,1.8-6.592,6.031-6.293,6.515a38.531,38.531,0,0,0,3.849,1.983c.026,0,1.013-.967,2.195-2.148Zm39.423,1.226a9.8,9.8,0,0,0,1.84-1.06c0-.343-2.816-3.486-4.221-4.712-1.938-1.691-3.9-3.062-4.279-2.989a15.491,15.491,0,0,0-2.552,3.414,6.465,6.465,0,0,0,1.461,1.166,25.8,25.8,0,0,1,3.476,3.033A17.881,17.881,0,0,0,92,141.441,13.8,13.8,0,0,0,94.055,140.531Zm-68.036-1.873a3.032,3.032,0,0,0,1.1-2.469,2.614,2.614,0,0,0-1.622-2,1.677,1.677,0,0,0-1.454-.125,2.576,2.576,0,0,0-1.955,2.934,2.953,2.953,0,0,0,1.514,1.889A2.874,2.874,0,0,0,26.019,138.658Zm94.891.222a2.548,2.548,0,0,0,.772-4.194,2.421,2.421,0,0,0-2.579-.531,3.005,3.005,0,0,0-1.094.717,2.552,2.552,0,0,0,2.9,4.008ZM67.972,132.3c2.821-.432,2.537-.144,2.591-2.626.04-1.81.007-2.151-.215-2.236a21.43,21.43,0,0,0-5.36.773c-2.212.559-4.6,1.457-4.719,1.776a14.069,14.069,0,0,0,2.155,3.358l.322.356,1.759-.57a26.736,26.736,0,0,1,3.466-.832Zm14.13,1.067a24.482,24.482,0,0,0,2.234-3.279c0-.26-3.207-1.451-5.193-1.93a28,28,0,0,0-4.87-.779h-.49v4.508l.544.078a28.985,28.985,0,0,1,5.474,1.175c1.992.691,1.9.681,2.3.229ZM38.444,121.645a2.594,2.594,0,0,0,1.415-2.651,2.806,2.806,0,0,0-2.063-2.076,2.677,2.677,0,0,0-2.978,2.213,2.648,2.648,0,0,0,1.435,2.514,3.5,3.5,0,0,0,1.1.377,3.5,3.5,0,0,0,1.1-.377Zm69.853,0a2.459,2.459,0,0,0-.106-4.505,2.218,2.218,0,0,0-2.748.527,2.17,2.17,0,0,0-.476,2.811,2.249,2.249,0,0,0,1.14,1.168,3.5,3.5,0,0,0,1.1.377A3.5,3.5,0,0,0,108.3,121.645Zm-34.765-4.986a2.545,2.545,0,0,0,.034-4.192,2.422,2.422,0,0,0-3.284.432,2.5,2.5,0,0,0-.535,2.436,3,3,0,0,0,1.731,1.692,2.952,2.952,0,0,0,2.053-.368Z" transform="translate(-12.675 -109.628)" fill="aqua"/>
    <path id="path892" d="M71.157,203.692a4.8,4.8,0,0,1-3.431-2.755,4.949,4.949,0,0,1,1.974-6.389l.74-.434-.046-2.786-.046-2.786-2.136-.287a34.615,34.615,0,0,1-7.7-1.966,5.176,5.176,0,0,0-1.864-.527c-.081.081-1.7,2.359-3.607,5.064l-3.46,4.917-4.779.044-4.779.044-.323.6a6.1,6.1,0,0,1-2.713,2.311,4.74,4.74,0,0,1-5.108-1.245,3.858,3.858,0,0,1-1.235-1.927,4.9,4.9,0,0,1,2.575-5.894,4.961,4.961,0,0,1,6.411,1.991l.33.647,3.958-.045,3.958-.045,2.822-4.008c1.552-2.2,2.822-4.094,2.822-4.2a5.744,5.744,0,0,0-1.382-1.134,31.84,31.84,0,0,1-5.772-5.175c-.718-.845-1.5-1.758-1.731-2.029l-.426-.493-3.427,1.735-3.427,1.735-5.045.051-5.045.051-.546.843a4.887,4.887,0,0,1-8.514-.442,3.71,3.71,0,0,1-.442-2.178,3.752,3.752,0,0,1,.447-2.193,4.9,4.9,0,0,1,8.525-.38l.666.981h8.781l3.016-1.451c1.659-.8,3.06-1.518,3.115-1.6a6.685,6.685,0,0,0-.7-1.8A32.627,32.627,0,0,1,40.7,160.313c-.058-.6-.14-1.258-.182-1.466l-.077-.377H22.2l-.329.644a4.784,4.784,0,0,1-4.2,2.433,4.685,4.685,0,0,1-4.318-2.658,5.12,5.12,0,0,1-.075-4.124A4.776,4.776,0,0,1,20.8,153.18a6.432,6.432,0,0,1,1.134,1.321,1.084,1.084,0,0,0,.914.684c.807.134,16.176.127,16.988-.007.354-.058.665-.189.693-.291s.138-.956.245-1.9a30.222,30.222,0,0,1,2.878-9.552,23,23,0,0,0,.986-2.219,20.971,20.971,0,0,0-3.014-1.675l-3.013-1.508H29.063l-.324.628a5.531,5.531,0,0,1-2.363,2.207,4.643,4.643,0,0,1-5.484-1.556,4.572,4.572,0,0,1,3.278-7.254,4.8,4.8,0,0,1,4.517,2.457L29,135.1l5.095.084,5.095.084,3.482,1.709a26.937,26.937,0,0,0,3.685,1.628,2.78,2.78,0,0,0,.646-.7,33.118,33.118,0,0,1,7.4-7.1c1.006-.691,1.459-1.1,1.424-1.293-.028-.154-1.364-2.145-2.969-4.423l-2.917-4.143H41.794l-.332.651a5.073,5.073,0,0,1-2.081,2.075,5.461,5.461,0,0,1-4.065,0,5.215,5.215,0,0,1-2.117-2.117,3.752,3.752,0,0,1-.368-2.033,3.942,3.942,0,0,1,1.263-3.254,4.614,4.614,0,0,1,7.2.9l.524.928h9.488l.487.628c.268.345,1.872,2.607,3.564,5.025,1.976,2.824,3.179,4.4,3.362,4.4a13.271,13.271,0,0,0,1.992-.677,31.09,31.09,0,0,1,7.123-1.835c.921-.108,1.939-.25,2.261-.315l.586-.118.041-2.925a21.02,21.02,0,0,0-.084-3.1,4.781,4.781,0,0,0-.916-.632,4.583,4.583,0,0,1,2.787-8.449,4.542,4.542,0,0,1,4.046,5.891,5,5,0,0,1-2.307,2.8l-.636.324v3a14.538,14.538,0,0,0,.163,3.1,10.091,10.091,0,0,0,1.633.261,32.8,32.8,0,0,1,8.885,2.27,13.524,13.524,0,0,0,1.537.571c.084,0,1.567-2.016,3.295-4.481s3.36-4.764,3.628-5.109l.487-.628h9.488l.524-.928a4.463,4.463,0,0,1,4.378-2.208,4.635,4.635,0,0,1,3.719,2.527,5.461,5.461,0,0,1,0,4.065,4.635,4.635,0,0,1-3.719,2.527,4.517,4.517,0,0,1-4.4-2.239l-.507-.9H94.6l-2.974,4.222c-1.636,2.322-3.009,4.312-3.051,4.423s.1.324.311.474a34.382,34.382,0,0,1,7.914,7.193,6.541,6.541,0,0,0,1.348,1.446c.12,0,1.791-.773,3.713-1.717l3.495-1.717,5.095-.084,5.095-.084.314-.586a5.2,5.2,0,0,1,2.774-2.282,4.581,4.581,0,1,1-.547,8.588,5.748,5.748,0,0,1-2.34-2.276l-.265-.513h-9.537l-3.1,1.547a17.6,17.6,0,0,0-3.1,1.762,12.692,12.692,0,0,0,.812,1.845,31.251,31.251,0,0,1,3.132,10.676,3.2,3.2,0,0,0,.308,1.3c.225.148,16.49.172,17.557.026.634-.087.8-.191,1.057-.674a6.7,6.7,0,0,1,1.1-1.309,4.712,4.712,0,0,1,6.487.1,4.293,4.293,0,0,1,1.452,3.5,4.544,4.544,0,0,1-1.441,3.467,4.894,4.894,0,0,1-7.525-1.15l-.329-.645-9.245.043-9.245.043-.284,2.184a30.776,30.776,0,0,1-2.831,9.743c-.584,1.244-.75,1.751-.609,1.864.107.085,1.553.8,3.213,1.6l3.019,1.444h8.775l.666-.981a4.866,4.866,0,0,1,8.18-.134,4.721,4.721,0,0,1,.329,4.895,4.877,4.877,0,0,1-8.494.432l-.546-.843-5.045-.051-5.045-.051-3.391-1.717c-1.865-.944-3.489-1.717-3.609-1.717s-.5.375-.853.833a33.406,33.406,0,0,1-7.014,6.719,9.312,9.312,0,0,0-1.461,1.126c0,.064,1.311,1.963,2.907,4.221l2.9,4.1,3.956.045,3.956.045.33-.647a4.961,4.961,0,0,1,6.411-1.991,4.9,4.9,0,0,1,2.575,5.894,3.858,3.858,0,0,1-1.235,1.927,4.74,4.74,0,0,1-5.108,1.245,6.1,6.1,0,0,1-2.714-2.314l-.324-.6H93.075l-.487-.628c-.268-.346-1.875-2.616-3.571-5.046s-3.167-4.449-3.268-4.488a6.766,6.766,0,0,0-1.678.533,33.931,33.931,0,0,1-8.99,2.184l-1.131.113v5.783l.481.2a4.924,4.924,0,0,1,1.168.88,4.872,4.872,0,0,1-2.253,8.256,3.433,3.433,0,0,1-2.19.079Zm2.24-2.833a2.144,2.144,0,0,0,1.12-2.018A2.382,2.382,0,0,0,70,197.87a2.5,2.5,0,0,0,.909,3.031,2.783,2.783,0,0,0,2.49-.041ZM38.75,196.042a2.378,2.378,0,0,0-.571-4.164,1.748,1.748,0,0,0-1.453-.081,2.363,2.363,0,0,0,.852,4.636A2.8,2.8,0,0,0,38.75,196.042Zm69.438.222a2.325,2.325,0,0,0,1.133-3.185,1.765,1.765,0,0,0-1.118-1.125,2.195,2.195,0,0,0-2.671.445A2.378,2.378,0,0,0,108.188,196.264ZM70.4,183.734l.047-2.125-.8-.106a31.006,31.006,0,0,1-5.229-1.12l-1.592-.51-.437.523c-.24.288-.8,1.06-1.251,1.716-.764,1.118-.8,1.206-.511,1.415.889.65,5.259,1.884,7.886,2.227,1.987.259,1.835.422,1.888-2.019ZM77.3,185.5a27.935,27.935,0,0,0,5.184-1.424c1.922-.739,1.87-.591.766-2.183-.533-.769-1.112-1.556-1.286-1.749l-.317-.351-1.653.554a25.874,25.874,0,0,1-3.22.819c-.862.146-1.868.318-2.237.384l-.67.119-.049,1.758a14.827,14.827,0,0,0,.048,2.147c.091.366.152.382,1.054.282C75.446,185.8,76.518,185.641,77.3,185.5Zm-18.949-5.285c1.269-1.814,1.346-2.026.827-2.264a25.973,25.973,0,0,1-4.957-4.049L52.5,172.139l-1.838.907a5.778,5.778,0,0,0-1.838,1.146c0,.586,3.372,4.08,5.487,5.686a13.379,13.379,0,0,0,2.8,1.863,7.527,7.527,0,0,0,1.237-1.523Zm30.773.321c2.346-1.658,6.435-5.765,6.435-6.463a7.324,7.324,0,0,0-1.833-1.112l-1.833-.919-1.726,1.77a30.25,30.25,0,0,1-4.7,3.984l-.632.46.953,1.371c1.182,1.7,1.4,1.957,1.655,1.957a9.829,9.829,0,0,0,1.685-1.047Zm-63.431-1.424a2.411,2.411,0,1,0-3.5-2.136A2.408,2.408,0,0,0,25.694,179.117Zm95.455-.041a2.417,2.417,0,1,0-2.293.041A2.345,2.345,0,0,0,121.15,179.076Zm-43.937-2.5a20.692,20.692,0,0,0,14.859-14.846,14.257,14.257,0,0,0,.542-4.853,18.212,18.212,0,0,0-1.1-7.2,20.4,20.4,0,0,0-9.8-11.354,19.925,19.925,0,0,0-9.518-2.3,20.155,20.155,0,0,0-16.544,8.289A21.193,21.193,0,0,0,52.6,162.926,20.647,20.647,0,0,0,68.59,176.893c.691.111,1.369.229,1.508.263s1.344.033,2.68,0a15.927,15.927,0,0,0,4.434-.576Zm-8.182-8a22.516,22.516,0,0,1-8.4-4.036,43.174,43.174,0,0,1-6.524-6.452c-1.118-1.5-1.166-1.2.547-3.323a47.227,47.227,0,0,1,4.554-4.593c3.786-3.044,7.467-4.785,11.139-5.27,5.4-.713,11.806,2.088,17.178,7.514,1.9,1.915,3.511,3.921,3.509,4.356,0,.6-2.864,3.918-5.108,5.916a24.076,24.076,0,0,1-10.672,5.9,19.653,19.653,0,0,1-6.226-.011Zm4.61-5.314a6.549,6.549,0,0,0,4.4-3.625,4.6,4.6,0,0,0,.517-2.68,4.726,4.726,0,0,0-.452-2.555,6.713,6.713,0,0,0-5.007-3.792,6.027,6.027,0,0,0-4.823,1.225,6.248,6.248,0,0,0-2.5,5.5,6.131,6.131,0,0,0,3.3,5.293A6,6,0,0,0,73.64,163.268Zm.016-7.7a1.927,1.927,0,0,1,.149-3.391,1.875,1.875,0,0,1,2.181.43,1.422,1.422,0,0,1,.477,1.261,1.484,1.484,0,0,1-.57,1.353,1.428,1.428,0,0,1-1.214.564A2.607,2.607,0,0,1,73.656,155.568ZM62.678,161.7c-.049-.161-.257-.745-.463-1.3a8.814,8.814,0,0,1-.453-2.851,9.308,9.308,0,0,1,1.067-5.244,4.272,4.272,0,0,0,.505-1.322c-.312-.312-6.134,5.141-6.134,5.744,0,.481,4.916,5.264,5.41,5.264.086,0,.117-.132.068-.293ZM83.16,160.9c1.586-1.323,4.025-3.872,4.025-4.207,0-.547-5.619-5.764-6.209-5.764a3.828,3.828,0,0,0,.512,1.357,10.571,10.571,0,0,1,.266,9.07c-.177.414-.2.628-.081.628A8.247,8.247,0,0,0,83.16,160.9Zm-32.753,8.392c.112-.174.026-.49-.29-1.071a26.443,26.443,0,0,1-2.524-8.151l-.2-1.518-2.239-.047-2.239-.047.113,1.217a29.622,29.622,0,0,0,3.394,10.888l.389.62,1.72-.822a9.453,9.453,0,0,0,1.879-1.069Zm48.195-.042a29.6,29.6,0,0,0,2.694-9.777l.044-.921H96.987l-.133.838a27.235,27.235,0,0,1-2.454,8.435c-.495.984-.623,1.384-.477,1.482a34.864,34.864,0,0,0,3.617,1.711,5.6,5.6,0,0,0,1.061-1.767Zm-79.6-10.429a2.472,2.472,0,0,0,.017-4.16,2.523,2.523,0,0,0-3.577.963,2.392,2.392,0,0,0,.59,2.979,2.424,2.424,0,0,0,2.969.219Zm109.219,0a2.472,2.472,0,0,0,.017-4.16,2.523,2.523,0,0,0-3.577.963,2.392,2.392,0,0,0,.59,2.979,2.424,2.424,0,0,0,2.969.219Zm-81.066-3.709a.7.7,0,0,0,.324-.564,25.157,25.157,0,0,1,2.451-8.455,9.122,9.122,0,0,0,.784-1.91,25.418,25.418,0,0,0-4-1.963c-.17,0-.527.557-.995,1.55a29.553,29.553,0,0,0-1.834,4.984c.046,0,.013.132-.073.293a3.243,3.243,0,0,0-.243.8c-.689,4.029-.778,5.184-.408,5.333A15.906,15.906,0,0,0,47.159,155.114Zm54.078.021c.266-.168.17-1.679-.246-3.868-.244-1.284-.274-1.424-.563-2.608-.465-1.907-2.219-6.062-2.679-6.346a23.074,23.074,0,0,0-4.2,2.007c0,.047.329.744.731,1.548a25.389,25.389,0,0,1,2.53,8.278c.08.691.188.973.393,1.028A18.647,18.647,0,0,0,101.237,155.135ZM53.906,140.308a26.39,26.39,0,0,1,4.926-4.178,3.416,3.416,0,0,0,1.047-.859,20.654,20.654,0,0,0-2.634-3.724c-.443-.17-2.741,1.4-5.053,3.459-1.483,1.319-3.9,4.169-3.835,4.518a19.982,19.982,0,0,0,4.082,2.184A8.146,8.146,0,0,0,53.906,140.308Zm40.228.451a6.526,6.526,0,0,0,1.928-1.2c0-.354-1.618-2.258-3.379-3.975-2.168-2.114-5.095-4.254-5.487-4.012a22.637,22.637,0,0,0-2.523,3.746c0,.165.51.613,1.226,1.079a25.5,25.5,0,0,1,4.659,4.115,4.867,4.867,0,0,0,1.356,1.193,12.873,12.873,0,0,0,2.22-.95Zm-68.186-1.765a2.785,2.785,0,0,0,1.358-2.727A3.122,3.122,0,0,0,25.426,134a2.754,2.754,0,0,0-3.532,2.88,2.706,2.706,0,0,0,4.054,2.111Zm95.184.1a2.753,2.753,0,0,0,.321-4.743,2.571,2.571,0,0,0-3.507.491,2.437,2.437,0,0,0-.41,2.982,2.7,2.7,0,0,0,3.6,1.269Zm-56.679-5.656A25.89,25.89,0,0,1,68,132.591c2.988-.456,2.673-.131,2.727-2.814.041-2.026.013-2.316-.234-2.411-.857-.329-5.919.682-8.683,1.733-2.122.808-2.12.8-1.252,2.091a21.591,21.591,0,0,0,2.1,2.824c.048,0,.856-.257,1.8-.571Zm18.838-1.265a8.42,8.42,0,0,0,1.175-2.01c-.156-.811-6.555-2.669-9.437-2.739L73.7,127.4l-.046,2.366c-.046,2.339-.042,2.368.335,2.469a4.094,4.094,0,0,0,.858.1A25.916,25.916,0,0,1,80,133.5a7.894,7.894,0,0,0,1.731.461c.214-.02.764-.651,1.555-1.782ZM38.32,122.061a3.388,3.388,0,0,0,1.722-2.048,2.8,2.8,0,0,0-3.19-3.182,3.163,3.163,0,0,0-1.271.71,2.693,2.693,0,0,0,2.739,4.52Zm69.853,0a2.89,2.89,0,0,0,1.63-3.361,3.443,3.443,0,0,0-2.088-1.866,2.716,2.716,0,0,0-2.931,1.492,2.354,2.354,0,0,0,.039,2.46,2.664,2.664,0,0,0,3.349,1.275ZM73.21,117.112a2.693,2.693,0,0,0-1.378-5.155,2.888,2.888,0,0,0-2.4,2.724,2.99,2.99,0,0,0,1.5,2.363A2.148,2.148,0,0,0,73.21,117.112Z" transform="translate(-12.675 -109.726)" fill="aqua"/>
    <path id="path888" d="M70.329,219.576a4.74,4.74,0,0,1-.4-8.464l.74-.434V204.7L69.7,204.6a33.467,33.467,0,0,1-8.93-2.075,18.471,18.471,0,0,0-1.955-.692,58.657,58.657,0,0,0-3.488,4.732c-1.816,2.6-3.455,4.9-3.644,5.109-.34.374-.384.377-5,.377H42.029l-.592.925a4.723,4.723,0,0,1-6.329,1.628,4.664,4.664,0,0,1-1.119-7.32,4.763,4.763,0,0,1,7.571.914,3.4,3.4,0,0,0,.533.709,44.752,44.752,0,0,0,7.838-.081c.319-.247,5.991-8.275,5.991-8.48a5,5,0,0,0-1.131-.892,35.916,35.916,0,0,1-7.565-7.044,4.741,4.741,0,0,0-.847-.963c-.067,0-1.674.755-3.571,1.678L39.36,194.8l-4.766.008c-2.621,0-4.929.051-5.128.1a1.482,1.482,0,0,0-.674.7,4.824,4.824,0,0,1-6.1,2.041,4.717,4.717,0,0,1-.144-8.5,4.9,4.9,0,0,1,4.1-.075c.807.391,2.307,1.884,2.307,2.3,0,.5.685.574,4.973.574H38.25l3.015-1.438c1.658-.791,3.107-1.526,3.219-1.633.159-.152.024-.563-.614-1.87a32.694,32.694,0,0,1-3.028-10.385,15.28,15.28,0,0,0-.274-1.8c-.1-.163-18.006-.16-18.252,0a2.26,2.26,0,0,0-.455.648,5.153,5.153,0,0,1-4.133,2.406,4.721,4.721,0,0,1-4.681-4.69,4.407,4.407,0,0,1,2.128-4.03,4.754,4.754,0,0,1,6.629,1.561l.642.965,9.073-.043,9.073-.043.113-.838c.062-.461.2-1.478.306-2.261a28.229,28.229,0,0,1,2.7-8.669,23.17,23.17,0,0,0,.986-2.217,3.05,3.05,0,0,0-1.047-.686c-1.785-.889-3.147-1.726-3.09-1.9a3.572,3.572,0,0,1,1.551-.106c.823.033,1.981.051,2.573.042a4.582,4.582,0,0,1,1.253.092c.237.146.769.18.769.048a2.118,2.118,0,0,1,.921-.1,6.887,6.887,0,0,1,.921.038c0,.017-.071.217-.157.444-.2.537-.072.639,2.3,1.789l1.9.917.952-1.012a20.341,20.341,0,0,1,1.706-1.611c.743-.591.778-.6,2.409-.624a11.945,11.945,0,0,0,1.782-.1c.07-.043.219.032.331.168a.349.349,0,0,0,.511.082c.4-.213,1-.211,1,0a.168.168,0,0,1-.168.168c-.092,0-.168.106-.168.235s-.245.382-.544.561a22.139,22.139,0,0,0-3.424,3.083,21.9,21.9,0,0,0-5.1,10.527,26.331,26.331,0,0,0,.081,7.371,20.623,20.623,0,0,0,40.8-5.7,21.1,21.1,0,0,0-7.992-14.774c-.9-.756-1.371-1.264-1.334-1.443a.306.306,0,0,1,.386-.224,4.677,4.677,0,0,0,.706.044c.207-.005.377.075.377.177,0,.13.072.126.241-.014a8.33,8.33,0,0,1,3.528.064,16.725,16.725,0,0,1,1.735,1.561,8.5,8.5,0,0,0,1.62,1.382,17.122,17.122,0,0,0,2.177-.956l1.957-.956-.085-.636c-.1-.776.051-.894.76-.576a2.7,2.7,0,0,0,1.881.129,16.31,16.31,0,0,1,4.277-.037c0,.1.195.1.5.016.327-.094.539-.081.612.038.063.1.034.133-.064.072a.178.178,0,0,0-.26.11,10.309,10.309,0,0,1-2.026,1.214,8.417,8.417,0,0,0-1.944,1.184,20.705,20.705,0,0,0,.99,2.261,28.464,28.464,0,0,1,2.8,9.811c.171,2.116-.948,1.893,9.517,1.893h9.111l.641-.963a4.754,4.754,0,0,1,6.628-1.56,4.407,4.407,0,0,1,2.128,4.03,4.721,4.721,0,0,1-4.681,4.69,5.153,5.153,0,0,1-4.133-2.406,2.259,2.259,0,0,0-.455-.648c-.1-.068-4.273-.124-9.268-.126-10.435,0-9.313-.229-9.5,1.91a32.106,32.106,0,0,1-2.858,10.088,7.724,7.724,0,0,0-.775,2.041,33.731,33.731,0,0,0,3.288,1.694l3.18,1.519h4.3c2.365,0,4.422-.047,4.572-.1a1.779,1.779,0,0,0,.588-.723,5.732,5.732,0,0,1,2.257-2.111,4.767,4.767,0,0,1,6.068,2.224,3.891,3.891,0,0,1,.468,2.139,4.511,4.511,0,0,1-2.7,4.282,4.824,4.824,0,0,1-6.1-2.041,1.482,1.482,0,0,0-.674-.7c-.2-.052-2.516-.1-5.15-.1l-4.789-.008-3.42-1.678c-1.881-.923-3.515-1.678-3.632-1.678A7.914,7.914,0,0,0,96.749,193a32.824,32.824,0,0,1-7.116,6.467c-.483.309-.878.669-.878.8,0,.24,5.352,7.927,5.9,8.477.267.267.677.3,4.024.295a33.861,33.861,0,0,0,3.9-.126,3.4,3.4,0,0,0,.533-.709,4.763,4.763,0,0,1,7.571-.914,4.664,4.664,0,0,1-1.119,7.32,4.723,4.723,0,0,1-6.329-1.628l-.592-.925-4.643,0c-2.554,0-4.726-.058-4.826-.126s-1.674-2.271-3.5-4.9-3.454-4.9-3.628-5.052c-.3-.261-.4-.243-1.687.3a32.709,32.709,0,0,1-8.906,2.245,4.589,4.589,0,0,0-1.648.376,30.155,30.155,0,0,0,.009,5.615,4.961,4.961,0,0,0,.961.755,4.763,4.763,0,0,1-.674,8.342,5.558,5.558,0,0,1-3.78-.031Zm3.328-2.209a2.517,2.517,0,0,0-.044-4.3,2.591,2.591,0,0,0-3.954,2.116,2.458,2.458,0,0,0,1.79,2.49,2.389,2.389,0,0,0,2.209-.306Zm-34.718-4.8a2.576,2.576,0,0,0-.257-4.326,2.492,2.492,0,0,0-3.485.946,2.562,2.562,0,0,0,.936,3.514A2.75,2.75,0,0,0,38.939,212.57Zm69.582.131a2.566,2.566,0,1,0-3.472-.919A2.53,2.53,0,0,0,108.521,212.7ZM70.626,200.124l.047-2.295-.549-.079a33.019,33.019,0,0,1-5.38-1.111,14.385,14.385,0,0,0-1.829-.5,12.244,12.244,0,0,0-2.605,3.649c.151.8,7.24,2.766,9.6,2.663l.67-.029Zm7.362,1.868c2.937-.6,6.411-1.832,6.411-2.265a25.637,25.637,0,0,0-2.507-3.67,8.162,8.162,0,0,0-1.875.491,25.977,25.977,0,0,1-3.407.848c-.921.148-1.939.321-2.261.384l-.586.116-.049,1.926a16.838,16.838,0,0,0,.051,2.326c.1.39.128.4,1.375.284.7-.064,1.984-.261,2.849-.439ZM58.63,196.638a9.729,9.729,0,0,0,1.139-1.854,4.774,4.774,0,0,0-1.459-1.249,29.712,29.712,0,0,1-3.539-3.045,23.481,23.481,0,0,0-2.222-2.06,29.679,29.679,0,0,0-3.9,1.992c-.144.232,1.652,2.4,3.278,3.957,2.141,2.05,4.8,4,5.329,3.9a7.861,7.861,0,0,0,1.377-1.638Zm30.41.637a30.379,30.379,0,0,0,5.566-5.1,15.235,15.235,0,0,0,1.352-1.759,11.515,11.515,0,0,0-2.014-1.148l-2.014-1.009-2.048,2.064a27.079,27.079,0,0,1-3.6,3.111,9.4,9.4,0,0,0-1.55,1.179,32.287,32.287,0,0,0,2.134,3.169c.486.655.495.653,2.17-.506Zm-63.1-1.683a2.595,2.595,0,0,0-.017-4.454,2.589,2.589,0,1,0-2.461,4.552,2.573,2.573,0,0,0,2.478-.1Zm95.6-.092a2.673,2.673,0,0,0-.352-4.452,2.53,2.53,0,0,0-2.451.1,2.595,2.595,0,0,0,.017,4.454A2.676,2.676,0,0,0,121.541,195.5Zm-70.812-9.849a13.31,13.31,0,0,0-.743-1.762,24.918,24.918,0,0,1-2.27-7.8,3.306,3.306,0,0,0-.166-.963c-.163-.429-.165-.43-2.241-.43-1.534,0-2.126.059-2.264.225-.388.467.32,4.5,1.317,7.5a23.107,23.107,0,0,0,2.388,5.2,14.4,14.4,0,0,0,3.978-1.968Zm47.942.267c1.523-3.079,2.916-8.262,2.782-10.347l-.051-.792-2.07-.047c-2.321-.053-2.536.025-2.536.921a25.711,25.711,0,0,1-2.444,8.45c-.646,1.289-.7,1.474-.466,1.667a20.044,20.044,0,0,0,3.747,1.771,5.121,5.121,0,0,0,1.038-1.621Zm-79.594-10.6a2.568,2.568,0,0,0-.243-4.5,2.221,2.221,0,0,0-2.21,0,2.568,2.568,0,0,0,1.1,4.874,2.294,2.294,0,0,0,1.348-.377Zm109.219,0a2.568,2.568,0,0,0-.243-4.5,2.221,2.221,0,0,0-2.21,0,2.568,2.568,0,0,0,1.1,4.874A2.294,2.294,0,0,0,128.3,175.323Zm-80.7-4.564a25.6,25.6,0,0,1,2.442-8.376,8.085,8.085,0,0,0,.743-1.806,26.109,26.109,0,0,0-3.985-1.963c-.507,0-2.272,4.164-3.032,7.152a25.891,25.891,0,0,0-.816,5.611c.092.288.275.31,2.306.267l2.207-.047Zm53.775-.586a24.265,24.265,0,0,0-1.383-6.709,20.194,20.194,0,0,0-2.176-4.759,23.074,23.074,0,0,0-4.2,2.007c0,.047.344.771.764,1.608a24.181,24.181,0,0,1,2.418,8.427c0,.879.191.947,2.509.9l2.1-.047ZM70.6,185.063a20.151,20.151,0,0,1-9.527-4c-2.452-1.719-7.666-7.1-7.666-7.908a7.6,7.6,0,0,1,1.057-1.562c3.723-4.7,8.381-8.166,12.93-9.615,4.268-1.359,8.115-.981,12.564,1.235a27.411,27.411,0,0,1,3.937,2.411,43.135,43.135,0,0,1,6.593,6.588l.646.948-.5.726a37.4,37.4,0,0,1-4.7,5.112c-5.266,4.609-10.282,6.594-15.329,6.067Zm3.639-5.448a6.751,6.751,0,0,0,3.9-3.382c.445-.878.482-1.1.482-2.795a4.759,4.759,0,0,0-.492-2.846,6.5,6.5,0,0,0-8.606-3.1,6.432,6.432,0,0,0-3.116,3.035,5.951,5.951,0,0,0-.605,4.047,6.585,6.585,0,0,0,5.365,5.291,6.272,6.272,0,0,0,3.075-.247Zm-.51-7.76a1.582,1.582,0,0,1-.89-1.516,1.72,1.72,0,0,1,1.818-1.839,1.451,1.451,0,0,1,1.3.566,1.62,1.62,0,0,1,.307,2.132,2.247,2.247,0,0,1-1.7.983A2.2,2.2,0,0,1,73.731,171.856Zm-10.845,6.214a9.618,9.618,0,0,1-1.006-4.631,9.134,9.134,0,0,1,1.2-4.988,4.307,4.307,0,0,0,.514-1.216c-.376-.376-6.5,5.225-6.5,5.945a32.353,32.353,0,0,0,4.494,4.552C62.859,178.754,63.3,178.869,62.887,178.069Zm20.536-.806a27.721,27.721,0,0,0,3.84-3.938c.143-.268-.113-.6-1.724-2.254-1.9-1.946-4.513-4.094-4.614-3.791a4.928,4.928,0,0,0,.531,1.317,9.47,9.47,0,0,1,1.1,4.834,9.154,9.154,0,0,1-.81,4.175,5.559,5.559,0,0,0-.361.968c0,.253.686-.188,2.038-1.311ZM22.641,157.106c-1.162-.581-2.017-1.58-1.689-1.975.26-.313,1.143-.166,2.366.394a2.385,2.385,0,0,0,1.49.327,5.416,5.416,0,0,0,1.767-.646c.464-.356,1.875-.3,1.875.078a2.968,2.968,0,0,1-.534.857,4.276,4.276,0,0,1-5.275.965Zm95.6.153c-.833-.378-1.508-.939-1.508-1.254a.38.38,0,0,0-.251-.3c-.4-.154-.291-.563.182-.682.492-.124.846-.042,1.9.436a3.35,3.35,0,0,0,2.877.015c.975-.455,1.656-.605,1.656-.364,0,.1.12.143.266.086.512-.2.562.088.129.742a4.564,4.564,0,0,1-5.253,1.321Zm-35.681-2.331c-.215-.139-.209-.163.042-.165.161,0,.293.073.293.165,0,.2-.019.2-.335,0Z" transform="translate(-12.738 -126.118)" fill="aqua"/>
    <path id="path880" d="M103.421,219.032c0-.1.113-.173.251-.173.328,0,.324-.271-.006-.4-.229-.088-.23-.152-.009-.579a5.089,5.089,0,0,1,2.049-1.808,5.943,5.943,0,0,1,3.1-.036,4.611,4.611,0,0,1,2.263,1.874c.147.29.209.472.137.4a.254.254,0,0,0-.314.019,1.026,1.026,0,0,1-1.373,0,3.162,3.162,0,0,0-4.424.061c-.264.283-.379.321-.48.158s-.18-.158-.356.053c-.314.378-.837.643-.837.423ZM34.07,218.5c0-.081-.115-.148-.256-.148-.4,0,.1-.849.92-1.548a4.667,4.667,0,0,1,4.2-.8,4.872,4.872,0,0,1,2.255,1.851c.284.549.311.721.094.587a.145.145,0,0,0-.217.1c-.046.137-.175.125-.455-.041s-.411-.179-.461-.04c-.042.116-.278,0-.593-.285a3.668,3.668,0,0,0-2.344-.755c-.118.037-.417.111-.663.164a2.867,2.867,0,0,0-.976.542c-.51.429-1.508.676-1.508.374Zm37-1.53c-.024-2.455-.055-2.527-1.163-2.671a32.16,32.16,0,0,1-9.011-2.081,9.223,9.223,0,0,0-2.112-.678,8.511,8.511,0,0,0-1.188,1.478,54.77,54.77,0,0,1-3.824,4.983c-.37.342-.641.413-1.783.463l-1.347.06.447-.715c1.082-1.73,2.734-4.2,3.878-5.792a7.43,7.43,0,0,0,1.156-1.944,8.038,8.038,0,0,0-1.438-1.167,33.657,33.657,0,0,1-7.088-6.679c-.518-.692-.967-1.131-1.159-1.131a32.952,32.952,0,0,0-3.661,1.675l-3.347,1.675H34.5c-2.711,0-5.049.046-5.2.1a1.484,1.484,0,0,0-.527.653,5.094,5.094,0,0,1-2.216,2.1,4.881,4.881,0,0,1-4.15-.262,4.929,4.929,0,0,1-2.084-2.939,4.593,4.593,0,0,1,2.073-4.751,5.086,5.086,0,0,1,3.733-.424,5.717,5.717,0,0,1,2.706,2.339l.314.586,4.687.044,4.687.044,3.137-1.514a19.952,19.952,0,0,0,3.237-1.774,10.423,10.423,0,0,0-1-2.551,27.381,27.381,0,0,1-2.8-9.8,12.612,12.612,0,0,0-.262-1.8c-.053-.086-4.024-.151-9.294-.151h-9.2l-.442.712A4.409,4.409,0,0,1,19.915,187a4.885,4.885,0,0,1-4.213-.011,5.356,5.356,0,0,1-1.387-1.085c-.858-1.038-1.308-3.133-.808-3.767.269-.341,1.3-.5,1.179-.186-.046.121-.01.22.08.22s.2.375.244.833a2.8,2.8,0,0,0,5.19,1.356,2.272,2.272,0,0,0,.428-1.842c-.035-.592-.035-.991,0-.886s.253.152.534.1a1.264,1.264,0,0,1,.945.216c.261.171.415.214.343.1-.106-.171,1.681-.217,9.136-.231,5.1-.01,9.569-.012,9.937-.006,2.416.039,3.873.023,6.571-.072l3.053-.108.147.4a13.41,13.41,0,0,1,.254,2.158,21.492,21.492,0,0,0,6.263,13.752,20.524,20.524,0,0,0,14.536,5.847c11.27,0,20.135-8.593,20.8-20.159l.11-1.929,1.337-.054c.986-.04,1.359,0,1.421.165a.253.253,0,0,0,.333.123,39.521,39.521,0,0,1,6.073-.031c0,.079.132.092.293.03.453-.175,19.717-.1,19.778.075.031.088.22.077.448-.027a1.467,1.467,0,0,1,.826-.072c.388.1.431.188.431.91a2.6,2.6,0,0,0,.48,1.558,2.8,2.8,0,0,0,5.178-1.365c.044-.458.154-.833.244-.833s.125-.1.077-.226c-.062-.162.062-.221.438-.209,1.436.046,1.207,2.879-.358,4.441a4.523,4.523,0,0,1-5.325.8,4.282,4.282,0,0,1-1.973-1.916l-.442-.712h-9.289c-10.686,0-9.525-.235-9.7,1.961a28.9,28.9,0,0,1-2.88,10.057,14.555,14.555,0,0,0-.908,2.141c0,.169,1.129.8,3.3,1.846l3.3,1.589,4.688-.044,4.688-.044.361-.645a4.1,4.1,0,0,1,4.121-2.37,3.177,3.177,0,0,1,2.261.507,4.59,4.59,0,0,1,2.084,4.757,4.929,4.929,0,0,1-2.084,2.939,5.315,5.315,0,0,1-4.171.271,5.255,5.255,0,0,1-2.2-2.107,1.484,1.484,0,0,0-.527-.653c-.146-.056-2.484-.1-5.2-.1h-4.93l-3.515-1.759c-1.933-.967-3.587-1.759-3.676-1.759a9.531,9.531,0,0,0-1.4,1.549,37.527,37.527,0,0,1-7.782,7.079.852.852,0,0,0-.377.525,7.365,7.365,0,0,0,.985,1.625c.957,1.327,3.209,4.676,4.089,6.08.239.381.4.732.349.779a1.236,1.236,0,0,1-.643-.068,4.323,4.323,0,0,0-1.312-.076l-.755.078-.961-1.205c-.528-.663-1.71-2.242-2.626-3.509-1.086-1.5-1.772-2.3-1.97-2.3a6.894,6.894,0,0,0-1.452.487,30.675,30.675,0,0,1-8.686,2.2,7.7,7.7,0,0,0-1.885.361c-.142.118-.21.709-.21,1.84,0,1.978-.148,2.392-.757,2.114A.878.878,0,0,0,72,218.5c-.873.4-.912.333-.93-1.523Zm-.386-4.609a7.96,7.96,0,0,0,.287-2.336c.116-2.483.031-2.728-.944-2.729a24.164,24.164,0,0,1-5.359-1.113c-1.344-.434-1.868-.538-2.031-.4a22.877,22.877,0,0,0-1.441,2.03c-1.42,2.147-1.444,2.03.594,2.791,3.016,1.125,8.285,2.168,8.895,1.76Zm6.807-.307c2.873-.479,7.03-1.907,7.132-2.45a16.539,16.539,0,0,0-2.591-3.933,8.639,8.639,0,0,0-2.035.5,27.883,27.883,0,0,1-3.644.87c-2.967.454-2.663.159-2.718,2.644-.061,2.766-.011,2.866,1.359,2.72.568-.061,1.692-.22,2.5-.355Zm-18.62-5.47a17.618,17.618,0,0,0,1.282-1.986c.049-.187-.357-.555-1.324-1.2a26.889,26.889,0,0,1-4.745-4.139,13.353,13.353,0,0,0-1.2-1.218c-.324-.2-4.417,1.892-4.417,2.255s2.144,2.947,3.467,4.168c2.14,1.976,4.736,3.84,5.345,3.84C57.576,208.3,57.952,207.9,58.876,206.588Zm29.514,1.274c2.8-1.751,7.918-6.788,7.791-7.671-.033-.228-.616-.609-1.973-1.288a18.585,18.585,0,0,0-2.141-.974,17.3,17.3,0,0,0-2.345,2.137,27.187,27.187,0,0,1-3.6,3.129,4.986,4.986,0,0,0-1.465,1.245,16.591,16.591,0,0,0,2.778,3.865,3.092,3.092,0,0,0,.952-.443ZM26.2,205.583a2.588,2.588,0,0,0,1.3-2.259,1.915,1.915,0,0,0-.324-1.536,2.979,2.979,0,0,0-1.829-1.335,2.814,2.814,0,0,0-3.307,3.467,3.177,3.177,0,0,0,1.548,1.878,3.428,3.428,0,0,0,2.611-.215Zm95.22.119a2.844,2.844,0,0,0,1.413-3.17,2.6,2.6,0,0,0-2.786-2.1,2.732,2.732,0,0,0-2.355,1.344,1.936,1.936,0,0,0-.328,1.548,2.588,2.588,0,0,0,1.3,2.259,3.15,3.15,0,0,0,2.755.119Zm-72.35-8.871a8.785,8.785,0,0,0,2.026-1.17,3.063,3.063,0,0,0-.478-1.3,23.28,23.28,0,0,1-2.577-8.085c-.2-2.042-.041-1.926-2.638-1.926-1.771,0-2.288.052-2.449.246-.363.437.25,4.159,1.188,7.208.968,3.15,2.263,5.947,2.753,5.947a15.733,15.733,0,0,0,2.176-.921Zm49.045.62c.672-.743,2.252-4.815,2.949-7.6.494-1.977.856-4.833.659-5.206-.136-.257-.432-.293-2.377-.293-2.438,0-2.624.066-2.624.933a23.9,23.9,0,0,1-2.28,8.254c-.777,1.607-.886,1.941-.7,2.165a29.206,29.206,0,0,0,4,2.04c.055.005.222-.126.372-.292Zm-28.847-2.973c-4.711-1.022-9.773-4.346-13.661-8.97-1.749-2.08-1.9-2.36-1.591-2.938s1.288-1.069,1.485-.75c.1.155.171.166.251.036.15-.243,1.267-.241,1.267,0,0,.122.1.108.283-.042.207-.169.179-.043-.109.472l-.392.7L57.678,184c1.522,1.757,4.937,4.7,5.451,4.7.334,0,.348.073-.4-2.01a6.974,6.974,0,0,1-.514-2.96,10.418,10.418,0,0,1,.1-1.8c.081-.21.372-.265,1.41-.265,1.85,0,1.838-.009,1.838,1.363a6.943,6.943,0,0,0,4,6.311,7.742,7.742,0,0,0,4.788.277,7.06,7.06,0,0,0,4.3-4.1,8.5,8.5,0,0,0,.437-2.275c.048-.82.155-1.367.27-1.387s.8-.076,1.548-.128l1.358-.1.108.54a9.679,9.679,0,0,1-.821,5.5c-.493,1.08-.489,1.027-.082,1.027a3.879,3.879,0,0,0,1.3-.775c1.548-1.236,4.906-4.636,4.906-4.966a1.635,1.635,0,0,0-.266-.707c-.249-.38-.2-.853.078-.684a6.446,6.446,0,0,0,1.237.113c1.022.033,1.158.082,1.66.6l.546.564-.322.6c-.88,1.635-5.167,5.912-7.583,7.567a21.721,21.721,0,0,1-7.762,3.474,19.444,19.444,0,0,1-6-.011Z" transform="translate(-12.831 -135.941)" fill="aqua"/>
    <path id="path878" d="M107.438,226.589c0-.1.113-.173.251-.173.328,0,.324-.271-.006-.4-.229-.088-.23-.151-.009-.579a5.089,5.089,0,0,1,2.049-1.808,5.943,5.943,0,0,1,3.1-.036,4.611,4.611,0,0,1,2.263,1.874c.147.29.209.472.137.4a.254.254,0,0,0-.314.019,1.026,1.026,0,0,1-1.373,0,3.162,3.162,0,0,0-4.424.061c-.264.283-.379.321-.48.158s-.18-.158-.356.053c-.314.378-.837.643-.837.423Zm-69.351-.528c0-.081-.115-.148-.256-.148-.4,0,.1-.849.92-1.548a4.667,4.667,0,0,1,4.2-.8,4.872,4.872,0,0,1,2.255,1.851c.284.549.311.721.094.587a.145.145,0,0,0-.217.1c-.046.137-.175.125-.455-.041s-.411-.179-.461-.04c-.042.116-.278,0-.593-.285a3.668,3.668,0,0,0-2.344-.755c-.118.037-.417.111-.663.164a2.867,2.867,0,0,0-.976.542c-.51.429-1.508.676-1.508.374Zm37-1.53c-.024-2.455-.055-2.527-1.163-2.671a32.16,32.16,0,0,1-9.011-2.081A9.226,9.226,0,0,0,62.8,219.1a8.512,8.512,0,0,0-1.188,1.478,54.773,54.773,0,0,1-3.824,4.983c-.37.342-.641.413-1.783.463l-1.347.06.447-.715c1.082-1.73,2.734-4.2,3.878-5.792a7.429,7.429,0,0,0,1.156-1.944,8.038,8.038,0,0,0-1.438-1.167,33.658,33.658,0,0,1-7.088-6.679c-.518-.692-.967-1.131-1.159-1.131a32.954,32.954,0,0,0-3.661,1.675l-3.347,1.675h-4.93c-2.711,0-5.049.046-5.2.1a1.484,1.484,0,0,0-.527.653,5.094,5.094,0,0,1-2.216,2.1,4.881,4.881,0,0,1-4.15-.262,4.929,4.929,0,0,1-2.084-2.939,4.593,4.593,0,0,1,2.073-4.751,5.086,5.086,0,0,1,3.733-.424,5.717,5.717,0,0,1,2.706,2.339l.314.586,4.687.044,4.687.044,3.137-1.514a20.006,20.006,0,0,0,3.236-1.773,5.3,5.3,0,0,0-.611-1.754,5.652,5.652,0,0,1-.621-1.728c.049-.128.362-.264.7-.3.606-.071.608-.069,1.415,1.362a5.166,5.166,0,0,0,1.059,1.483,15.643,15.643,0,0,0,4.405-2.16,1.055,1.055,0,0,0-.107-.689c-.177-.332-.171-.356.044-.179a5.626,5.626,0,0,0,2.025.233l1.777.029,1.692,1.811a20.652,20.652,0,0,0,15.671,7.02,19.965,19.965,0,0,0,9.414-2.24,21.489,21.489,0,0,0,6.207-4.764,11.006,11.006,0,0,1,2.22-1.994c0,.221.2.248,1.3.176a5.982,5.982,0,0,0,1.876-.277c.041-.017.079.215.084.517.008.536.054.569,2.164,1.554,1.648.769,2.208.962,2.38.82a8.819,8.819,0,0,0,.9-1.417,8.836,8.836,0,0,1,.8-1.3,2.215,2.215,0,0,1,.754.007c.579.073.619.112.525.521a12.623,12.623,0,0,1-.669,1.644,7.177,7.177,0,0,0-.567,1.471c0,.185,1.036.769,3.3,1.858l3.3,1.589,4.688-.044,4.688-.044.361-.645a4.1,4.1,0,0,1,4.121-2.37,3.177,3.177,0,0,1,2.261.507,4.59,4.59,0,0,1,2.084,4.757,4.929,4.929,0,0,1-2.084,2.939,5.315,5.315,0,0,1-4.171.271,5.255,5.255,0,0,1-2.2-2.107,1.484,1.484,0,0,0-.527-.653c-.146-.056-2.484-.1-5.2-.1h-4.929l-3.515-1.759c-1.933-.967-3.587-1.759-3.676-1.759a9.532,9.532,0,0,0-1.4,1.55,37.527,37.527,0,0,1-7.782,7.079.852.852,0,0,0-.377.525,7.365,7.365,0,0,0,.985,1.625c.957,1.327,3.209,4.676,4.089,6.08.239.381.4.732.349.779a1.236,1.236,0,0,1-.643-.068,4.323,4.323,0,0,0-1.312-.076l-.755.078-.961-1.205c-.528-.663-1.71-2.242-2.626-3.509-1.086-1.5-1.772-2.3-1.97-2.3a6.893,6.893,0,0,0-1.452.487,30.675,30.675,0,0,1-8.686,2.2,7.7,7.7,0,0,0-1.885.361c-.142.118-.21.71-.21,1.84,0,1.978-.148,2.392-.757,2.114a.878.878,0,0,0-.842.005c-.873.4-.912.333-.93-1.523Zm-.386-4.609a7.96,7.96,0,0,0,.287-2.336c.116-2.483.031-2.728-.944-2.729a24.165,24.165,0,0,1-5.359-1.113c-1.344-.434-1.868-.538-2.031-.4a22.876,22.876,0,0,0-1.441,2.03c-1.42,2.147-1.444,2.03.594,2.791,3.016,1.125,8.285,2.168,8.895,1.76Zm6.807-.307c2.873-.479,7.03-1.907,7.132-2.45a16.538,16.538,0,0,0-2.591-3.933,8.638,8.638,0,0,0-2.035.5,27.885,27.885,0,0,1-3.644.87c-2.967.454-2.663.159-2.718,2.644-.061,2.766-.011,2.866,1.359,2.72.568-.061,1.692-.22,2.5-.355Zm-18.62-5.47a17.62,17.62,0,0,0,1.282-1.986c.049-.187-.357-.555-1.324-1.2a26.889,26.889,0,0,1-4.745-4.139,13.356,13.356,0,0,0-1.2-1.218c-.324-.2-4.417,1.892-4.417,2.255s2.144,2.947,3.467,4.168c2.14,1.976,4.736,3.84,5.345,3.84C61.592,215.862,61.969,215.455,62.892,214.145Zm29.514,1.274c2.8-1.751,7.918-6.788,7.791-7.671-.033-.228-.616-.609-1.973-1.288a18.581,18.581,0,0,0-2.141-.974,17.3,17.3,0,0,0-2.345,2.137,27.189,27.189,0,0,1-3.6,3.129A4.986,4.986,0,0,0,88.677,212a16.591,16.591,0,0,0,2.778,3.865,3.092,3.092,0,0,0,.952-.443ZM30.215,213.14a2.588,2.588,0,0,0,1.3-2.259,1.915,1.915,0,0,0-.324-1.536,2.979,2.979,0,0,0-1.829-1.335,2.814,2.814,0,0,0-3.307,3.467,3.177,3.177,0,0,0,1.548,1.878,3.428,3.428,0,0,0,2.611-.215Zm95.22.119a2.844,2.844,0,0,0,1.413-3.17,2.6,2.6,0,0,0-2.786-2.1,2.732,2.732,0,0,0-2.355,1.344,1.936,1.936,0,0,0-.328,1.548,2.588,2.588,0,0,0,1.3,2.259A3.15,3.15,0,0,0,125.435,213.259Z" transform="translate(-16.847 -143.498)" fill="aqua"/>
    <path id="path876" d="M108.562,233.516c0-.1.113-.173.251-.173.328,0,.324-.271-.006-.4-.229-.088-.23-.152-.009-.579a5.089,5.089,0,0,1,2.049-1.808,5.943,5.943,0,0,1,3.1-.036,4.611,4.611,0,0,1,2.263,1.874c.148.29.209.472.137.4a.254.254,0,0,0-.314.019,1.026,1.026,0,0,1-1.373,0,3.162,3.162,0,0,0-4.424.061c-.264.283-.379.321-.48.158s-.18-.158-.356.053c-.314.378-.837.643-.837.423Zm-69.351-.528c0-.081-.115-.148-.256-.148-.4,0,.1-.849.92-1.548a4.667,4.667,0,0,1,4.2-.8,4.872,4.872,0,0,1,2.255,1.851c.284.549.311.721.094.587a.145.145,0,0,0-.217.1c-.046.137-.175.125-.455-.041s-.411-.179-.461-.04c-.042.116-.278,0-.593-.285a3.668,3.668,0,0,0-2.344-.755c-.118.037-.417.111-.663.164a2.867,2.867,0,0,0-.976.542c-.51.429-1.508.676-1.508.374Zm37-1.53c-.024-2.455-.055-2.527-1.163-2.671a32.16,32.16,0,0,1-9.011-2.081,9.223,9.223,0,0,0-2.112-.678,8.511,8.511,0,0,0-1.188,1.478,54.769,54.769,0,0,1-3.824,4.983c-.37.342-.641.413-1.783.463l-1.347.06.447-.715c1.082-1.73,2.734-4.2,3.878-5.792a7.56,7.56,0,0,0,1.158-1.939,10.6,10.6,0,0,0-1.657-1.329,19.922,19.922,0,0,1-2.068-1.637l-.493-.521,1.34.062A3.435,3.435,0,0,1,60.9,222a5.1,5.1,0,0,0,1.534.792c.244,0,.561-.275.965-.838.567-.789.923-.974,1.652-.857.071.011.542.03,1.047.042a3.428,3.428,0,0,1,.919.085c0,.035-.428.706-.951,1.492-1.123,1.688-1.146,1.631.951,2.4,2.843,1.042,7.843,2.056,8.738,1.771.261-.083.307-.281.307-1.318,0-.671.047-1.669.1-2.218.135-1.3-.045-1.48-1.583-1.623-.949-.088-2.216-.383-1.871-.436a58.069,58.069,0,0,1,5.931-.012c.347.078.6.072.6-.016a4.744,4.744,0,0,1,1.672-.113,3.892,3.892,0,0,1,1.539.171,6.534,6.534,0,0,1-1.547.317c-2.319.3-2.168.119-2.168,2.625,0,2.85-.035,2.806,2.02,2.557A28.9,28.9,0,0,0,86.45,225.6c2.209-.706,3.35-1.234,3.35-1.548a5.916,5.916,0,0,0-.78-1.435,5.239,5.239,0,0,1-.706-1.246,8.306,8.306,0,0,1,2.374-.288c.339.039.634.283,1.063.88.326.454.708.826.848.826a6,6,0,0,0,1.427-.779,3.345,3.345,0,0,1,2.5-.82c1.184-.036,1.3-.013,1.112.22s-2.144,1.724-3.44,2.637a.852.852,0,0,0-.377.525,7.365,7.365,0,0,0,.985,1.625c.957,1.327,3.209,4.676,4.089,6.08.239.381.4.732.349.779a1.236,1.236,0,0,1-.643-.068,4.324,4.324,0,0,0-1.312-.076l-.755.078-.961-1.206c-.528-.663-1.71-2.242-2.626-3.509-1.086-1.5-1.772-2.3-1.97-2.3a6.892,6.892,0,0,0-1.452.487,30.676,30.676,0,0,1-8.686,2.2,7.7,7.7,0,0,0-1.885.361c-.142.118-.21.71-.21,1.84,0,1.978-.148,2.392-.757,2.114a.878.878,0,0,0-.842.005c-.873.4-.912.333-.93-1.523Zm-48.186-9.669c-.721-.327-.987-.715-.382-.557a1.712,1.712,0,0,0,.8-.067,2.22,2.22,0,0,1,.968-.049,2.005,2.005,0,0,0,.907-.038.594.594,0,0,1,.565.018.4.4,0,0,0,.392.072c.337-.129,1.1.1.98.29-.419.678-3.013.882-4.225.332Zm95.5.089a1.836,1.836,0,0,1-.635-.407c-.128-.208.632-.443.9-.279a.394.394,0,0,0,.376-.014,6.865,6.865,0,0,1,2.773-.023.7.7,0,0,0,.544.079c.61-.16.349.226-.376.555a5.989,5.989,0,0,1-3.581.089Z" transform="translate(-17.971 -150.425)" fill="aqua"/>
  </g>
</svg>
