<svg id="layer1" xmlns="http://www.w3.org/2000/svg" width="104.959" height="96.614" viewBox="0 0 104.959 96.614">
  <path id="path839" d="M126.047,162.277a3.282,3.282,0,0,1-1.712-2.148,3.385,3.385,0,0,1,.792-3.074l.547-.583-1.315-3.542c-1.427-3.843-5.23-14.2-5.647-15.382-.189-.535-.435-.728-.928-.728a4.985,4.985,0,0,1-3.763-1.769l-1.008-1.145-4.992,1.2c-2.746.658-5.251,1.254-5.567,1.325a1.389,1.389,0,0,0-.866,1.01,4.915,4.915,0,0,1-1.1,1.654,2.476,2.476,0,0,1-2.238.771,2.4,2.4,0,0,1-2.28-.847,2.945,2.945,0,0,1-.963-2.447l-.116-1.6-2.757-2.009-2.757-2.009-.889.422a5.082,5.082,0,0,1-4.233-.095,4.861,4.861,0,0,1-2-3.518c0-.546-.116-.992-.256-.992s-2.778-1-5.863-2.225l-5.609-2.225-1.027.68c-2.836,1.877-6.363-.767-5.107-3.827a5.329,5.329,0,0,1,1.161-1.663l.749-.661-.877-6.879c-.482-3.784-.882-7.015-.889-7.18s-.412-.377-.9-.468a5.1,5.1,0,0,1-3.081-2.944,4.557,4.557,0,0,1,5.033-5.78c.933.149.968.121,2.1-1.659.633-1,1.53-2.407,1.994-3.134s.929-1.472,1.035-1.653a1.055,1.055,0,0,0-.221-.919,3.881,3.881,0,0,1-.412-1.879,2.349,2.349,0,0,1,.879-2.169,3.133,3.133,0,0,1,3.98-.7l1.037.568,2.278-1.3a18.986,18.986,0,0,1,2.513-1.3.542.542,0,0,0,.4-.245,10.125,10.125,0,0,1,1.773-1.147c.886-.494,3.825-2.148,6.531-3.676L94.4,71.6l-.008-1.255a4.1,4.1,0,0,1,3.353-4.17,4.257,4.257,0,0,1,4.532,2.58c.361.847.393.86,2.149.871.98.006,6.843.228,13.027.494l11.245.482.875-1.017a3.315,3.315,0,0,1,5.342-.115c.547.593.66.978.653,2.224l-.008,1.507,5.126,4.094c2.82,2.252,6.275,5.018,7.679,6.148,1.679,1.352,2.689,2,2.952,1.881,1.765-.765,2.612-.959,3.481-.8a4.644,4.644,0,0,1,2.519,7.84,2.681,2.681,0,0,0-.7.882c0,.121,1.084,3.058,2.415,6.526l2.419,6.306.894.168a4.076,4.076,0,0,1,2.888,2.674,3.224,3.224,0,0,1-.922,3.082,2.653,2.653,0,0,1-2.169.99l-1.411.143-2.359,3.777c-2.257,3.615-2.339,3.8-1.9,4.279a3.728,3.728,0,0,1-2.227,5.863c-1.163.348-1.051.125-2.012,4l-.442,1.782.825.939a3.3,3.3,0,0,1-1.18,5.279,3.166,3.166,0,0,1-3.638-.649l-.869-.763-4.819,1.23-4.819,1.23-.271,1.068a4.353,4.353,0,0,1-1.272,1.994l-1,.926.391,2.58c.329,2.172.466,2.58.871,2.58.8,0,2.317,1.534,2.5,2.532a3.16,3.16,0,0,1-1.151,3.241c-.944.89-.994.9-2.694.747l-1.732-.16-1.105,1.054c-1,.949-1.083,1.133-.88,1.841.774,2.7-2.542,5.248-4.894,3.765Zm4.858-7c1.03-.937,1.078-1.047.928-2.138a3.44,3.44,0,0,1,1.357-3.309l.672-.528-.4-2.472c-.22-1.359-.4-2.546-.4-2.637s-.342-.233-.758-.317c-1.671-.334-2.738-1.847-2.8-3.963-.018-.682-.342-.909-4.062-2.851-4.007-2.093-4.047-2.107-4.688-1.641-.355.259-.65.61-.655.781-.008.3,2.435,7.094,4.359,12.125.5,1.31,1.273,3.393,1.716,4.63a25.8,25.8,0,0,0,1,2.525,6.138,6.138,0,0,0,2.477.813,8.662,8.662,0,0,0,1.252-1.018Zm10.355-17.916c2.11-.556,3.658-1.074,3.44-1.152s-4.028-.576-8.467-1.107-9.29-1.115-10.782-1.3a12.279,12.279,0,0,0-2.71-.18c0,.155,1.022.723,5.084,2.835l2.308,1.2,1.434-.7c1.791-.876,2.973-.731,4.212.517a3.206,3.206,0,0,0,1.248.878c.218.011,2.123-.434,4.233-.99ZM107,133.627c4.193-.964,6.128-1.535,5.292-1.562-.146-.005-4.968-.663-10.716-1.463s-10.666-1.454-10.93-1.455c-.757,0-.322.43,2.673,2.655,2.785,2.068,2.794,2.072,3.575,1.669a3.377,3.377,0,0,1,3.767.715c.423.441.933.731,1.164.661S104.378,134.229,107,133.627Zm39.291.862a6.413,6.413,0,0,0-1.521-1.277c-.837-.584-2.979-2.094-4.762-3.354l-3.24-2.292-.861.525c-1.589.969-4.308.507-5.269-.894-.1-.149-1.368.274-3.043,1.017-4.566,2.026-5.381,2.481-5.381,3.007,0,.431,1.1.611,11.443,1.862,6.294.761,11.622,1.424,11.84,1.472.715.158.794.151.794-.065Zm2.778-1.748,1.058-.367.706-2.738.706-2.738-.706-.661a9.363,9.363,0,0,1-1.1-1.243l-.4-.582-5.622.305c-5.158.28-5.635.347-5.782.811a1,1,0,0,0,.33.986c.734.717,9.181,6.584,9.487,6.59a7.224,7.224,0,0,0,1.323-.362Zm-35.86-2.783a2.3,2.3,0,0,0,.274-.765c0-.139-2.089-2.4-4.642-5.026l-4.642-4.773-1.112.5a5.507,5.507,0,0,1-4.929-.159l-1.171-.669-1.211,1.154c-1.719,1.639-3.993,3.723-4.869,4.462-.72.608-.736.671-.417,1.693l.331,1.061,5.576.756c3.067.416,7.9,1.083,10.736,1.484s5.3.742,5.481.758.445-.2.6-.481Zm12.351-2.62c3.723-1.713,3.93-1.848,3.93-2.564,0-.74-.069-.775-3.438-1.763-1.891-.555-3.558-1.007-3.7-1.006s-.46.567-.7,1.257-.705,1.99-1.038,2.889L120,127.786l.641.676a2.92,2.92,0,0,0,.813.68c.094,0,1.94-.809,4.1-1.8Zm-8.362.042,1.2-.129,1.084-2.891a13.135,13.135,0,0,0,.915-2.989c-.4-.231-13.742-4.13-14.136-4.13a.883.883,0,0,0-.678.463c-.2.38.6,1.337,4.419,5.311,4.184,4.35,4.731,4.829,5.328,4.671a16.037,16.037,0,0,1,1.867-.305Zm-34.05-2.4c.149-.242-2.706-4.289-8.82-12.5-1.246-1.673-3.433-4.68-4.86-6.681-2.455-3.442-2.887-3.911-3.17-3.44-.066.109.28,3.294.769,7.078s.9,7,.9,7.144.491.483,1.071.751a2.836,2.836,0,0,1,1.825,2.527c.145.869.244.934,3.192,2.082,8.854,3.448,8.838,3.443,9.088,3.039Zm7.922-2.621c3.708-3.425,4.686-4.38,4.686-4.574a4.793,4.793,0,0,0-.421-1.04A4.681,4.681,0,0,1,95,114.407l.09-1.492-2.514-1.159c-1.382-.638-2.96-1.389-3.506-1.669s-1-.422-1.012-.316-.054.373-.1.591-.16,3.262-.264,6.764l-.189,6.367.615.3a3.9,3.9,0,0,0,.824.314,13.474,13.474,0,0,0,2.117-1.745Zm-5.266-.049c.08-.677.222-4,.317-7.384l.172-6.152-.97-.405c-1.036-.433-1.081-.453-10.311-4.726-3.333-1.543-6.22-2.805-6.416-2.805-.547,0-.429.465.389,1.537.41.537,1.181,1.572,1.714,2.3s1.063,1.442,1.178,1.588c.236.3,3.85,5.269,4.424,6.085.2.291,2.17,2.987,4.367,5.992,3.192,4.365,4.095,5.437,4.493,5.333.368-.1.536-.452.643-1.362Zm60.535.587c2.906-.163,3.1-.209,3.238-.763a5.555,5.555,0,0,1,2.868-2.553c.327-.024,1-.053,1.49-.066.844-.022.989-.177,2.514-2.68.89-1.461,1.9-3.045,2.242-3.521s.556-.933.473-1.016c-.14-.14-2.152.835-6.124,2.966-2.9,1.557-6.041,3.2-10.319,5.418-2.328,1.2-4.352,2.307-4.5,2.451-.174.172.64.206,2.381.1,1.455-.089,4.036-.239,5.735-.335Zm-15.288-1.56,1.031-.91-.856-3.907c-.471-2.149-1.033-4.711-1.251-5.693l-.395-1.786h-2.524l-1.215,3.241c-.669,1.783-1.579,4.194-2.023,5.358a17.935,17.935,0,0,0-.808,2.44c0,.178.684.514,1.52.747s2.176.644,2.977.913c2.015.677,2.368.637,3.544-.4Zm17.49-5.552c.877-.492,6.418-3.4,9.194-4.823.717-.368.951-.959.492-1.242a15.25,15.25,0,0,0-2.051-.539c-1-.216-3.821-.872-6.272-1.458s-4.594-1.064-4.762-1.063a10.589,10.589,0,0,0-1.761,2.67c-.8,1.467-1.574,2.867-1.72,3.109-.407.679-3.712,6.418-4.354,7.561-1.16,2.065-.635,1.967,4.95-.92,2.874-1.486,5.7-2.969,6.284-3.3ZM136.7,117.7c.765-1.346,1.566-2.745,1.781-3.109a88.066,88.066,0,0,0,4.634-8.363c0-.2-.246-.368-.547-.368a27.822,27.822,0,0,1-3.241-.665c-1.482-.366-2.9-.711-3.148-.767-.309-.069-.666.261-1.121,1.037a9.052,9.052,0,0,1-3.189,2.945c-.655.374-.684.107.7,6.456l1.152,5.28h.794c.725,0,.915-.212,2.185-2.447Zm-13.338-3.647c1.114-2.988,2.025-5.552,2.025-5.7s-.351-.472-.781-.726a5.242,5.242,0,0,1-1.335-1.239l-.554-.778-1.245.493c-.685.271-2.257.973-3.494,1.56s-4.273,1.977-6.747,3.09-4.573,2.1-4.666,2.2a3.072,3.072,0,0,0,0,1.36l.168,1.182,7.144,2.148c3.929,1.181,7.215,2.078,7.3,1.993s1.069-2.6,2.183-5.588Zm-26.846-3.508a5.625,5.625,0,0,1,1.713-1.132l1.348-.624-.094-2.059c-.052-1.133-.168-3.662-.258-5.622l-.164-3.563-2.992-.561-2.992-.561-.358.684a5.938,5.938,0,0,1-3.189,2.726l-1.11.3-.169,2.377c-.093,1.307-.167,3.043-.165,3.857l0,1.481,3.766,1.744a21.553,21.553,0,0,0,4.031,1.6,2.647,2.647,0,0,0,.63-.648Zm16.883-2.572c8.929-4.034,8.422-3.773,8.394-4.324-.012-.239-.042-.829-.066-1.312l-.044-.878-5.622-.982c-3.092-.54-5.761-.978-5.93-.974-.271.007-1.162,1.551-4.127,7.151-.424.8-1.007,1.841-1.3,2.312l-.526.857.747.784c.411.431.77.79.8.8s3.481-1.537,7.673-3.431Zm-10.039.07c1.008-1.932,2.8-5.249,3.794-7.006a4.91,4.91,0,0,0,.81-1.9A50.33,50.33,0,0,0,100.886,98c-.3.3.418,10.611.758,10.827.675.429,1.213.185,1.715-.777Zm55.939-.5a1.479,1.479,0,0,0,.491-.728c0-.159-1.088-3.177-2.427-6.706l-2.434-6.416h-.859a4.611,4.611,0,0,1-1.224-.14c-.233-.09-.582.268-.967.992-.331.623-1.8,3.193-3.258,5.711a41.172,41.172,0,0,0-2.526,4.709,35.178,35.178,0,0,0,3.4.912c1.8.43,4.4,1.065,5.787,1.41C158.405,108.066,158.7,108.085,159.3,107.542Zm-72.755-3.966.081-3.346-1.087-.466a5.9,5.9,0,0,1-2.916-2.831c-.085-.327-.263-.6-.394-.6s-3.043.417-6.469.926-6.282.926-6.347.926-.117.219-.117.487c0,.489.353.678,6.615,3.541,3.751,1.715,6.378,2.941,8.194,3.824a13.018,13.018,0,0,0,2.043.86c.225.014.339-.942.4-3.326Zm61.036-4.766c1.8-3.14,3.29-5.9,3.307-6.131a.518.518,0,0,0-.417-.515,67.057,67.057,0,0,0-7.6,3.523c-7.029,3.552-7.153,3.629-6.973,4.316a8.408,8.408,0,0,1,.191,1.686l.007.986,3.71.906c2.041.5,3.889.913,4.107.922.246.01,1.639-2.149,3.673-5.693Zm-25.388.372a10.582,10.582,0,0,1,.92-1.6A4.546,4.546,0,0,0,123.8,96.3a66.865,66.865,0,0,0-4.244-6.265.594.594,0,0,0-.744-.132,8.158,8.158,0,0,1-2.222.208,5.664,5.664,0,0,0-1.786.136c0,.079-.9,1.793-2,3.808a41.513,41.513,0,0,0-1.918,3.741,6.114,6.114,0,0,0,1.14.242c1.436.223,6.894,1.2,8.2,1.465,1.621.331,1.716.315,1.964-.322Zm20.129-5.067c5.394-2.728,7.03-3.67,7.093-4.086.1-.664.611-.571-9.718-1.771a78.47,78.47,0,0,0-8.23-.727,37.156,37.156,0,0,0-.788,6.254c0,.829.118.975,1.218,1.507a7.944,7.944,0,0,1,2.027,1.479,3.108,3.108,0,0,0,1.1.889c.159,0,3.444-1.6,7.3-3.545Zm-32.391,1.759c.449-.836,1.431-2.622,2.183-3.969a23.92,23.92,0,0,0,1.359-2.646,4.161,4.161,0,0,0-.777-1.043l-.769-.845L106.18,89.29l-5.746,1.918.057,2.235a8.835,8.835,0,0,0,.268,2.449,51.607,51.607,0,0,0,7.561,1.474c.706.027.884-.138,1.609-1.491Zm-33.889-.355c3.2-.455,5.9-.9,6-1a4.238,4.238,0,0,0,.345-1.359l.169-1.191-3.2-2.249c-1.993-1.4-3.419-2.229-3.785-2.2-.323.029-1.207.132-1.964.231l-1.377.179L70.6,90.484c-.9,1.4-1.856,2.87-2.129,3.264-.61.88-.613.776.058,1.912.427.723.686.911,1.124.813.313-.07,3.189-.5,6.391-.955ZM98.8,93.561c-.16-1.5-.254-1.732-.628-1.578-.242.1-1.333.475-2.424.834-2.21.728-2.74,1.089-2.4,1.637.262.424,5.067,1.375,5.411,1.071a4.667,4.667,0,0,0,.043-1.964Zm29.047,1.19c.843,0,.916-.068,1.056-.992a58.216,58.216,0,0,0,.655-6.56c-.093-.093-6.5-.915-7.13-.915a6.239,6.239,0,0,0-1.442,2.8c.067.175,1.1,1.693,2.3,3.374l2.18,3.055.737-.381a4.248,4.248,0,0,1,1.642-.381Zm-31.885-3.73,2.729-.892-.148-1.856c-.081-1.021-.281-4.535-.443-7.81-.274-5.517-.356-6.36-.587-6.063-.047.061-1.229,2.73-2.625,5.931s-2.911,6.656-3.365,7.676L90.7,89.863l1,1.118c.552.615,1.123,1.076,1.268,1.025s1.493-.494,2.993-.984Zm-11.094-1.1a5.992,5.992,0,0,1,2.638-.728l1.681-.132,1.447-3.175c.8-1.746,1.723-3.83,2.062-4.63s1.227-2.859,1.974-4.575c1.308-3,1.431-3.627.717-3.627-.181,0-3.776,1.973-7.988,4.385s-8.323,4.739-9.135,5.172c-1.463.78-1.477.8-1.5,2.031l-.022,1.244,3.219,2.3a25.764,25.764,0,0,0,3.584,2.315,3.82,3.82,0,0,0,1.323-.583Zm21.066-2.291,5.292-1.8.164-1.164c.09-.64.249-1.525.352-1.966.184-.785.081-.888-4.645-4.63-6.087-4.82-5.717-4.567-6.4-4.384-1.248.333-1.229.17-.835,7.176.2,3.635.375,7.056.379,7.6s.1.985.206.977,2.58-.824,5.49-1.813Zm43.879-.408c.135-.353-.855-1.314-3.028-2.938-.379-.283-3.327-2.642-6.552-5.241-5.78-4.659-5.875-4.722-6.647-4.4a1.361,1.361,0,0,0-.932,1.155c-.347,1.945-1.089,9.576-.947,9.733.168.184,15.046,1.988,16.863,2.044.738.023,1.144-.091,1.243-.35ZM129.98,84.366a85.974,85.974,0,0,0,.873-9.574c-.087-.228-.261-.414-.386-.414a20.515,20.515,0,0,0-2.606,2.051c-4.026,3.47-5.454,4.684-5.877,5-.361.266-.363.43-.024,1.455a8.954,8.954,0,0,1,.383,1.42c0,.146.239.3.53.336s1.9.235,3.572.435,3.118.376,3.211.392.239-.478.325-1.1Zm-16.351-3.93c.324-.525,2.045-1.082,3.312-1.072a6.858,6.858,0,0,1,2.445.575l1.2.566,4.25-3.632c4.206-3.595,5.011-4.611,3.655-4.613-.935,0-19.008-.755-22.714-.948-2.79-.145-3.357-.11-3.481.213-.209.544-.086.674,2.581,2.725,1.31,1.008,2.441,1.9,2.514,1.978.153.169,3.364,2.706,4.75,3.753,1.071.809,1.234.859,1.485.454Z" transform="translate(-60.348 -66.1)" fill="aqua"/>
</svg>
