<svg xmlns="http://www.w3.org/2000/svg" width="77.002" height="77.103" viewBox="0 0 77.002 77.103">
  <g id="layer1" transform="translate(0.5 0.566)">
    <g id="g909">
      <path id="path935" d="M189.426,154.358c-1.334-1.171-1.415-1.187-5.867-1.187h-4.515l-1.5-1.789-1.5-1.789-7.791.107-7.791.107-.124,1.286c-.068.708-.221,1.286-.34,1.286-.672,0-17.133,1.618-18.041,1.773l-1.089.186v-6.125c0-5-.1-6.125-.557-6.125-1.251,0-10.436-1.268-11.856-1.637a6.079,6.079,0,0,1-2.5-1.445c-.886-.956-.962-1.327-.87-4.228a11.609,11.609,0,0,0-.853-5.618c-.925-2.364-.935-2.5-.319-4.424l.635-1.986-1.15-.476c-1.62-.671-3.113-2.583-3.113-3.986,0-1.542.71-2.858,3.781-7.005,4.289-5.793,4.995-7.427,5.321-12.312.344-5.146,1.2-7.307,4.077-10.255,7.048-7.229,16.052-10.425,24.556-8.718l2.243.45v3.41l1.88.121,1.88.121.115,2.6.115,2.6,1.921.811,1.921.811,1.82-1.82,1.82-1.82,2.575,2.552,2.575,2.552-1.79,1.817-1.79,1.817.854,2.055.854,2.055h5.04v7.125h-4.989l-.872,2.063-.872,2.063,1.872,1.9,1.872,1.9-2.657,2.657-2.657,2.657-1.91-1.882-1.91-1.882-1.856.821-1.856.821v5.109h-3.562v6.729l4.651-.007,4.651-.007,1.289-1.972,1.289-1.972h3.374c2.67,0,3.423-.127,3.607-.608.289-.752,2.186-1.767,3.3-1.767a4.554,4.554,0,0,1,4.149,5.176,4.461,4.461,0,0,1-4.166,3.136A3.9,3.9,0,0,1,179.926,131a4.011,4.011,0,0,0-3.352-1.187c-1.889,0-2.08.1-3.459,1.781l-1.46,1.781H160.668v4.354H180.1l.885-1.028a3.724,3.724,0,0,1,2.7-1.233,3.027,3.027,0,0,1,3.154,1,3.1,3.1,0,0,1,1.343,3.046,3.072,3.072,0,0,1-1.293,3c-1.827,1.632-4.091,1.619-5.634-.032l-1.109-1.187H160.668v4.75h17.284l1.272,1.583,1.272,1.583h3.783c3.458,0,3.885-.085,4.96-.99,2.693-2.266,7.053-.435,7.053,2.962a4.778,4.778,0,0,1-4.519,4.36,4.682,4.682,0,0,1-2.348-1.187Zm-29.153-36.579v-5.309l-1.6-.271c-3.644-.616-6.71-4.442-6.71-8.374a8.642,8.642,0,0,1,7.224-8.634l1.089-.222V84.3H156.71v5.356l-2.03.721-2.03.721-1.843-1.815-1.843-1.815L146.7,89.752a13.622,13.622,0,0,0-2.263,2.656,7.924,7.924,0,0,0,1.617,2.017l1.617,1.648-.721,2.029-.72,2.029h-5.356v7.089l2.614.117,2.614.117.746,1.969.746,1.969L146.019,113a7.358,7.358,0,0,0-1.579,2,13.713,13.713,0,0,0,2.374,2.742l2.374,2.349,1.881-1.817,1.881-1.817,2.078.933,2.078.932v4.765h3.167Zm3.681-6.414c3.345-1.69,4.78-4.244,4.561-8.116a6.749,6.749,0,0,0-1.327-4.353,8.352,8.352,0,0,0-5.241-3.359l-1.278-.256v16.723h1.009a6.224,6.224,0,0,0,2.276-.64Z" transform="translate(-120.294 -79.548)" fill="none" stroke="aqua" stroke-width="1"/>
      <path id="path933" d="M190.553,155.169a5.254,5.254,0,0,1-1.546-1.162c-.686-.763-1.17-.838-5.359-.838h-4.6l-1.5-1.789-1.5-1.789-7.791.107-7.791.107-.124,1.286c-.1,1.011-.31,1.292-.99,1.314-.476.015-4.784.422-9.574.9l-8.708.875-.109-6.048c-.087-4.832-.219-6.048-.656-6.048-1.207,0-10.412-1.264-11.773-1.617a5.622,5.622,0,0,1-2.521-1.644c-.986-1.172-1.049-1.459-.842-3.852a9.319,9.319,0,0,0-.808-5.261c-1-2.6-1.014-2.74-.433-4.825l.6-2.15-1.136-.471c-1.608-.666-3.1-2.581-3.1-3.98,0-1.542.71-2.858,3.781-7.005,4.289-5.793,4.995-7.427,5.321-12.312.344-5.146,1.2-7.307,4.077-10.255,7-7.179,16.11-10.414,24.556-8.718l2.243.45v3.41l1.88.121,1.88.121.115,2.6.115,2.6,1.921.811,1.921.811,1.82-1.82,1.82-1.82,2.575,2.552,2.575,2.552-1.776,1.8-1.776,1.8.746,1.97.746,1.97,2.614.117,2.614.117v7.089h-2.585c-2.117,0-2.624.126-2.8.693-.118.381-.479,1.3-.8,2.041l-.588,1.348,1.894,1.923,1.894,1.923-2.657,2.657-2.657,2.657-1.91-1.882-1.91-1.882-1.856.821-1.856.821v5.109h-3.562v6.729l4.651-.007,4.651-.007,1.289-1.972,1.289-1.972h3.342c2.331,0,3.438-.157,3.658-.519a4.846,4.846,0,0,1,3.2-1.856,4.564,4.564,0,0,1,3.877,2.575A4.085,4.085,0,0,1,180,131c-1.024-1.024-1.48-1.187-3.308-1.187-2.033,0-2.18.073-3.58,1.781l-1.46,1.781H160.668v4.354h9.908c8.548,0,9.94-.083,10.141-.608.325-.846,2.238-1.767,3.674-1.767a3.986,3.986,0,0,1,2.494,1.155,4.13,4.13,0,0,1,0,6,3.792,3.792,0,0,1-5.573-.032l-1.187-1.187H160.668v4.75h17.249l1.489,1.781,1.489,1.781h3.512c3.375,0,3.559-.047,4.7-1.187a4.127,4.127,0,0,1,7.013,2.173,4.188,4.188,0,0,1-5.567,4.577Zm-30.28-37.154v-5.467l-1.913-.49c-8.593-2.2-8.424-14.393.23-16.665l1.682-.442V84.295H156.71v2.771c0,2.171-.126,2.771-.58,2.771a6.942,6.942,0,0,0-1.986.671l-1.406.671-1.886-1.857-1.886-1.857L146.7,89.75a13.622,13.622,0,0,0-2.263,2.656,8.259,8.259,0,0,0,1.66,2.06l1.66,1.691-.67,1.405a6.937,6.937,0,0,0-.67,1.985c0,.455-.6.58-2.771.58h-2.771v7.089l2.614.117,2.614.117.746,1.969.746,1.969L146.018,113a7.359,7.359,0,0,0-1.579,2,13.705,13.705,0,0,0,2.373,2.741l2.373,2.348,1.7-1.668a7.632,7.632,0,0,1,2.129-1.668,11.2,11.2,0,0,1,2.261.81l1.831.81v5.109h3.167Zm3.681-6.652a8.171,8.171,0,0,0,4.716-7.526,8.362,8.362,0,0,0-6.517-8.285l-1.484-.261V112h1.009a6.223,6.223,0,0,0,2.276-.64Z" transform="translate(-120.294 -79.545)" fill="none" stroke="aqua" stroke-width="1"/>
      <path id="path931" d="M190.553,155.149a5.254,5.254,0,0,1-1.546-1.162c-.687-.763-1.169-.838-5.4-.838h-4.642l-1.333-1.775L176.3,149.6l-7.916.092-7.916.092-.124,1.286c-.1,1.012-.309,1.292-.99,1.312-.476.013-4.829.42-9.673.9l-8.807.878v-12.04l-2.276-.259c-6.188-.7-10.675-1.49-11.473-2.006-1.686-1.092-2.122-2.249-2.021-5.366a11.985,11.985,0,0,0-.818-5.347c-.868-2.314-.884-2.53-.317-4.464l.6-2.033-1.279-.534a4.8,4.8,0,0,1-3-3.87c0-1.538.753-2.911,3.833-6.992,4.112-5.447,4.937-7.389,5.275-12.415.229-3.409.492-4.663,1.338-6.394,2.082-4.256,9.432-9.919,15.282-11.774a27.161,27.161,0,0,1,11.633-.755l2.617.494v3.429l1.88.121,1.88.121.2,2.72.2,2.72,1.781.683,1.781.683,1.882-1.806,1.882-1.806,2.57,2.547,2.57,2.547-1.8,1.827-1.8,1.827.763,1.946.763,1.946,2.621.117,2.621.117V107.2l-2.614.117-2.614.117-.746,1.97-.746,1.97,1.867,1.9,1.867,1.9-2.657,2.657-2.657,2.657-1.91-1.882-1.91-1.882-1.856.821-1.856.821v5.109h-3.562v6.729l4.651-.007,4.651-.007,1.289-1.972,1.289-1.972h3.292c2.995,0,3.376-.089,4.216-.983,1.793-1.908,5.155-1.555,6.218.653.844,1.753.9,2.358.357,3.665a3.984,3.984,0,0,1-6.63,1.415c-1.045-1.045-1.457-1.186-3.433-1.175-2.191.012-2.278.055-3.578,1.781l-1.333,1.769H160.668v4.354h9.882c9.234,0,9.907-.048,10.276-.737a3.733,3.733,0,0,1,1.63-1.249,4.239,4.239,0,0,1,5.767,4.361,4.5,4.5,0,0,1-3.832,3.562c-1.436,0-3.349-.92-3.674-1.767-.2-.525-1.594-.608-10.141-.608h-9.908v4.75h17.249l1.489,1.781,1.489,1.781h3.512c3.375,0,3.559-.047,4.7-1.187,3.236-3.236,8.713.648,6.62,4.7a4.123,4.123,0,0,1-5.174,2.056ZM160.272,118v-5.467l-1.913-.49a8.565,8.565,0,0,1-3.6-14.611,8.057,8.057,0,0,1,2.929-1.727c.879-.237,1.82-.495,2.092-.572.365-.1.495-1.55.495-5.5V84.275H156.71v2.771c0,2.171-.126,2.771-.58,2.771a6.942,6.942,0,0,0-1.986.671l-1.406.671L150.852,89.3l-1.885-1.857-2.459,2.481-2.459,2.481,1.858,1.858,1.858,1.858-.674,1.413a6.978,6.978,0,0,0-.674,1.993c0,.455-.6.58-2.771.58h-2.771V107.2l2.614.117,2.614.117.746,1.97.746,1.97-1.776,1.8-1.776,1.8,2.569,2.546,2.569,2.546,1.7-1.668a7.636,7.636,0,0,1,2.129-1.668,11.2,11.2,0,0,1,2.261.81l1.831.81v5.109h3.167Zm4.156-6.9a8.437,8.437,0,0,0-2.319-15.605l-1.441-.234V112.3l1.286-.291A12.364,12.364,0,0,0,164.429,111.094Z" transform="translate(-120.294 -79.525)" fill="none" stroke="aqua" stroke-width="1"/>
      <path id="path929" d="M190.552,155.156a5.254,5.254,0,0,1-1.546-1.162c-.686-.763-1.17-.838-5.369-.838h-4.615l-1.335-1.781-1.335-1.781H160.272v1.385c0,1.068-.162,1.385-.71,1.385-.39,0-4.168.356-8.394.792s-8.271.792-8.988.792h-1.3v-11.8l-2.078-.256c-7.142-.88-10.9-1.533-11.671-2.031-1.761-1.132-2.213-2.338-1.927-5.136a7,7,0,0,0-.5-4.3c-1.354-3.06-1.4-4.235-.257-7.034.208-.511-.052-.809-1.08-1.238a4.787,4.787,0,0,1-3.068-3.98c0-1.425.584-2.455,3.953-7,4-5.4,4.819-7.351,5.153-12.328.372-5.534,1.333-7.588,5.243-11.208,6.868-6.359,14.833-9.06,22.769-7.721l2.858.482v3.447l1.88.121,1.88.121.117,2.689c.11,2.519.185,2.713,1.187,3.068a13.238,13.238,0,0,1,1.813.809c.628.364,1.041.137,2.674-1.471l1.931-1.9,2.57,2.547,2.57,2.547-1.841,1.869-1.841,1.869.823,1.9.823,1.9,2.6.117,2.6.117V107.2l-2.614.117-2.614.117-.746,1.97-.746,1.97,1.776,1.8,1.776,1.8-2.483,2.461a15.667,15.667,0,0,1-2.854,2.461,7.547,7.547,0,0,1-1.969-1.569l-1.6-1.569-1.863.67-1.863.67-.115,2.582-.115,2.582-1.682.122-1.682.122V130.2l4.651-.007,4.651-.007,1.289-1.972,1.289-1.972h3.292c2.969,0,3.381-.094,4.191-.956a4.029,4.029,0,1,1-.029,5.706c-1.045-1.045-1.457-1.186-3.433-1.175-2.191.012-2.278.055-3.578,1.781l-1.333,1.769H160.668v4.354h9.882c9.234,0,9.907-.048,10.276-.737a3.733,3.733,0,0,1,1.63-1.249,4.239,4.239,0,0,1,5.767,4.361,4.5,4.5,0,0,1-3.832,3.562c-1.436,0-3.349-.92-3.674-1.767-.2-.525-1.594-.608-10.141-.608h-9.908v4.75h17.269l1.335,1.781,1.335,1.781h3.726c3.629,0,3.755-.031,4.835-1.187a3.055,3.055,0,0,1,2.7-1.187,4.45,4.45,0,0,1,4.219,3.136c.679,3.094-2.65,5.982-5.535,4.8Zm-30.28-37.147V112.55l-1.682-.464c-3.868-1.066-6.124-3.62-6.511-7.373a8.5,8.5,0,0,1,6.089-9.149l1.907-.484.11-5.4.11-5.4h-3.549l-.117,2.621-.117,2.621-1.972.773-1.972.773-1.743-1.845-1.743-1.845-2.518,2.5-2.518,2.5,1.841,1.869,1.841,1.869-.823,1.9-.823,1.9-2.6.117-2.6.117V107.2l2.614.117,2.614.117.746,1.97.746,1.97-1.776,1.8-1.776,1.8,2.569,2.546,2.569,2.546,1.7-1.668a7.636,7.636,0,0,1,2.129-1.668,11.2,11.2,0,0,1,2.261.81l1.831.81v5.109h3.167Zm3.872-6.714a8.891,8.891,0,0,0,4.6-8.753c-.545-3.409-3.474-6.534-6.6-7.041l-1.478-.24V112.4l1.089-.255a15.554,15.554,0,0,0,2.388-.85Z" transform="translate(-120.294 -79.532)" fill="none" stroke="aqua" stroke-width="1"/>
      <path id="path927" d="M190.55,155.1A5.254,5.254,0,0,1,189,153.935c-.686-.763-1.169-.838-5.369-.838H179.02l-1.335-1.781-1.335-1.781H160.269v1.385c0,1.055-.165,1.386-.693,1.387-.381,0-4.255.356-8.609.79s-8.406.789-9,.79l-1.089,0V147.95a48.663,48.663,0,0,0-.183-5.937c-1.392,0-12.737-1.691-13.274-1.978-2.062-1.1-2.855-3.738-2.023-6.726a4.246,4.246,0,0,0-.575-2.771c-1.414-2.971-1.5-4.515-.383-7.207.212-.513-.044-.808-1.075-1.238a6.523,6.523,0,0,1-2.212-1.656c-1.626-2.067-1.075-3.752,3.04-9.283,4.186-5.628,4.894-7.3,5.236-12.332.335-4.934,1.082-6.944,3.6-9.672a32.719,32.719,0,0,1,13.2-8.557c2.287-.759,3.566-.914,7.323-.889a25.376,25.376,0,0,1,5.64.485c.932.39,1.089.685,1.089,2.048v1.593h3.562v5.48l1.484.478a8.549,8.549,0,0,1,2,.887c.384.305,1.013-.082,2.476-1.523l1.961-1.932,2.57,2.547,2.57,2.547-1.841,1.869L173.21,96.05l.823,1.9.823,1.9,2.6.117,2.6.117v7.052l-2.614.117-2.614.117-.746,1.969-.746,1.969,1.579,1.609a7.359,7.359,0,0,1,1.579,2c0,.451-4.423,4.92-4.869,4.92a9.589,9.589,0,0,1-2-1.571l-1.7-1.571-1.948.738-1.948.738-.117,2.614-.117,2.614h-3.13v6.729l4.651-.007,4.651-.007,1.289-1.972,1.289-1.972h3.292c2.982,0,3.378-.092,4.2-.969a3.989,3.989,0,1,1-.042,5.719c-1.044-1.044-1.462-1.187-3.465-1.187-2.246,0-2.3.025-3.557,1.781L171.7,133.3H160.665v4.354h9.908c8.548,0,9.94-.083,10.141-.608.3-.775,2.2-1.767,3.383-1.765,2.657,0,4.857,3.179,3.864,5.577a4.313,4.313,0,0,1-3.62,2.734c-1.395,0-3.306-.931-3.627-1.767-.2-.525-1.594-.608-10.141-.608h-9.908v4.75h17.269l1.335,1.781,1.335,1.781h3.726c3.629,0,3.755-.031,4.835-1.187a3.055,3.055,0,0,1,2.7-1.187,4.45,4.45,0,0,1,4.219,3.136c.679,3.094-2.65,5.982-5.535,4.8Zm-30.28-37.182v-5.494l-1.7-.429a8.464,8.464,0,0,1-3.8-14.5c1.717-1.551,3.031-2.185,4.534-2.185h.964V84.223h-3.526l-.117,2.614-.117,2.614-1.979.763-1.979.763-1.706-1.858-1.706-1.858-2.548,2.526-2.548,2.526,1.841,1.869,1.841,1.869-.823,1.9-.823,1.9-2.6.117-2.6.117v7.089h2.585c2.117,0,2.624.126,2.8.693.118.381.479,1.3.8,2.041l.588,1.348-1.8,1.831-1.8,1.831,2.569,2.546,2.569,2.546,1.752-1.719,1.752-1.719,2.011.723,2.011.723v2.429a8.438,8.438,0,0,0,.264,2.693,4.138,4.138,0,0,0,1.781.264h1.517Zm3.872-6.679c3.227-1.479,5.4-6.042,4.486-9.4a8.524,8.524,0,0,0-6.522-6.4l-1.441-.234v17.139l1.089-.255A15.553,15.553,0,0,0,164.142,111.236Z" transform="translate(-120.291 -79.473)" fill="none" stroke="aqua" stroke-width="1"/>
      <path id="path925" d="M190.541,154.974a5.583,5.583,0,0,1-1.731-1.172c-.448-.54-1.35-.654-5.171-.654h-4.628l-1.335-1.781-1.335-1.781H160.261v2.627l-8.807.868c-4.844.478-9.208.866-9.7.863-.884,0-.891-.047-.891-6.041v-6.036l-1.682-.1c-.925-.053-3.908-.4-6.629-.762-4.641-.625-5.027-.745-6.234-1.943a3.358,3.358,0,0,1-1.286-2.874,9.085,9.085,0,0,1,.394-2.632c.311-.819.216-1.383-.457-2.7-1.3-2.536-1.528-4.08-.912-6.127.574-1.906.482-2.462-.4-2.462a5.531,5.531,0,0,1-2.008-1.383c-1.35-1.273-1.448-1.514-1.244-3.042a9.3,9.3,0,0,1,1.828-3.862c3.588-4.923,6-8.7,6.561-10.307a16.234,16.234,0,0,0,.6-4.373,14.092,14.092,0,0,1,3.8-10.254,34.358,34.358,0,0,1,12.037-7.978,24.408,24.408,0,0,1,12.666-1.066l2.177.519.121,1.873.121,1.873h3.519v4.989l2.063.872,2.063.872,1.9-1.868,1.9-1.868,2.57,2.547,2.57,2.547-1.841,1.869L173.2,96.1l.823,1.9.823,1.9,2.6.117,2.6.117V107.2l-2.614.117-2.614.117-.738,1.948-.738,1.948,1.571,1.7a9.113,9.113,0,0,1,1.571,2.022,15.844,15.844,0,0,1-2.362,2.655l-2.362,2.337-1.942-1.638-1.942-1.637-1.931.731-1.931.731-.117,2.614-.117,2.614h-3.13v6.729h9.417l1.27-1.979,1.27-1.979h3.2c2.948,0,3.292-.086,4.329-1.08a3.99,3.99,0,1,1-.155,5.829c-1.044-1.044-1.462-1.187-3.465-1.187-2.246,0-2.3.025-3.557,1.781l-1.279,1.781H160.656v4.354h9.908c8.548,0,9.94-.083,10.141-.608.289-.752,2.186-1.767,3.3-1.767a4.254,4.254,0,0,1,3.949,5.371,3.822,3.822,0,0,1-6.461,1.753l-1.352-1.187H160.656v4.75h17.269l1.335,1.781,1.335,1.781h3.717c3.6,0,3.754-.037,4.9-1.187a3.822,3.822,0,0,1,5.4-.206,4.01,4.01,0,0,1-.881,6.751c-1.652.69-1.68.691-3.194.031Zm-30.28-37.036v-5.524l-1.374-.258c-5.05-.947-8.286-6.867-6.324-11.566,1.128-2.7,4.365-5.232,6.692-5.232h1.005V84.275h-3.526l-.117,2.614L156.5,89.5l-1.979.764-1.979.764-1.682-1.883-1.682-1.883-2.572,2.549-2.572,2.549,1.8,1.827,1.8,1.827-.763,1.946-.763,1.946-2.621.117-2.621.117v7.089h2.585c2.117,0,2.624.126,2.8.693.118.381.479,1.3.8,2.041l.588,1.348-1.8,1.831-1.8,1.831,2.569,2.546,2.569,2.546,1.734-1.7,1.734-1.7,2.029.72,2.029.721v2.414a8.357,8.357,0,0,0,.264,2.678,4.137,4.137,0,0,0,1.781.264h1.517Zm3.562-6.433a9.741,9.741,0,0,0,2.491-1.82,8.442,8.442,0,0,0-2.583-13.714,7.887,7.887,0,0,0-2.271-.613c-.784,0-.8.219-.8,8.518v8.518l1.089-.263c.6-.145,1.534-.426,2.078-.625Z" transform="translate(-120.283 -79.525)" fill="none" stroke="aqua" stroke-width="1"/>
      <path id="path923" d="M190.534,154.99a5.593,5.593,0,0,1-1.731-1.173c-.446-.538-1.339-.654-5.013-.654h-4.47l-1.568-1.781-1.568-1.781H160.254v2.638l-9,.861c-4.953.473-9.317.859-9.7.858-.629,0-.693-.556-.693-6.061v-6.058l-1.682-.077c-.925-.042-3.909-.375-6.63-.74-4.643-.623-5.027-.742-6.234-1.94a3.358,3.358,0,0,1-1.286-2.874,9.011,9.011,0,0,1,.381-2.6c.3-.788.163-1.475-.64-3.229a7,7,0,0,1-.828-4.27,13.566,13.566,0,0,1,.467-2.69c.206-.486-.149-.883-1.418-1.583-3.753-2.071-3.583-4.059.863-10.1,4.545-6.176,5.229-7.721,5.567-12.569.414-5.954,1.42-8.139,5.37-11.675,6.9-6.172,16.071-9.139,23.091-7.466l2.177.519.121,1.873.121,1.873h3.519v4.989l2.063.872,2.063.872,1.9-1.868,1.9-1.868,2.374,2.349a13.714,13.714,0,0,1,2.374,2.742,7.959,7.959,0,0,1-1.66,2.084l-1.66,1.691.67,1.405a6.937,6.937,0,0,1,.67,1.985c0,.455.6.58,2.771.58h2.771v7.125h-2.771c-2.171,0-2.771.126-2.771.58a6.809,6.809,0,0,1-.659,1.963l-.659,1.382,1.649,1.789a9.871,9.871,0,0,1,1.649,2.107,15.681,15.681,0,0,1-2.348,2.641l-2.348,2.323-1.971-1.65-1.971-1.65-1.915.751-1.915.751-.117,2.621-.117,2.621h-3.13v6.729h9.417l1.27-1.979,1.27-1.979h3.2c2.921,0,3.3-.092,4.292-1.044a3.96,3.96,0,0,1,6.673,3.059A3.893,3.893,0,0,1,180.045,131c-.991-1.061-1.359-1.187-3.456-1.187-2.328,0-2.357.015-3.626,1.781l-1.279,1.781H160.649v4.354H180.3l.924-.983c2.864-3.048,8.046-.02,6.739,3.938a3.785,3.785,0,0,1-3.473,2.862c-1.328.178-1.752.031-2.953-1.023l-1.4-1.231H160.649v4.75l8.609.015,8.609.015,1.384,1.766,1.384,1.766h3.874c3.119,0,3.919-.118,4.107-.608.318-.827,2.227-1.767,3.592-1.767A4.217,4.217,0,0,1,196,152.065c-.225,1.176-1.9,3.077-2.712,3.077a3.793,3.793,0,0,0-1.035.183,3.239,3.239,0,0,1-1.715-.335Zm-30.28-37.038v-5.524l-1.374-.258a8.661,8.661,0,0,1-5.891-4.56,8.055,8.055,0,0,1-.628-6.411c.774-2.786,4.369-5.828,6.887-5.828h1.005V84.289h-3.526L156.61,86.9l-.117,2.614-1.979.754-1.979.754-1.654-1.883-1.654-1.883-2.6,2.56-2.6,2.56,1.776,1.8,1.776,1.8-.746,1.97-.746,1.97-2.614.117-2.614.117v7.089h4.989l.872,2.063.872,2.063-1.782,1.809-1.782,1.809,2.569,2.546,2.569,2.546,1.734-1.7,1.734-1.7,2.029.72,2.029.72v2.414a8.357,8.357,0,0,0,.264,2.678,4.138,4.138,0,0,0,1.781.264h1.517Zm3.988-6.571a10.857,10.857,0,0,0,4.355-5.4,9.257,9.257,0,0,0-1.534-7.426c-1.219-1.533-4.074-3.185-5.507-3.185h-.906v17.083l1.286-.277a11.391,11.391,0,0,0,2.306-.8Z" transform="translate(-120.275 -79.539)" fill="none" stroke="aqua" stroke-width="1"/>
      <path id="path921" d="M190.411,154.921a3.267,3.267,0,0,1-1.527-1.173c-.193-.5-1.064-.61-4.922-.61h-4.688l-1.489-1.781-1.489-1.781H160.236v2.6l-9.2.886c-5.062.487-9.425.881-9.7.875-.374-.009-.495-1.5-.495-6.088v-6.077l-3.661-.271c-2.014-.149-5.086-.523-6.828-.832-2.662-.471-3.34-.754-4.255-1.773-1.166-1.3-1.375-2.777-.718-5.069.3-1.057.187-1.691-.64-3.5a6.973,6.973,0,0,1-.818-4.247,13.567,13.567,0,0,1,.467-2.69c.206-.487-.152-.884-1.43-1.59-3.35-1.848-3.441-4.331-.311-8.466a56.07,56.07,0,0,0,5.816-8.81,24.5,24.5,0,0,0,.928-5.513c.467-6.264,2.2-9.312,7.64-13.426,6.491-4.911,14.14-6.946,20.831-5.542l2.177.457.121,1.88.121,1.88H163.8v4.989l2.063.872,2.063.872,1.9-1.867,1.9-1.867,2.009,1.964c3.073,3,3.1,3.148,1.12,5.17l-1.7,1.73.67,1.405a6.936,6.936,0,0,1,.67,1.985c0,.455.6.58,2.771.58h2.771v7.125h-2.771c-2.17,0-2.771.126-2.771.58a6.738,6.738,0,0,1-.653,1.95l-.653,1.37,1.643,1.866a12.345,12.345,0,0,1,1.643,2.12,18.587,18.587,0,0,1-2.341,2.57l-2.341,2.316-2-1.69-2-1.69-1.889.816-1.889.816-.117,2.6-.117,2.6h-3.13v6.729h9.417l1.27-1.979,1.27-1.979h3.275c2.564,0,3.393-.142,3.818-.655a4.95,4.95,0,0,1,4.011-1.439,4.313,4.313,0,0,1,3.063,4.134,3.882,3.882,0,0,1-3.552,3.9c-1.467,0-3.383-.912-3.711-1.767-.176-.459-.851-.608-2.745-.608h-2.512l-1.335,1.781-1.335,1.781H160.631V137.7h19.653l.924-.984a3.942,3.942,0,0,1,4.7-.829,4.11,4.11,0,0,1,.068,7.152,3.5,3.5,0,0,1-4.5-.59l-1.352-1.187H160.631v4.75h16.981l1.489,1.781,1.489,1.781h3.887c3.131,0,3.932-.118,4.12-.608.317-.827,2.227-1.767,3.592-1.767a4.217,4.217,0,0,1,3.788,4.839c-.225,1.176-1.9,3.077-2.712,3.077a3.794,3.794,0,0,0-1.035.183,3.562,3.562,0,0,1-1.82-.379Zm-30.175-36.994V112.4l-1.374-.258a8.661,8.661,0,0,1-5.891-4.56,8.11,8.11,0,0,1,1.049-9.343c1.331-1.516,3.833-2.872,5.325-2.887.881-.009.891-.07.891-5.55V84.265h-3.526l-.117,2.614-.117,2.614-1.964.744-1.964.744-1.666-1.874-1.666-1.874-2.6,2.56-2.6,2.56,1.776,1.8,1.776,1.8-.746,1.97-.746,1.97-2.614.117-2.614.117v7.089h4.989l.872,2.063.872,2.063-1.782,1.809-1.782,1.809,2.483,2.461a15.668,15.668,0,0,0,2.854,2.461,7.547,7.547,0,0,0,1.969-1.569l1.6-1.569,1.879.676,1.879.676v5.35h3.562Zm3.966-6.56a8.574,8.574,0,0,0,2.685-13.021c-1.338-1.623-3.747-3-5.25-3h-1.005v17.083l1.286-.277a11.3,11.3,0,0,0,2.284-.786Z" transform="translate(-120.257 -79.515)" fill="none" stroke="aqua" stroke-width="1"/>
      <path id="path919" d="M189.135,153.914c-1.109-1.187-1.112-1.187-5.682-1.187h-4.572l-1.272-1.583-1.272-1.583h-16.1v2.623l-7.422.688c-4.082.379-8.446.793-9.7.922l-2.276.234V141.643l-1.88,0a67.4,67.4,0,0,1-6.828-.767c-4.583-.706-5.028-.852-6.036-1.981-1.166-1.3-1.375-2.785-.718-5.076.3-1.057.187-1.691-.64-3.5a6.973,6.973,0,0,1-.818-4.247,13.565,13.565,0,0,1,.467-2.69c.206-.487-.152-.884-1.43-1.59-2.018-1.113-2.876-2.636-2.528-4.49a22.092,22.092,0,0,1,3.148-5.211c4.917-6.6,5.493-7.871,5.821-12.845.323-4.888,1.268-7.476,3.727-10.2a33.978,33.978,0,0,1,13.64-8.518,26.627,26.627,0,0,1,10.9-.548l2.375.508.122,1.682.122,1.682h-3.608v5.384l-2.026.856-2.026.856-1.705-1.866-1.705-1.866-2.6,2.56-2.6,2.56,1.79,1.817,1.79,1.817-.854,2.055-.854,2.055h-5.04v7.125h4.989l.872,2.063.872,2.063-1.781,1.808-1.781,1.808,2.678,2.657,2.678,2.657,1.774-1.768,1.774-1.768,1.88.679,1.88.679v5.35h3.562V112.383l-1.682-.442a8.417,8.417,0,0,1-4.54-13.65,8.705,8.705,0,0,1,5.332-2.951c.881-.009.891-.07.891-5.55V84.248H163.8v2.585c0,2.117.126,2.624.693,2.8.381.118,1.3.479,2.041.8l1.348.588L169.8,89.14l1.912-1.883,1.229,1.168a31.9,31.9,0,0,1,2.435,2.68l1.206,1.512-1.672,1.7-1.672,1.7.72,2.029.721,2.029h5.356v7.125h-2.771c-2.171,0-2.771.126-2.771.58a6.691,6.691,0,0,1-.649,1.941l-.649,1.361,1.716,2.035,1.716,2.035-2.419,2.419L171.785,120l-1.87-1.646a11.271,11.271,0,0,0-2.159-1.646,13.647,13.647,0,0,0-2.121.81l-1.832.81v5.109h-3.562v6.729h9.813l1.27-1.979,1.27-1.979h3.167c2.8,0,3.3-.114,4.343-.99a3.97,3.97,0,0,1,5.632.228c2.015,2.394.932,5.987-1.968,6.531-1.608.3-3.587-.4-4.161-1.47-.321-.6-.861-.737-2.88-.737-2.484,0-2.486,0-3.82,1.781l-1.335,1.781H160.241v4.354H180.29l.91-.969a3.777,3.777,0,0,1,4.5-.868c1.648.689,2.25,1.656,2.25,3.618,0,1.851-.534,2.815-1.971,3.558a3.5,3.5,0,0,1-4.5-.59l-1.352-1.187H160.241V146h17.377l1.489,1.781,1.489,1.781h3.852c3.29,0,3.927-.106,4.369-.729a3.882,3.882,0,0,1,7.048,2.426,3.489,3.489,0,0,1-3.853,3.845,3.116,3.116,0,0,1-2.876-1.187Zm-24.942-42.548a8.721,8.721,0,0,0,4.371-9.858c-.91-3.251-4.282-6.175-7.12-6.175h-1.2v17.108l1.471-.276A10.963,10.963,0,0,0,164.193,111.366Z" transform="translate(-120.262 -79.498)" fill="none" stroke="aqua" stroke-width="1"/>
      <path id="path917" d="M189.133,153.886c-1.109-1.187-1.112-1.187-5.682-1.187h-4.572l-1.272-1.583-1.272-1.583h-16.1v2.594l-7.422.7c-4.082.385-8.446.806-9.7.935l-2.276.236V141.615h-1.484c-.816,0-3.678-.293-6.36-.651-3.517-.471-5.223-.887-6.122-1.493-1.6-1.075-2.126-2.843-1.576-5.247.367-1.6.3-2.07-.571-4.039a9.7,9.7,0,0,1-.332-6.976c.2-.643-.051-.914-1.32-1.441a4.086,4.086,0,0,1-2.649-4.446,22.3,22.3,0,0,1,3.027-5c1.534-2.068,3.434-4.9,4.222-6.3,1.308-2.318,1.46-2.916,1.745-6.864.479-6.626,2.122-9.512,7.8-13.7a32.886,32.886,0,0,1,9.78-5.05c2.831-.849,9.533-.966,11.755-.2,1.377.472,1.484.621,1.484,2.061v1.553h-3.562V89.21l-1.987.839-1.987.839-1.755-1.849-1.754-1.849L146.6,89.75l-2.591,2.56,1.782,1.809,1.782,1.809-.872,2.063-.872,2.063h-4.989v7.521h2.583c2.46,0,2.6.052,2.969,1.089a13.427,13.427,0,0,0,.817,1.831c.363.627.147,1.03-1.384,2.585l-1.814,1.842,2.678,2.657,2.678,2.657,1.792-1.792,1.792-1.792,1.862.824,1.862.823v5.109h3.562V112.381l-2.086-.606a8.387,8.387,0,0,1-4.136-13.51,8.705,8.705,0,0,1,5.332-2.951l.891-.009v17.124l1.415-.23a9.038,9.038,0,0,0,7.187-7.521,8.553,8.553,0,0,0-7.019-9.351l-1.385-.232-.11-5.436-.11-5.436h3.549l.117,2.614L164,89.449l1.97.746,1.97.746,1.877-1.849c1.875-1.847,1.879-1.848,2.725-1.084a35.7,35.7,0,0,1,2.445,2.67l1.6,1.905-1.675,1.707L173.233,96l.72,2.029.72,2.029h5.356v7.125h-5.356l-.705,1.985-.705,1.985,1.679,1.991,1.679,1.991-2.429,2.429-2.429,2.429-1.8-1.655a9.271,9.271,0,0,0-2.15-1.655,12.239,12.239,0,0,0-2.186.81l-1.832.81v5.109h-3.562v6.729h9.823l1.125-1.78,1.125-1.78h3.114c2.9,0,3.209-.084,4.467-1.188,2.841-2.495,6.866-.878,6.866,2.758a3.931,3.931,0,0,1-6.907,2.569c-.768-.828-1.261-.973-3.306-.973-2.4,0-2.408.006-3.683,1.781l-1.279,1.781H160.238v4.354h20.049l.9-.956a3.9,3.9,0,0,1,6.76,2.749,3.417,3.417,0,0,1-2.039,3.581,3.942,3.942,0,0,1-4.7-.829l-.924-.983H160.2l.118,2.474.118,2.474,8.794.107,8.794.107,1.266,1.576,1.266,1.576H184.3c3.592,0,3.795-.047,5.093-1.187,1.832-1.609,3.724-1.62,5.314-.03a3.309,3.309,0,0,1,1.157,2.848,3.6,3.6,0,0,1-3.873,3.911,3.107,3.107,0,0,1-2.855-1.187Z" transform="translate(-120.26 -79.47)" fill="none" stroke="aqua" stroke-width="1"/>
      <path id="path915" d="M189.111,153.909c-1.109-1.187-1.112-1.187-5.682-1.187h-4.572l-1.272-1.583-1.272-1.583H160.267l-.124,1.286-.124,1.286-8.708.864c-4.789.475-9.109.876-9.6.891-.886.027-.891,0-.891-6.108v-6.135h-1.548c-2.665,0-10.869-1.254-12-1.834a4.708,4.708,0,0,1-1.871-5.926c.338-.888.222-1.53-.646-3.571a9.506,9.506,0,0,1-.376-7.075c.195-.641-.057-.915-1.323-1.441a4.374,4.374,0,0,1-2.234-1.944c-.97-1.877-.362-3.452,3.219-8.342,4.479-6.116,4.98-7.268,5.354-12.328.478-6.456,1.77-8.871,6.947-12.986,7.061-5.611,15.223-7.751,22.391-5.869,1.4.367,1.484.479,1.484,1.958v1.568h-3.562v5.384l-1.937.818-1.937.818-1.82-1.82-1.82-1.82-2.562,2.539-2.562,2.539,1.748,1.869,1.748,1.869-.852,2.016-.852,2.016h-4.989v7.484l2.614.117,2.614.117.7,1.847.7,1.847-1.734,1.7-1.734,1.7,2.663,2.684,2.663,2.684,1.818-1.79,1.818-1.79,1.856.821,1.856.821v5.109h3.562v6.729h9.823l1.125-1.78,1.125-1.78h3.235c3.066,0,3.3-.063,4.423-1.188a3.943,3.943,0,1,1-.117,5.328c-.768-.828-1.261-.974-3.306-.974-2.4,0-2.408.006-3.683,1.781l-1.279,1.781H160.217v4.354h20.049l.888-.946a3.907,3.907,0,0,1,6.77,2.63c0,1.969-.516,2.9-2.039,3.691a3.942,3.942,0,0,1-4.7-.829l-.924-.983H160.179l.118,2.474.118,2.474,8.794.107L178,146.4l1.266,1.576,1.266,1.576h3.741c3.621,0,3.785-.039,5.143-1.231,1.219-1.071,1.613-1.2,3.02-1.014,4.906.658,4.388,7.787-.566,7.787a3.073,3.073,0,0,1-2.762-1.187Zm-28.7-30.973a54.244,54.244,0,0,1-.284-5.6l-.1-5.1-1.962-.5a8.985,8.985,0,0,1-5.778-5.768,9.24,9.24,0,0,1,1.525-7.458c1.218-1.533,4.074-3.185,5.507-3.185h.906v17.124l1.415-.23a8.8,8.8,0,0,0,6.9-10.961c-.591-2.219-3.632-5.326-5.6-5.724-2.927-.591-2.716-.126-2.716-5.976V84.244h3.526l.117,2.614.117,2.614,1.97.746,1.97.746,1.8-1.777a12.556,12.556,0,0,1,2.039-1.777,20.237,20.237,0,0,1,2.517,2.6l2.282,2.6-1.674,1.705L173.21,96.02l.72,2.029.721,2.029h5.356V107.2h-5.356l-.709,2-.709,2,1.669,1.993,1.669,1.994-2.432,2.432-2.432,2.432-1.7-1.672a7.5,7.5,0,0,0-2.151-1.672,11.1,11.1,0,0,0-2.261.778l-1.814.778v5.174h-1.6c-.916,0-1.673-.211-1.777-.495Z" transform="translate(-120.238 -79.494)" fill="none" stroke="aqua" stroke-width="1"/>
      <path id="path913" d="M189.111,153.875c-1.108-1.186-1.113-1.187-5.667-1.187h-4.558l-1.254-1.583-1.254-1.583H160.266l-.124,1.277-.124,1.277-8.708.872c-4.789.48-9.109.885-9.6.9-.886.028-.891,0-.891-6.107V141.6h-1.35a78.925,78.925,0,0,1-11.857-1.674c-2.145-.83-3.152-3.617-2.206-6.1.347-.912.236-1.531-.644-3.6-1.058-2.49-1.116-3.579-.362-6.828.2-.863.028-1.073-1.34-1.639a4.357,4.357,0,0,1-2.24-1.944c-.972-1.879-.36-3.458,3.23-8.342,3.945-5.366,5.29-8.178,5.291-11.059a19.852,19.852,0,0,1,1.9-8.82c2.371-4.378,10.359-9.817,16.7-11.374a29.075,29.075,0,0,1,10.588-.014c1.616.455,1.682.535,1.682,2.042v1.568h-3.562V89.2l-1.937.818-1.937.818-1.82-1.82-1.82-1.82-2.554,2.531-2.554,2.531,1.724,1.917,1.723,1.917-.835,1.976-.835,1.976h-4.989v7.521h4.989l.822,1.944.822,1.944-1.736,1.7-1.736,1.7,2.663,2.684,2.663,2.684,1.818-1.79,1.818-1.79,1.856.821,1.856.821V123.4h3.562v6.729h9.858l1.225-1.781,1.226-1.781h3.187c3.03,0,3.241-.058,4.3-1.187a3.073,3.073,0,0,1,2.762-1.187c3.138,0,4.883,3.017,3.4,5.88a3.851,3.851,0,0,1-6.484.39c-.409-.577-1.04-.729-3.021-.729-2.5,0-2.5,0-3.837,1.769l-1.333,1.769-5.64.012-5.64.012v4.354h20.225l.883-1.026a3.969,3.969,0,0,1,6.16.89,5.385,5.385,0,0,1,.012,4.154c-.575,1.075-2.949,2.023-4.313,1.724a4.693,4.693,0,0,1-2.007-1.21l-.91-.969H160.179l.118,2.474.118,2.474,8.78.107,8.78.107,1.248,1.576,1.248,1.576h3.774c3.658,0,3.817-.038,5.176-1.231,1.219-1.071,1.613-1.2,3.02-1.014,4.906.658,4.388,7.787-.566,7.787a3.073,3.073,0,0,1-2.762-1.187ZM160.48,123.132a31.539,31.539,0,0,1-.264-5.491v-5.227l1.49-.238a8.8,8.8,0,0,0,6.472-11.958,9.821,9.821,0,0,0-6.017-4.934l-1.944-.466V84.209h3.526l.117,2.614.117,2.614,1.97.746,1.97.746,1.887-1.859c1.128-1.111,2.019-1.706,2.216-1.48.181.208,1.282,1.409,2.447,2.667l2.118,2.289-1.7,1.736-1.7,1.736.723,2.011.723,2.011h5.385v7.125h-5.356l-.716,2.017-.716,2.017,1.669,1.98,1.669,1.98-2.425,2.425-2.425,2.425-1.774-1.741-1.774-1.741-2.191.745-2.191.745V123.4h-1.517a4.138,4.138,0,0,1-1.781-.264Zm-3.725-11.866c-3.351-1.652-5.436-6.027-4.5-9.445a8.524,8.524,0,0,1,6.522-6.4l1.441-.234v16.728l-1.088-.009a6.666,6.666,0,0,1-2.372-.642Z" transform="translate(-120.238 -79.459)" fill="none" stroke="aqua" stroke-width="1"/>
      <path id="path911" d="M189.166,153.877c-1.182-1.182-1.21-1.187-5.737-1.187h-4.549l-1.254-1.583-1.254-1.583H160.21v1.18c0,1.444.278,1.374-8.708,2.187-3.81.345-7.773.731-8.807.858l-1.88.231V141.607h-1.35a71.278,71.278,0,0,1-11.982-1.794,4.37,4.37,0,0,1-1.94-1.833c-.586-1.133-.617-1.618-.224-3.519.425-2.059.387-2.347-.576-4.344-1.031-2.137-1.1-3.471-.358-6.718.2-.86.013-1.087-1.411-1.735a3.8,3.8,0,0,1-2.341-4.808,29.555,29.555,0,0,1,3.2-5.013c4.116-5.5,5.392-8.388,5.666-12.853.31-5.039,1.319-7.548,4.194-10.422,5.781-5.781,12.673-8.892,19.594-8.846a26.749,26.749,0,0,1,5.245.492c1.617.45,1.682.528,1.682,2.036v1.568h-3.562V89.2l-1.937.818-1.937.818-1.82-1.82-1.82-1.82-2.555,2.532-2.555,2.532,1.7,1.973,1.7,1.973-.811,1.919-.811,1.919h-4.989v7.521H145.8l.822,1.944.822,1.944-1.736,1.7-1.736,1.7,2.663,2.684,2.663,2.684,1.818-1.79,1.818-1.79,1.856.821,1.856.821V123.4h3.562v6.729h9.858l1.225-1.781,1.226-1.781h3.187c3.03,0,3.241-.058,4.3-1.187a3.742,3.742,0,0,1,5.572-.03,3.992,3.992,0,0,1-3,6.759,4.669,4.669,0,0,1-2.31-1.187c-1.181-1.037-1.653-1.187-3.728-1.187-2.35,0-2.39.019-3.708,1.769l-1.333,1.769-5.64.012-5.64.012v4.354h20.151l.99-.99a3.271,3.271,0,0,1,2.754-.99,2.818,2.818,0,0,1,2.789,1.218,3.863,3.863,0,0,1-1.541,6.3,3.558,3.558,0,0,1-4.128-1.032l-.743-.945H160.173l.118,2.474.118,2.474,8.78.107,8.78.107,1.248,1.576,1.248,1.576h3.774c3.629,0,3.826-.046,5.126-1.187a3.5,3.5,0,0,1,4.5-.59c3.554,1.838,2.112,7.319-1.926,7.319a3.3,3.3,0,0,1-2.771-1.187Zm-28.692-30.742a32.1,32.1,0,0,1-.264-5.541c0-5.207.012-5.278.891-5.286a12.747,12.747,0,0,0,5.195-2.289,11.106,11.106,0,0,0,2.61-6.41,8.893,8.893,0,0,0-6.658-8.3l-2.037-.489V84.212h3.526l.117,2.614.117,2.614,1.97.746,1.97.746,1.88-1.852a8.024,8.024,0,0,1,1.988-1.668c.059.1,1.17,1.292,2.469,2.646l2.36,2.462-1.719,1.751-1.719,1.751.723,2.011.723,2.011H180v7.125h-5.356l-.713,2.006c-.782,2.2-.794,2.165,1.483,4.633l1.2,1.3-2.46,2.46-2.461,2.46-1.812-1.812-1.812-1.812-2.14.827-2.14.827-.007,2.672-.007,2.672h-1.517a4.137,4.137,0,0,1-1.781-.264Zm-3.866-12a8.416,8.416,0,0,1-.867-14.409,9.818,9.818,0,0,1,2.984-1.247l1.484-.269V111.92l-1.089-.018a6.928,6.928,0,0,1-2.513-.771Z" transform="translate(-120.232 -79.462)" fill="none" stroke="aqua" stroke-width="1"/>
    </g>
  </g>
</svg>
