<svg xmlns="http://www.w3.org/2000/svg" width="111.928" height="111.928" viewBox="0 0 111.928 111.928">
  <g id="layer1" transform="translate(0.5 0.5)">
    <g id="g948">
      <path id="path974" d="M115.448,266.875c0-1.816-.3-3.3-.66-3.3s-.66-1.871-.66-4.292v-4.292h6.6v4.292c0,3.375-.212,4.292-.99,4.292-.748,0-.99.807-.99,3.3,0,3.081-.11,3.3-1.651,3.3s-1.651-.22-1.651-3.3Zm14.306,2.861a8.235,8.235,0,0,1-.44-3.3c0-1.574-.3-2.861-.66-2.861s-.66-1.871-.66-4.292v-4.292h6.6v4.292c0,2.421-.288,4.292-.66,4.292s-.66,1.486-.66,3.3c0,3.018-.132,3.3-1.541,3.3A3.661,3.661,0,0,1,129.754,269.736Zm14.086-2.861c0-1.816-.3-3.3-.66-3.3s-.66-1.871-.66-4.292v-4.292h6.6v4.292c0,2.421-.288,4.292-.66,4.292s-.66,1.486-.66,3.3c0,3.228-.044,3.3-1.981,3.3s-1.981-.073-1.981-3.3Zm14.526.044c0-1.84-.3-3.345-.66-3.345s-.66-1.871-.66-4.292v-4.291h6.6v4.292c0,2.36-.281,4.292-.624,4.292s-.715,1.411-.825,3.136c-.184,2.872-.354,3.154-2.017,3.345-1.769.2-1.816.124-1.816-3.136Zm14.526-.044c0-2.494-.242-3.3-.99-3.3-.779,0-.99-.917-.99-4.292v-4.292h6.6v4.292c0,2.421-.288,4.292-.66,4.292s-.66,1.486-.66,3.3c0,3.081-.11,3.3-1.651,3.3s-1.651-.22-1.651-3.3Zm-63.747-15.487-1.621-1.621v-70.11l1.621-1.621,1.621-1.621h70.11l1.621,1.621,1.621,1.621v70.11l-1.621,1.621-1.621,1.621H110.767Zm62.325-21.221a7.183,7.183,0,0,1-.442-2.476c.117-.057,1.1-.56,2.194-1.118l1.981-1.015.183-9.79c.125-6.657-.06-10.083-.576-10.705-.572-.689-2.773-.915-8.932-.915h-8.173v6.646c0,3.655-.306,7.218-.68,7.917-1.367,2.555-4.083,3.265-12.493,3.265-7.236,0-7.956.108-7.956,1.194a5.1,5.1,0,0,0,.936,2.476c.861,1.178,1.959,1.3,13.636,1.488l12.7.206,3.7,2.567a30.864,30.864,0,0,0,4.139,2.6c.243.017.147-1.034-.213-2.339Zm-47.439-8.192,3.889-2.641h12.251c15.8,0,14.893.708,14.893-11.668,0-7.473-.188-9.235-1.093-10.234-1.007-1.112-2.482-1.207-18.737-1.207-14.23,0-17.791.177-18.4.915-.516.622-.7,4.048-.576,10.705l.183,9.79,1.981,1.015c1.089.558,2.077,1.061,2.194,1.118a7.182,7.182,0,0,1-.442,2.476c-.36,1.305-.514,2.373-.342,2.373a38.777,38.777,0,0,0,4.2-2.641ZM96.96,245.746c0-.363-1.486-.66-3.3-.66-3.081,0-3.3-.11-3.3-1.651s.22-1.651,3.3-1.651c2.494,0,3.3-.242,3.3-.99,0-.779.917-.99,4.292-.99h4.292v6.6h-4.292C98.83,246.406,96.96,246.118,96.96,245.746ZM186.1,243.1v-3.3h4.292c3.375,0,4.292.212,4.292.99,0,.748.807.99,3.3.99,3.081,0,3.3.11,3.3,1.651s-.22,1.651-3.3,1.651c-1.816,0-3.3.3-3.3.66s-1.871.66-4.292.66H186.1ZM96.96,231.916c0-.343-1.411-.715-3.136-.825-2.872-.184-3.154-.354-3.345-2.017-.2-1.769-.124-1.816,3.136-1.816,1.84,0,3.345-.3,3.345-.66s1.871-.66,4.292-.66h4.292v6.6h-4.292C98.891,232.54,96.96,232.259,96.96,231.916Zm89.138-2.677v-3.3h4.292c2.421,0,4.292.288,4.292.66s1.505.66,3.345.66c3.26,0,3.34.046,3.136,1.816-.191,1.663-.473,1.833-3.345,2.017-1.725.111-3.136.482-3.136.825s-1.931.624-4.292.624H186.1ZM96.96,217.354c0-.363-1.486-.66-3.3-.66-3.228,0-3.3-.044-3.3-1.981s.073-1.981,3.3-1.981c1.816,0,3.3-.3,3.3-.66s1.871-.66,4.292-.66h4.292v6.6h-4.292c-2.421,0-4.292-.288-4.292-.66Zm89.138-2.641v-3.3h4.292c2.421,0,4.292.288,4.292.66s1.486.66,3.3.66c3.228,0,3.3.044,3.3,1.981s-.073,1.981-3.3,1.981c-1.816,0-3.3.3-3.3.66s-1.871.66-4.292.66H186.1ZM96.96,202.827c0-.363-1.505-.66-3.345-.66-3.26,0-3.34-.046-3.136-1.816.191-1.663.473-1.833,3.345-2.017,1.725-.111,3.136-.482,3.136-.825s1.931-.624,4.292-.624h4.292v6.6h-4.292C98.83,203.488,96.96,203.2,96.96,202.827Zm89.138-2.641v-3.3h4.292c2.361,0,4.292.281,4.292.624s1.411.715,3.136.825c2.872.184,3.154.354,3.345,2.017.2,1.769.124,1.816-3.136,1.816-1.84,0-3.345.3-3.345.66s-1.871.66-4.292.66H186.1ZM96.96,188.631c0-.748-.807-.99-3.3-.99-3.081,0-3.3-.11-3.3-1.651s.22-1.651,3.3-1.651c1.816,0,3.3-.3,3.3-.66s1.871-.66,4.292-.66h4.292v6.6h-4.292c-3.375,0-4.292-.212-4.292-.99ZM186.1,186.32v-3.3h4.292c2.421,0,4.292.288,4.292.66s1.486.66,3.3.66c3.081,0,3.3.11,3.3,1.651s-.22,1.651-3.3,1.651c-2.494,0-3.3.242-3.3.99,0,.779-.917.99-4.292.99H186.1Zm-71.971-16.177c0-2.421.288-4.292.66-4.292s.66-1.486.66-3.3c0-3.081.11-3.3,1.651-3.3s1.651.22,1.651,3.3c0,2.494.242,3.3.99,3.3.779,0,.99.917.99,4.292v4.292h-6.6Zm13.866,0c0-2.361.281-4.292.624-4.292s.715-1.411.825-3.136c.184-2.872.354-3.154,2.017-3.345,1.769-.2,1.816-.124,1.816,3.136,0,1.84.3,3.345.66,3.345s.66,1.871.66,4.292v4.292h-6.6Zm14.526,0c0-2.421.288-4.292.66-4.292s.66-1.486.66-3.3c0-3.228.044-3.3,1.981-3.3s1.981.073,1.981,3.3c0,1.816.3,3.3.66,3.3s.66,1.871.66,4.292v4.292h-6.6Zm14.526,0c0-2.421.288-4.292.66-4.292s.66-1.505.66-3.345c0-3.26.046-3.34,1.816-3.136,1.663.191,1.833.473,2.017,3.345.111,1.725.482,3.136.825,3.136s.624,1.931.624,4.292v4.292h-6.6Zm13.866,0c0-3.375.212-4.292.99-4.292.748,0,.99-.807.99-3.3,0-3.081.11-3.3,1.651-3.3s1.651.22,1.651,3.3c0,1.816.3,3.3.66,3.3s.66,1.871.66,4.292v4.292h-6.6Z" transform="translate(-90.357 -159.249)" fill="none" stroke="aqua" stroke-width="1"/>
      <path id="path972" d="M115.448,266.875c0-1.816-.3-3.3-.66-3.3s-.66-1.871-.66-4.292v-4.292h6.6v3.982c0,2.931-.262,4.083-.99,4.362-.694.266-.99,1.348-.99,3.611,0,3.006-.115,3.231-1.651,3.231s-1.651-.22-1.651-3.3Zm14.526,0c0-2.494-.242-3.3-.99-3.3-.779,0-.99-.917-.99-4.292v-4.292h6.6v4.292c0,2.421-.288,4.292-.66,4.292s-.66,1.486-.66,3.3c0,3.081-.11,3.3-1.651,3.3S129.974,269.956,129.974,266.875Zm13.866,0c0-1.816-.3-3.3-.66-3.3s-.66-1.871-.66-4.292v-4.292h6.6v4.292c0,2.421-.288,4.292-.66,4.292s-.66,1.486-.66,3.3c0,3.228-.044,3.3-1.981,3.3s-1.981-.073-1.981-3.3Zm14.526,0c0-1.816-.3-3.3-.66-3.3s-.66-1.871-.66-4.292v-4.292h6.6v4.292c0,3.375-.212,4.292-.99,4.292-.748,0-.99.807-.99,3.3,0,3.081-.11,3.3-1.651,3.3S158.366,269.956,158.366,266.875Zm14.526,0c0-2.494-.242-3.3-.99-3.3-.779,0-.99-.917-.99-4.292v-4.292h6.6v4.292c0,2.421-.288,4.292-.66,4.292s-.66,1.486-.66,3.3c0,3.081-.11,3.3-1.651,3.3s-1.651-.22-1.651-3.3Zm-62.571-14.541a4.635,4.635,0,0,1-2.163-2.365c-.428-1.125-.6-14.168-.486-36.31.169-32.15.264-34.636,1.361-35.733s3.488-1.179,36.787-1.179,35.684.076,36.787,1.179,1.179,3.484,1.179,36.787-.076,35.684-1.179,36.787-3.554,1.188-35.985,1.311c-20.094.076-35.438-.125-36.3-.477Zm61.149-22.166a7.183,7.183,0,0,1-.442-2.476c.117-.057,1.1-.56,2.194-1.118l1.981-1.015.183-9.79c.125-6.657-.06-10.083-.576-10.705-.572-.689-2.773-.915-8.932-.915h-8.173v6.646c0,3.655-.306,7.218-.68,7.917-1.367,2.555-4.083,3.265-12.493,3.265-7.516,0-7.956.073-7.956,1.321a4.567,4.567,0,0,0,1.321,2.641c1.224,1.224,2.225,1.323,13.7,1.353l12.38.032,3.632,2.577a29.6,29.6,0,0,0,4.074,2.609c.243.017.147-1.036-.213-2.341Zm-47.186-8.192,4.182-2.641h11.979c15.5,0,14.62.715,14.62-11.838,0-7.48-.194-9.39-1.038-10.234-.891-.891-3.522-1.038-18.686-1.038-12.846,0-17.864.216-18.441.792-.887.887-1.137,19.433-.28,20.779a4.552,4.552,0,0,0,2.3,1.227c2.038.511,2.038.512,1.195,3.452-.338,1.178-.479,2.142-.314,2.142A46.42,46.42,0,0,0,124.284,221.975ZM96.96,245.746c0-.363-1.486-.66-3.3-.66-3.081,0-3.3-.11-3.3-1.651s.22-1.651,3.3-1.651c2.494,0,3.3-.242,3.3-.99,0-.779.917-.99,4.292-.99h4.292v6.6h-4.292C98.83,246.406,96.96,246.118,96.96,245.746ZM186.1,243.1v-3.3h4.292c3.375,0,4.292.212,4.292.99,0,.748.807.99,3.3.99,3.081,0,3.3.11,3.3,1.651s-.22,1.651-3.3,1.651c-1.816,0-3.3.3-3.3.66s-1.871.66-4.292.66H186.1ZM96.96,231.55c0-.748-.807-.99-3.3-.99-3.081,0-3.3-.11-3.3-1.651s.22-1.651,3.3-1.651c1.816,0,3.3-.3,3.3-.66s1.871-.66,4.292-.66h4.292v6.6h-4.292C97.877,232.54,96.96,232.328,96.96,231.55Zm89.138-2.311v-3.3h4.292c2.421,0,4.292.288,4.292.66s1.486.66,3.3.66c3.081,0,3.3.11,3.3,1.651s-.22,1.651-3.3,1.651c-2.494,0-3.3.242-3.3.99,0,.779-.917.99-4.292.99H186.1ZM96.96,217.354c0-.363-1.486-.66-3.3-.66-3.228,0-3.3-.044-3.3-1.981s.073-1.981,3.3-1.981c1.816,0,3.3-.3,3.3-.66s1.871-.66,4.292-.66h4.292v6.6h-4.292c-2.421,0-4.292-.288-4.292-.66Zm89.138-2.641v-3.3h4.292c2.421,0,4.292.288,4.292.66s1.486.66,3.3.66c3.228,0,3.3.044,3.3,1.981s-.073,1.981-3.3,1.981c-1.816,0-3.3.3-3.3.66s-1.871.66-4.292.66H186.1ZM96.96,202.827c0-.363-1.486-.66-3.3-.66-3.081,0-3.3-.11-3.3-1.651s.22-1.651,3.3-1.651c2.494,0,3.3-.242,3.3-.99,0-.779.917-.99,4.292-.99h4.292v6.6h-4.292c-2.421,0-4.292-.288-4.292-.66Zm89.138-2.641v-3.3h4.292c3.375,0,4.292.212,4.292.99,0,.748.807.99,3.3.99,3.081,0,3.3.11,3.3,1.651s-.22,1.651-3.3,1.651c-1.816,0-3.3.3-3.3.66s-1.871.66-4.292.66H186.1ZM96.96,188.631c0-.748-.807-.99-3.3-.99-3.081,0-3.3-.11-3.3-1.651s.22-1.651,3.3-1.651c1.816,0,3.3-.3,3.3-.66s1.871-.66,4.292-.66h4.292v6.6h-4.292c-3.375,0-4.292-.212-4.292-.99ZM186.1,186.32v-3.3h4.292c2.421,0,4.292.288,4.292.66s1.486.66,3.3.66c3.081,0,3.3.11,3.3,1.651s-.225,1.651-3.231,1.651c-2.263,0-3.345.3-3.611.99-.28.729-1.432.99-4.362.99H186.1Zm-71.971-16.177c0-2.421.288-4.292.66-4.292s.66-1.486.66-3.3c0-3.081.11-3.3,1.651-3.3s1.651.22,1.651,3.3c0,2.494.242,3.3.99,3.3.779,0,.99.917.99,4.292v4.292h-6.6Zm13.866,0c0-3.375.212-4.292.99-4.292.748,0,.99-.807.99-3.3,0-3.081.11-3.3,1.651-3.3s1.651.22,1.651,3.3c0,1.816.3,3.3.66,3.3s.66,1.871.66,4.292v4.292h-6.6Zm14.526,0c0-2.421.288-4.292.66-4.292s.66-1.486.66-3.3c0-3.228.044-3.3,1.981-3.3s1.981.073,1.981,3.3c0,1.816.3,3.3.66,3.3s.66,1.871.66,4.292v4.292h-6.6Zm14.526,0c0-2.421.288-4.292.66-4.292s.66-1.486.66-3.3c0-3.081.11-3.3,1.651-3.3s1.651.22,1.651,3.3c0,2.494.242,3.3.99,3.3.779,0,.99.917.99,4.292v4.292h-6.6Zm13.866,0c0-3.375.212-4.292.99-4.292.748,0,.99-.807.99-3.3,0-3.081.11-3.3,1.651-3.3s1.651.22,1.651,3.3c0,1.816.3,3.3.66,3.3s.66,1.871.66,4.292v4.292h-6.6Z" transform="translate(-90.357 -159.249)" fill="none" stroke="aqua" stroke-width="1"/>
      <path id="path970" d="M115.447,266.874c0-1.816-.3-3.3-.66-3.3s-.66-1.871-.66-4.292v-4.292h6.6v3.982c0,2.931-.262,4.083-.99,4.362-.694.266-.99,1.348-.99,3.611,0,3.006-.115,3.231-1.651,3.231s-1.651-.22-1.651-3.3Zm14.526,0c0-2.494-.242-3.3-.99-3.3-.779,0-.99-.917-.99-4.292v-4.292h6.6v4.292c0,2.421-.288,4.292-.66,4.292s-.66,1.486-.66,3.3c0,3.081-.11,3.3-1.651,3.3S129.973,269.955,129.973,266.874Zm14.334,2.889a8.008,8.008,0,0,1-.468-3.329c0-1.574-.3-2.861-.66-2.861s-.66-1.871-.66-4.292v-4.292h6.6v4.292c0,2.36-.281,4.292-.624,4.292s-.715,1.411-.825,3.136c-.165,2.574-.443,3.171-1.549,3.329A2.61,2.61,0,0,1,144.307,269.763Zm14.058-2.889c0-1.816-.3-3.3-.66-3.3s-.66-1.871-.66-4.292v-4.292h6.6v4.292c0,3.375-.212,4.292-.99,4.292-.748,0-.99.807-.99,3.3,0,3.081-.11,3.3-1.651,3.3s-1.651-.22-1.651-3.3Zm14.526.071c0-2.263-.3-3.345-.99-3.611-.729-.28-.99-1.432-.99-4.362v-3.982h6.6v4.292c0,2.421-.288,4.292-.66,4.292s-.66,1.486-.66,3.3c0,3.081-.11,3.3-1.651,3.3s-1.651-.225-1.651-3.231Zm-63.915-15.389c-1.143-1.143-1.143-72.544,0-73.687s72.544-1.143,73.687,0,1.143,72.544,0,73.687-72.544,1.143-73.687,0Zm62.493-21.389a7.183,7.183,0,0,1-.442-2.476c.117-.057,1.1-.56,2.194-1.118l1.981-1.015.183-9.79c.125-6.657-.06-10.083-.576-10.705-.572-.689-2.773-.915-8.932-.915H157.7v6.242c0,10.565-1.161,11.586-13.173,11.586h-7.956v1.613c0,3.213,1.831,3.668,14.838,3.682l11.9.012,3.962,2.592a35.785,35.785,0,0,0,4.4,2.628c.243.02.147-1.032-.213-2.337Zm-31.251-10.833c15.834,0,14.845.769,14.845-11.545,0-7.746-.191-9.68-1.038-10.527-.891-.891-3.522-1.038-18.686-1.038-12.846,0-17.864.216-18.441.792-.545.545-.792,3.834-.792,10.517,0,10.385.41,11.8,3.42,11.8,1.373,0,1.387.584.118,4.843-.264.887.846.4,4.151-1.816l4.512-3.027ZM96.96,245.746c0-.363-1.486-.66-3.3-.66-3.081,0-3.3-.11-3.3-1.651s.225-1.651,3.231-1.651c2.263,0,3.345-.3,3.611-.99.28-.729,1.432-.99,4.362-.99h3.982v6.6h-4.292c-2.421,0-4.292-.288-4.292-.66Zm89.138-2.641v-3.3h3.982c2.931,0,4.083.262,4.362.99.266.694,1.348.99,3.611.99,3.006,0,3.231.115,3.231,1.651s-.22,1.651-3.3,1.651c-1.816,0-3.3.3-3.3.66s-1.871.66-4.292.66H186.1ZM96.96,231.55c0-.748-.807-.99-3.3-.99-3.081,0-3.3-.11-3.3-1.651s.22-1.651,3.3-1.651c1.816,0,3.3-.3,3.3-.66s1.871-.66,4.292-.66h4.292v6.6h-4.292C97.877,232.541,96.96,232.329,96.96,231.55Zm89.138-2.311v-3.3h4.292c2.421,0,4.292.288,4.292.66s1.486.66,3.3.66c3.081,0,3.3.11,3.3,1.651s-.22,1.651-3.3,1.651c-2.494,0-3.3.242-3.3.99,0,.779-.917.99-4.292.99H186.1ZM96.96,217.39c0-.343-1.411-.715-3.136-.825-2.852-.183-3.136-.351-3.136-1.852s.285-1.669,3.136-1.852c1.725-.111,3.136-.482,3.136-.825s1.931-.624,4.292-.624h4.292v6.6h-4.292C98.891,218.014,96.96,217.734,96.96,217.39Zm89.138-2.677v-3.3h4.292c2.361,0,4.292.281,4.292.624s1.411.715,3.136.825c2.852.183,3.136.351,3.136,1.852s-.285,1.669-3.136,1.852c-1.725.111-3.136.482-3.136.825s-1.931.624-4.292.624H186.1ZM96.96,202.828c0-.363-1.486-.66-3.3-.66-3.081,0-3.3-.11-3.3-1.651s.22-1.651,3.3-1.651c2.494,0,3.3-.242,3.3-.99,0-.779.917-.99,4.292-.99h4.292v6.6h-4.292c-2.421,0-4.292-.288-4.292-.66Zm89.138-2.641v-3.3h4.292c3.375,0,4.292.212,4.292.99,0,.748.807.99,3.3.99,3.081,0,3.3.11,3.3,1.651s-.22,1.651-3.3,1.651c-1.816,0-3.3.3-3.3.66s-1.871.66-4.292.66H186.1ZM97.2,188.632c-.266-.694-1.348-.99-3.611-.99-3.006,0-3.231-.115-3.231-1.651s.22-1.651,3.3-1.651c1.816,0,3.3-.3,3.3-.66s1.871-.66,4.292-.66h4.292v6.6h-3.982c-2.931,0-4.083-.262-4.362-.99Zm88.9-2.311v-3.3h4.292c2.421,0,4.292.288,4.292.66s1.486.66,3.3.66c3.081,0,3.3.11,3.3,1.651s-.225,1.651-3.231,1.651c-2.263,0-3.345.3-3.611.99-.28.729-1.432.99-4.362.99H186.1Zm-71.971-16.177c0-2.421.288-4.292.66-4.292s.66-1.486.66-3.3c0-3.081.11-3.3,1.651-3.3s1.651.225,1.651,3.231c0,2.263.3,3.345.99,3.611.729.28.99,1.432.99,4.362v3.982h-6.6Zm13.866,0c0-3.375.212-4.292.99-4.292.748,0,.99-.807.99-3.3,0-3.081.11-3.3,1.651-3.3s1.651.22,1.651,3.3c0,1.816.3,3.3.66,3.3s.66,1.871.66,4.292v4.292h-6.6Zm14.526,0c0-2.361.281-4.292.624-4.292s.715-1.411.825-3.136c.183-2.852.351-3.136,1.852-3.136s1.669.285,1.852,3.136c.111,1.725.482,3.136.825,3.136s.624,1.931.624,4.292v4.292h-6.6Zm14.526,0c0-2.421.288-4.292.66-4.292s.66-1.486.66-3.3c0-3.081.11-3.3,1.651-3.3s1.651.22,1.651,3.3c0,2.494.242,3.3.99,3.3.779,0,.99.917.99,4.292v4.292h-6.6Zm13.866.309c0-2.931.262-4.083.99-4.362.694-.266.99-1.348.99-3.611,0-3.006.115-3.231,1.651-3.231s1.651.22,1.651,3.3c0,1.816.3,3.3.66,3.3s.66,1.871.66,4.292v4.292h-6.6Z" transform="translate(-90.356 -159.248)" fill="none" stroke="aqua" stroke-width="1"/>
      <path id="path968" d="M115.447,266.874c0-1.816-.3-3.3-.66-3.3s-.66-1.871-.66-4.292v-4.292h6.6v3.982c0,2.931-.262,4.083-.99,4.362-.694.266-.99,1.348-.99,3.611,0,3.006-.115,3.231-1.651,3.231s-1.651-.22-1.651-3.3Zm14.526.071c0-2.263-.3-3.345-.99-3.611-.729-.28-.99-1.432-.99-4.362v-3.982h6.6v4.292c0,2.421-.288,4.292-.66,4.292s-.66,1.486-.66,3.3c0,3.081-.11,3.3-1.651,3.3S129.973,269.95,129.973,266.944Zm14.334,2.818a8.008,8.008,0,0,1-.468-3.329c0-1.574-.3-2.861-.66-2.861s-.66-1.871-.66-4.292v-4.292h6.6v4.292c0,2.36-.281,4.292-.624,4.292s-.715,1.411-.825,3.136c-.165,2.574-.443,3.171-1.549,3.329A2.61,2.61,0,0,1,144.307,269.763Zm14.058-2.889c0-1.816-.3-3.3-.66-3.3s-.66-1.871-.66-4.292v-4.292h6.6v3.982c0,2.931-.262,4.083-.99,4.362-.694.266-.99,1.348-.99,3.611,0,3.006-.115,3.231-1.651,3.231s-1.651-.22-1.651-3.3Zm14.526.071c0-2.263-.3-3.345-.99-3.611-.729-.28-.99-1.432-.99-4.362v-3.982h6.6v4.292c0,2.421-.288,4.292-.66,4.292s-.66,1.486-.66,3.3c0,3.081-.11,3.3-1.651,3.3s-1.651-.225-1.651-3.231Zm-63.915-15.389c-1.143-1.143-1.143-72.544,0-73.687s72.544-1.143,73.687,0,1.143,72.544,0,73.687-72.544,1.143-73.687,0Zm62.583-21.036c-.879-3.064-.841-3.262.624-3.262,2.932,0,3.349-1.467,3.349-11.8,0-6.684-.248-9.973-.792-10.517s-3.477-.792-8.914-.792H157.7v6.305c0,10.456-1.262,11.522-13.634,11.522h-7.495v1.613c0,3.217,1.828,3.669,14.847,3.669h11.912l4.283,2.893a36.074,36.074,0,0,0,4.436,2.762,8.8,8.8,0,0,0-.5-2.394Zm-31.341-11.185c15.834,0,14.845.769,14.845-11.545,0-7.746-.191-9.68-1.038-10.527-.892-.892-3.527-1.038-18.737-1.038-14.272,0-17.846.177-18.458.914-.518.624-.7,4.14-.576,11.06l.183,10.145,2.181.642c2.276.67,2.315.869,1.027,5.191-.264.887.846.4,4.151-1.816l4.512-3.027ZM96.96,245.746c0-.363-1.486-.66-3.3-.66-3.081,0-3.3-.11-3.3-1.651s.225-1.651,3.231-1.651c2.263,0,3.345-.3,3.611-.99.28-.729,1.432-.99,4.362-.99h3.982v6.6h-4.292c-2.421,0-4.292-.288-4.292-.66Zm89.138-2.641v-3.3h3.982c2.931,0,4.083.262,4.362.99.266.694,1.348.99,3.611.99,3.006,0,3.231.115,3.231,1.651s-.22,1.651-3.3,1.651c-1.816,0-3.3.3-3.3.66s-1.871.66-4.292.66H186.1ZM97.2,231.55c-.266-.694-1.348-.99-3.611-.99-3.006,0-3.231-.115-3.231-1.651s.22-1.651,3.3-1.651c1.816,0,3.3-.3,3.3-.66s1.871-.66,4.292-.66h4.292v6.6h-3.982c-2.931,0-4.083-.262-4.362-.99Zm88.9-2.311v-3.3h4.292c2.421,0,4.292.288,4.292.66s1.486.66,3.3.66c3.081,0,3.3.11,3.3,1.651s-.225,1.651-3.231,1.651c-2.263,0-3.345.3-3.611.99-.28.729-1.432.99-4.362.99H186.1ZM96.96,217.39c0-.343-1.411-.715-3.136-.825-2.852-.183-3.136-.351-3.136-1.852s.285-1.669,3.136-1.852c1.725-.111,3.136-.482,3.136-.825s1.931-.624,4.292-.624h4.292v6.6h-4.292C98.891,218.014,96.96,217.734,96.96,217.39Zm89.138-2.677v-3.3h4.292c2.361,0,4.292.281,4.292.624s1.411.715,3.136.825c2.852.183,3.136.351,3.136,1.852s-.285,1.669-3.136,1.852c-1.725.111-3.136.482-3.136.825s-1.931.624-4.292.624H186.1ZM96.96,202.828c0-.363-1.486-.66-3.3-.66-3.081,0-3.3-.11-3.3-1.651s.225-1.651,3.231-1.651c2.263,0,3.345-.3,3.611-.99.28-.729,1.432-.99,4.362-.99h3.982v6.6h-4.292c-2.421,0-4.292-.288-4.292-.66Zm89.138-2.641v-3.3h3.982c2.931,0,4.083.262,4.362.99.266.694,1.348.99,3.611.99,3.006,0,3.231.115,3.231,1.651s-.22,1.651-3.3,1.651c-1.816,0-3.3.3-3.3.66s-1.871.66-4.292.66H186.1ZM97.2,188.632c-.266-.694-1.348-.99-3.611-.99-3.006,0-3.231-.115-3.231-1.651s.22-1.651,3.3-1.651c1.816,0,3.3-.3,3.3-.66s1.871-.66,4.292-.66h4.292v6.6h-3.982c-2.931,0-4.083-.262-4.362-.99Zm88.9-2.311v-3.3h4.292c2.421,0,4.292.288,4.292.66s1.486.66,3.3.66c3.081,0,3.3.11,3.3,1.651s-.225,1.651-3.231,1.651c-2.263,0-3.345.3-3.611.99-.28.729-1.432.99-4.362.99H186.1Zm-71.971-16.177c0-2.421.288-4.292.66-4.292s.66-1.486.66-3.3c0-3.081.11-3.3,1.651-3.3s1.651.225,1.651,3.231c0,2.263.3,3.345.99,3.611.729.28.99,1.432.99,4.362v3.982h-6.6Zm13.866.309c0-2.931.262-4.083.99-4.362.694-.266.99-1.348.99-3.611,0-3.006.115-3.231,1.651-3.231s1.651.22,1.651,3.3c0,1.816.3,3.3.66,3.3s.66,1.871.66,4.292v4.292h-6.6Zm14.526-.309c0-2.361.281-4.292.624-4.292s.715-1.411.825-3.136c.183-2.852.351-3.136,1.852-3.136s1.669.285,1.852,3.136c.111,1.725.482,3.136.825,3.136s.624,1.931.624,4.292v4.292h-6.6Zm14.526,0c0-2.421.288-4.292.66-4.292s.66-1.486.66-3.3c0-3.081.11-3.3,1.651-3.3s1.651.225,1.651,3.231c0,2.263.3,3.345.99,3.611.729.28.99,1.432.99,4.362v3.982h-6.6Zm13.866.309c0-2.931.262-4.083.99-4.362.694-.266.99-1.348.99-3.611,0-3.006.115-3.231,1.651-3.231s1.651.22,1.651,3.3c0,1.816.3,3.3.66,3.3s.66,1.871.66,4.292v4.292h-6.6Z" transform="translate(-90.356 -159.248)" fill="none" stroke="aqua" stroke-width="1"/>
      <path id="path966" d="M115.447,266.874c0-1.816-.3-3.3-.66-3.3s-.66-1.871-.66-4.292v-4.292h5.943v4.292c0,2.421-.288,4.292-.66,4.292s-.66,1.486-.66,3.3c0,3.081-.11,3.3-1.651,3.3S115.447,269.955,115.447,266.874Zm14.526.071c0-2.263-.3-3.345-.99-3.611-.729-.28-.99-1.432-.99-4.362v-3.982h6.6v4.292c0,2.421-.288,4.292-.66,4.292s-.66,1.486-.66,3.3c0,3.081-.11,3.3-1.651,3.3S129.973,269.95,129.973,266.944Zm14.334,2.818a8.008,8.008,0,0,1-.468-3.329c0-1.574-.3-2.861-.66-2.861s-.66-1.871-.66-4.292v-4.292h6.6v4.292c0,2.36-.281,4.292-.624,4.292s-.715,1.411-.825,3.136c-.165,2.574-.443,3.171-1.549,3.329A2.609,2.609,0,0,1,144.307,269.763Zm14.058-2.889c0-1.816-.3-3.3-.66-3.3s-.66-1.871-.66-4.292v-4.292h6.6v3.982c0,2.931-.262,4.083-.99,4.362-.694.266-.99,1.348-.99,3.611,0,3.006-.115,3.231-1.651,3.231s-1.651-.22-1.651-3.3Zm14.526,0c0-1.816-.3-3.3-.66-3.3s-.66-1.871-.66-4.292v-4.292h5.943v4.292c0,2.421-.288,4.292-.66,4.292s-.66,1.486-.66,3.3c0,3.081-.11,3.3-1.651,3.3S172.891,269.955,172.891,266.874Zm-63.915-15.318c-1.143-1.143-1.143-72.544,0-73.687s72.544-1.143,73.687,0,1.143,72.544,0,73.687-72.544,1.143-73.687,0Zm62.595-21.327a6.912,6.912,0,0,1-.561-2.547c.127-.081,1.122-.439,2.212-.8l1.981-.649.183-10.13c.125-6.909-.059-10.421-.576-11.045-.572-.689-2.775-.914-8.931-.914H157.7v6.305c0,10.456-1.262,11.522-13.634,11.522h-7.495v1.613c0,3.217,1.828,3.669,14.847,3.669h11.912l4.283,2.893a23.777,23.777,0,0,0,4.514,2.685,7.008,7.008,0,0,0-.561-2.608Zm-31.352-10.895c15.834,0,14.845.769,14.845-11.545,0-7.746-.191-9.68-1.038-10.527-.892-.892-3.527-1.038-18.737-1.038-14.272,0-17.846.177-18.458.914-.518.624-.7,4.14-.576,11.06l.183,10.145,2.181.642c2.281.671,2.244.492,1.028,4.885-.393,1.421-.015,1.285,4.115-1.486l4.548-3.051ZM96.96,245.746c0-.363-1.486-.66-3.3-.66-3.081,0-3.3-.11-3.3-1.651s.22-1.651,3.3-1.651c1.816,0,3.3-.3,3.3-.66s1.871-.66,4.292-.66h4.292v5.943h-4.292c-2.421,0-4.292-.288-4.292-.66Zm89.138-2.311v-2.971h4.292c2.421,0,4.292.288,4.292.66s1.486.66,3.3.66c3.081,0,3.3.11,3.3,1.651s-.22,1.651-3.3,1.651c-1.816,0-3.3.3-3.3.66s-1.871.66-4.292.66H186.1ZM97.2,231.55c-.266-.694-1.348-.99-3.611-.99-3.006,0-3.231-.115-3.231-1.651s.22-1.651,3.3-1.651c1.816,0,3.3-.3,3.3-.66s1.871-.66,4.292-.66h4.292v6.6h-3.982c-2.931,0-4.083-.262-4.362-.99Zm88.9-2.311v-3.3h4.292c2.421,0,4.292.288,4.292.66s1.486.66,3.3.66c3.081,0,3.3.11,3.3,1.651s-.225,1.651-3.231,1.651c-2.263,0-3.345.3-3.611.99-.28.729-1.432.99-4.362.99H186.1ZM96.96,217.39c0-.343-1.411-.715-3.136-.825-2.852-.183-3.136-.351-3.136-1.852s.285-1.669,3.136-1.852c1.725-.111,3.136-.482,3.136-.825s1.931-.624,4.292-.624h4.292v6.6h-4.292C98.891,218.015,96.96,217.734,96.96,217.39Zm89.138-2.677v-3.3h4.292c2.361,0,4.292.281,4.292.624s1.411.715,3.136.825c2.852.183,3.136.351,3.136,1.852s-.285,1.669-3.136,1.852c-1.725.111-3.136.482-3.136.825s-1.931.624-4.292.624H186.1ZM96.96,202.828c0-.363-1.486-.66-3.3-.66-3.081,0-3.3-.11-3.3-1.651s.225-1.651,3.231-1.651c2.263,0,3.345-.3,3.611-.99.28-.729,1.432-.99,4.362-.99h3.982v6.6h-4.292c-2.421,0-4.292-.288-4.292-.66Zm89.138-2.641v-3.3h3.982c2.931,0,4.083.262,4.362.99.266.694,1.348.99,3.611.99,3.006,0,3.231.115,3.231,1.651s-.22,1.651-3.3,1.651c-1.816,0-3.3.3-3.3.66s-1.871.66-4.292.66H186.1ZM96.96,188.3c0-.363-1.486-.66-3.3-.66-3.081,0-3.3-.11-3.3-1.651s.22-1.651,3.3-1.651c1.816,0,3.3-.3,3.3-.66s1.871-.66,4.292-.66h4.292v5.943h-4.292c-2.421,0-4.292-.288-4.292-.66Zm89.138-2.311V183.02h4.292c2.421,0,4.292.288,4.292.66s1.486.66,3.3.66c3.081,0,3.3.11,3.3,1.651s-.22,1.651-3.3,1.651c-1.816,0-3.3.3-3.3.66s-1.871.66-4.292.66H186.1Zm-71.971-15.847c0-2.421.288-4.292.66-4.292s.66-1.486.66-3.3c0-3.081.11-3.3,1.651-3.3s1.651.22,1.651,3.3c0,1.816.3,3.3.66,3.3s.66,1.871.66,4.292v4.292h-5.943Zm13.866.309c0-2.931.262-4.083.99-4.362.694-.266.99-1.348.99-3.611,0-3.006.115-3.231,1.651-3.231s1.651.22,1.651,3.3c0,1.816.3,3.3.66,3.3s.66,1.871.66,4.292v4.292h-6.6Zm14.526-.309c0-2.361.281-4.292.624-4.292s.715-1.411.825-3.136c.183-2.852.351-3.136,1.852-3.136s1.669.285,1.852,3.136c.111,1.725.482,3.136.825,3.136s.624,1.931.624,4.292v4.292h-6.6Zm14.526,0c0-2.421.288-4.292.66-4.292s.66-1.486.66-3.3c0-3.081.11-3.3,1.651-3.3s1.651.225,1.651,3.231c0,2.263.3,3.345.99,3.611.729.28.99,1.432.99,4.362v3.982h-6.6Zm14.526,0c0-2.421.288-4.292.66-4.292s.66-1.486.66-3.3c0-3.081.11-3.3,1.651-3.3s1.651.22,1.651,3.3c0,1.816.3,3.3.66,3.3s.66,1.871.66,4.292v4.292h-5.943Z" transform="translate(-90.356 -159.248)" fill="none" stroke="aqua" stroke-width="1"/>
      <path id="path964" d="M115.447,266.874c0-1.816-.3-3.3-.66-3.3s-.66-1.871-.66-4.292v-4.292h5.943v4.292c0,2.421-.288,4.292-.66,4.292s-.66,1.486-.66,3.3c0,3.081-.11,3.3-1.651,3.3S115.447,269.955,115.447,266.874Zm14.526.117c0-2.3-.294-3.39-.99-3.657-.729-.28-.99-1.432-.99-4.362v-3.982h6.6v4.292c0,2.36-.281,4.292-.624,4.292s-.715,1.411-.825,3.136c-.172,2.676-.419,3.167-1.687,3.347-1.369.194-1.486-.045-1.486-3.066Zm14.334,2.772a8.008,8.008,0,0,1-.468-3.329c0-1.574-.3-2.861-.66-2.861s-.66-1.871-.66-4.292v-4.292h6.6v4.292c0,2.36-.281,4.292-.624,4.292s-.715,1.411-.825,3.136c-.165,2.574-.443,3.171-1.549,3.329A2.609,2.609,0,0,1,144.307,269.763Zm14.5-.028a8.235,8.235,0,0,1-.44-3.3c0-1.574-.3-2.861-.66-2.861s-.66-1.871-.66-4.292v-4.292h6.6v3.982c0,2.931-.262,4.083-.99,4.362-.694.266-.99,1.348-.99,3.611,0,2.693-.2,3.231-1.211,3.231a2.838,2.838,0,0,1-1.651-.44Zm14.086-2.861c0-1.816-.3-3.3-.66-3.3s-.66-1.871-.66-4.292v-4.292h5.943v4.292c0,2.421-.288,4.292-.66,4.292s-.66,1.486-.66,3.3c0,3.081-.11,3.3-1.651,3.3S172.891,269.955,172.891,266.873Zm-63.915-15.318c-1.143-1.143-1.143-72.544,0-73.687s72.544-1.143,73.687,0,1.143,72.544,0,73.687-72.544,1.143-73.687,0Zm62.671-21.062c-1.021-2.928-.987-3.021,1.255-3.47a3.3,3.3,0,0,0,2.689-2.228c1.021-2.679.518-18.173-.635-19.559-.753-.905-2.29-1.09-9.079-1.09H157.7v6.305c0,10.456-1.262,11.522-13.634,11.522-7.252,0-7.495.046-7.495,1.434a4.626,4.626,0,0,0,1.093,2.641c.984,1.087,2.315,1.207,13.38,1.207h12.287l4.283,2.894a22.746,22.746,0,0,0,4.524,2.675,5.416,5.416,0,0,0-.5-2.332Zm-31.169-11.16c10.4,0,12.346-.159,13.378-1.093,1.06-.959,1.207-2.218,1.207-10.278,0-5.069-.306-9.757-.684-10.462-.65-1.215-1.564-1.277-18.781-1.277-21.938,0-20.153-.974-20.153,11,0,9.523.505,11.321,3.339,11.888,2.147.429,2.112.236.86,4.76-.393,1.421-.015,1.285,4.115-1.486l4.548-3.051ZM96.96,245.746c0-.363-1.486-.66-3.3-.66-3.081,0-3.3-.11-3.3-1.651s.22-1.651,3.3-1.651c1.816,0,3.3-.3,3.3-.66s1.871-.66,4.292-.66h4.292v5.943h-4.292c-2.421,0-4.292-.288-4.292-.66Zm89.138-2.311v-2.971h4.292c2.421,0,4.292.288,4.292.66s1.486.66,3.3.66c3.081,0,3.3.11,3.3,1.651s-.22,1.651-3.3,1.651c-1.816,0-3.3.3-3.3.66s-1.871.66-4.292.66H186.1ZM97.2,231.55c-.267-.7-1.353-.99-3.657-.99-3.02,0-3.26-.116-3.066-1.486.18-1.268.671-1.515,3.347-1.687,1.725-.111,3.136-.482,3.136-.825s1.931-.624,4.292-.624h4.292v6.6h-3.982c-2.931,0-4.083-.262-4.362-.99Zm88.9-2.311v-3.3h4.292c2.361,0,4.292.281,4.292.624s1.411.715,3.136.825c2.676.172,3.167.419,3.347,1.687.194,1.369-.045,1.486-3.066,1.486-2.3,0-3.39.294-3.657.99-.28.729-1.432.99-4.362.99H186.1ZM96.96,217.39c0-.343-1.411-.715-3.136-.825-2.852-.183-3.136-.351-3.136-1.852s.285-1.669,3.136-1.852c1.725-.111,3.136-.482,3.136-.825s1.931-.624,4.292-.624h4.292v6.6h-4.292C98.891,218.015,96.96,217.734,96.96,217.39Zm89.138-2.677v-3.3h4.292c2.361,0,4.292.281,4.292.624s1.411.715,3.136.825c2.852.183,3.136.351,3.136,1.852s-.285,1.669-3.136,1.852c-1.725.111-3.136.482-3.136.825s-1.931.624-4.292.624H186.1ZM96.96,202.864c0-.343-1.411-.715-3.136-.825-2.676-.172-3.167-.419-3.347-1.687-.194-1.369.045-1.486,3.066-1.486,2.3,0,3.39-.294,3.657-.99.28-.729,1.432-.99,4.362-.99h3.982v6.6h-4.292c-2.361,0-4.292-.281-4.292-.624Zm89.138-2.677v-3.3h3.982c2.931,0,4.083.262,4.362.99.267.7,1.353.99,3.657.99,3.02,0,3.26.116,3.066,1.486-.18,1.268-.671,1.515-3.347,1.687-1.725.111-3.136.482-3.136.825s-1.931.624-4.292.624H186.1ZM96.96,188.3c0-.363-1.486-.66-3.3-.66-3.081,0-3.3-.11-3.3-1.651s.22-1.651,3.3-1.651c1.816,0,3.3-.3,3.3-.66s1.871-.66,4.292-.66h4.292v5.943h-4.292c-2.421,0-4.292-.288-4.292-.66Zm89.138-2.311V183.02h4.292c2.421,0,4.292.288,4.292.66s1.486.66,3.3.66c3.081,0,3.3.11,3.3,1.651s-.22,1.651-3.3,1.651c-1.816,0-3.3.3-3.3.66s-1.871.66-4.292.66H186.1Zm-71.971-15.847c0-2.421.288-4.292.66-4.292s.66-1.486.66-3.3c0-3.081.11-3.3,1.651-3.3s1.651.22,1.651,3.3c0,1.816.3,3.3.66,3.3s.66,1.871.66,4.292v4.292h-5.943Zm13.866.309c0-2.931.262-4.083.99-4.362.7-.267.99-1.353.99-3.657,0-3.02.116-3.26,1.486-3.066,1.268.18,1.515.671,1.687,3.347.111,1.725.482,3.136.825,3.136s.624,1.931.624,4.292v4.292h-6.6Zm14.526-.309c0-2.361.281-4.292.624-4.292s.715-1.411.825-3.136c.183-2.852.351-3.136,1.852-3.136s1.669.285,1.852,3.136c.111,1.725.482,3.136.825,3.136s.624,1.931.624,4.292v4.292h-6.6Zm14.526,0c0-2.361.281-4.292.624-4.292s.715-1.411.825-3.136c.172-2.676.419-3.167,1.687-3.347,1.369-.194,1.486.045,1.486,3.066,0,2.3.294,3.39.99,3.657.729.28.99,1.432.99,4.362v3.982h-6.6Zm14.526,0c0-2.421.288-4.292.66-4.292s.66-1.486.66-3.3c0-3.081.11-3.3,1.651-3.3s1.651.22,1.651,3.3c0,1.816.3,3.3.66,3.3s.66,1.871.66,4.292v4.292h-5.943Z" transform="translate(-90.356 -159.248)" fill="none" stroke="aqua" stroke-width="1"/>
      <path id="path962" d="M115.847,269.7a8.235,8.235,0,0,1-.44-3.3c0-1.574-.3-2.861-.66-2.861s-.66-1.871-.66-4.292v-4.292h5.943v4.292c0,2.421-.288,4.292-.66,4.292s-.66,1.486-.66,3.3c0,2.761-.2,3.3-1.211,3.3a2.838,2.838,0,0,1-1.651-.44Zm14.086-2.815c0-1.841-.3-3.347-.66-3.347s-.66-1.871-.66-4.292v-4.292h5.943v4.292c0,2.36-.281,4.292-.624,4.292s-.715,1.411-.825,3.136c-.172,2.676-.419,3.167-1.687,3.347-1.373.195-1.486-.043-1.486-3.136Zm14.334,2.843a8.008,8.008,0,0,1-.468-3.329c0-1.574-.3-2.861-.66-2.861s-.66-1.871-.66-4.292v-4.292h6.6v4.292c0,2.36-.281,4.292-.624,4.292s-.715,1.411-.825,3.136c-.165,2.574-.443,3.171-1.549,3.329A2.61,2.61,0,0,1,144.267,269.723Zm14.5-.028a8.235,8.235,0,0,1-.44-3.3c0-1.574-.3-2.861-.66-2.861s-.66-1.871-.66-4.292v-4.292h5.943v4.292c0,2.421-.288,4.292-.66,4.292s-.66,1.486-.66,3.3c0,2.761-.2,3.3-1.211,3.3A2.838,2.838,0,0,1,158.766,269.7Zm14.086-2.815c0-1.841-.3-3.347-.66-3.347s-.66-1.871-.66-4.292v-4.292h5.943v4.292c0,2.36-.281,4.292-.624,4.292s-.715,1.411-.825,3.136c-.172,2.676-.419,3.167-1.687,3.347-1.373.195-1.486-.043-1.486-3.136Zm-63.916-15.365c-1.143-1.143-1.143-72.544,0-73.687s72.544-1.143,73.687,0,1.143,72.544,0,73.687S110.079,252.659,108.936,251.515ZM171.9,231.344c-.238-1-.575-2.3-.749-2.885-.228-.771.244-1.182,1.693-1.471,2.8-.56,3.308-2.387,3.308-11.881,0-11.251.236-11-10.272-11h-8.216V210.7c0,6.332-.075,6.677-1.9,8.722l-1.9,2.13-8.662.27c-8.208.256-8.662.341-8.662,1.625a4.527,4.527,0,0,0,1.093,2.563c.984,1.087,2.315,1.207,13.38,1.207H163.3l4.283,2.933c2.355,1.613,4.389,2.95,4.519,2.971S172.139,232.343,171.9,231.344Zm-31.463-12.05c10.4,0,12.346-.159,13.378-1.093,1.06-.959,1.207-2.218,1.207-10.278,0-5.069-.306-9.757-.684-10.462-.65-1.215-1.564-1.277-18.781-1.277-21.938,0-20.153-.974-20.153,11,0,9.494.509,11.322,3.308,11.881,1.449.29,1.921.7,1.693,1.471-.174.588-.519,1.92-.768,2.96l-.452,1.89,4.54-3.046,4.54-3.046ZM96.919,245.741c0-.343-1.411-.715-3.136-.825-2.676-.172-3.167-.419-3.347-1.687-.2-1.373.043-1.486,3.136-1.486,1.841,0,3.347-.3,3.347-.66s1.871-.66,4.292-.66H105.5v5.942h-4.292c-2.36,0-4.292-.281-4.292-.624Zm89.138-2.347v-2.971h4.292c2.421,0,4.292.288,4.292.66s1.506.66,3.347.66c3.094,0,3.331.113,3.136,1.486-.18,1.268-.671,1.515-3.347,1.687-1.725.111-3.136.482-3.136.825s-1.931.624-4.292.624h-4.292ZM96.919,231.178c0-.363-1.506-.66-3.347-.66-3.094,0-3.331-.113-3.136-1.486.18-1.268.671-1.515,3.347-1.687,1.725-.111,3.136-.482,3.136-.825s1.931-.624,4.292-.624H105.5v5.943h-4.292c-2.421,0-4.292-.288-4.292-.66Zm89.138-2.311V225.9h4.292c2.361,0,4.292.281,4.292.624s1.411.715,3.136.825c2.676.172,3.167.419,3.347,1.687.195,1.373-.043,1.486-3.136,1.486-1.841,0-3.347.3-3.347.66s-1.871.66-4.292.66h-4.292ZM96.919,217.349c0-.343-1.411-.715-3.136-.825-2.852-.183-3.136-.351-3.136-1.852s.285-1.669,3.136-1.852c1.725-.111,3.136-.482,3.136-.825s1.931-.624,4.292-.624H105.5v6.6h-4.292C98.85,217.973,96.919,217.692,96.919,217.349Zm89.138-2.677v-3.3h4.292c2.361,0,4.292.281,4.292.624s1.411.715,3.136.825c2.852.183,3.136.351,3.136,1.852s-.285,1.669-3.136,1.852c-1.725.111-3.136.482-3.136.825s-1.931.624-4.292.624h-4.292ZM96.919,202.823c0-.343-1.411-.715-3.136-.825-2.676-.172-3.167-.419-3.347-1.687-.2-1.373.043-1.486,3.136-1.486,1.841,0,3.347-.3,3.347-.66s1.871-.66,4.292-.66H105.5v5.943h-4.292c-2.36,0-4.292-.281-4.292-.624Zm89.138-2.347V197.5h4.292c2.421,0,4.292.288,4.292.66s1.506.66,3.347.66c3.094,0,3.331.113,3.136,1.486-.18,1.268-.671,1.515-3.347,1.687-1.725.111-3.136.482-3.136.825s-1.931.624-4.292.624h-4.292ZM96.919,188.26c0-.363-1.506-.66-3.347-.66-3.094,0-3.331-.113-3.136-1.486.18-1.268.671-1.515,3.347-1.687,1.725-.111,3.136-.482,3.136-.825s1.931-.624,4.292-.624H105.5v5.942h-4.292c-2.421,0-4.292-.288-4.292-.66Zm89.138-2.311v-2.971h4.292c2.361,0,4.292.281,4.292.624s1.411.715,3.136.825c2.676.172,3.167.419,3.347,1.687.195,1.373-.043,1.486-3.136,1.486-1.841,0-3.347.3-3.347.66s-1.871.66-4.292.66h-4.292ZM114.086,170.1c0-2.361.281-4.292.624-4.292s.715-1.411.825-3.136c.172-2.676.419-3.167,1.687-3.347,1.373-.195,1.486.043,1.486,3.136,0,1.841.3,3.347.66,3.347s.66,1.871.66,4.292v4.292h-5.943Zm14.526,0c0-2.421.288-4.292.66-4.292s.66-1.506.66-3.347c0-3.094.113-3.331,1.486-3.136,1.268.18,1.515.671,1.687,3.347.111,1.725.482,3.136.825,3.136s.624,1.931.624,4.292v4.292h-5.943Zm13.866,0c0-2.361.281-4.292.624-4.292s.715-1.411.825-3.136c.183-2.852.351-3.136,1.852-3.136s1.669.285,1.852,3.136c.111,1.725.482,3.136.825,3.136s.624,1.931.624,4.292v4.292h-6.6Zm14.526,0c0-2.361.281-4.292.624-4.292s.715-1.411.825-3.136c.172-2.676.419-3.167,1.687-3.347,1.373-.195,1.486.043,1.486,3.136,0,1.841.3,3.347.66,3.347s.66,1.871.66,4.292v4.292H157Zm14.526,0c0-2.421.288-4.292.66-4.292s.66-1.506.66-3.347c0-3.094.113-3.331,1.486-3.136,1.268.18,1.515.671,1.687,3.347.111,1.725.482,3.136.825,3.136s.624,1.931.624,4.292v4.292H171.53Z" transform="translate(-90.315 -159.208)" fill="none" stroke="aqua" stroke-width="1"/>
      <path id="path960" d="M115.051,266.148c0-1.634-.3-2.971-.66-2.971s-.66-1.871-.66-4.292v-4.292h5.943v4.292c0,2.421-.288,4.292-.66,4.292s-.66,1.337-.66,2.971c0,2.729-.135,2.971-1.651,2.971S115.051,268.878,115.051,266.148Zm14.526,0c0-1.634-.3-2.971-.66-2.971s-.66-1.871-.66-4.292v-4.292H134.2v4.292c0,2.421-.288,4.292-.66,4.292s-.66,1.337-.66,2.971c0,2.729-.135,2.971-1.651,2.971S129.577,268.878,129.577,266.148Zm14.526.071c0-1.969-.318-3.023-.99-3.281-.729-.28-.99-1.432-.99-4.362v-3.982h6.6v3.982c0,2.931-.262,4.083-.99,4.362-.672.258-.99,1.311-.99,3.281,0,2.46-.2,2.9-1.321,2.9S144.1,268.68,144.1,266.219Zm13.866-.071c0-1.634-.3-2.971-.66-2.971s-.66-1.871-.66-4.292v-4.292h5.943v4.292c0,2.421-.288,4.292-.66,4.292s-.66,1.337-.66,2.971c0,2.729-.135,2.971-1.651,2.971S157.969,268.878,157.969,266.148Zm14.526,0c0-1.634-.3-2.971-.66-2.971s-.66-1.871-.66-4.292v-4.292h5.943v4.292c0,2.421-.288,4.292-.66,4.292s-.66,1.337-.66,2.971c0,2.729-.135,2.971-1.651,2.971S172.5,268.878,172.5,266.148ZM108.58,251.16c-1.143-1.143-1.143-72.544,0-73.687s72.544-1.143,73.687,0c.6.6.792,9.63.792,36.6,0,31.67-.12,35.926-1.038,36.844s-5.173,1.038-36.844,1.038c-26.969,0-36-.2-36.6-.792Zm62.965-20.172c-.238-1-.588-2.336-.776-2.971-.249-.839.031-1.155,1.022-1.155a4.606,4.606,0,0,0,2.686-1.321c1.188-1.188,1.321-2.2,1.321-10.087,0-12.048.3-11.7-10.212-11.7h-8.156l-.225,6.881c-.2,6.21-.381,7.048-1.826,8.584-1.565,1.664-1.8,1.7-10.4,1.7h-8.8v1.764a5.113,5.113,0,0,0,1.093,2.971c.984,1.087,2.315,1.207,13.38,1.207H162.94l4.283,2.933c2.355,1.613,4.389,2.95,4.519,2.971s.042-.779-.2-1.777Zm-31.463-12.05c10.4,0,12.346-.159,13.378-1.093,1.065-.964,1.207-2.233,1.207-10.763,0-6.641-.248-9.918-.792-10.462-.577-.577-5.67-.792-18.781-.792-21.9,0-20.044-1.086-20.044,11.7,0,7.887.133,8.9,1.321,10.087a4.606,4.606,0,0,0,2.686,1.321c.991,0,1.271.317,1.022,1.155-.189.635-.547,2.006-.8,3.046l-.452,1.89,4.54-3.046,4.54-3.046ZM96.564,245.351c0-.363-1.337-.66-2.971-.66-2.729,0-2.971-.134-2.971-1.651s.242-1.651,2.971-1.651c1.634,0,2.971-.3,2.971-.66s1.871-.66,4.292-.66h4.292v5.943h-4.292c-2.421,0-4.292-.288-4.292-.66ZM185.7,243.04v-2.971h4.292c2.421,0,4.292.288,4.292.66s1.337.66,2.971.66c2.729,0,2.971.134,2.971,1.651s-.242,1.651-2.971,1.651c-1.634,0-2.971.3-2.971.66s-1.871.66-4.292.66H185.7ZM96.564,230.824c0-.363-1.337-.66-2.971-.66-2.729,0-2.971-.134-2.971-1.651s.242-1.651,2.971-1.651c1.634,0,2.971-.3,2.971-.66s1.871-.66,4.292-.66h4.292v5.943h-4.292c-2.421,0-4.292-.288-4.292-.66Zm89.138-2.311v-2.971h4.292c2.421,0,4.292.288,4.292.66s1.337.66,2.971.66c2.729,0,2.971.134,2.971,1.651s-.242,1.651-2.971,1.651c-1.634,0-2.971.3-2.971.66s-1.871.66-4.292.66H185.7ZM96.8,216.628c-.258-.672-1.311-.99-3.281-.99-2.46,0-2.9-.2-2.9-1.321s.44-1.321,2.9-1.321c1.969,0,3.023-.318,3.281-.99.28-.729,1.432-.99,4.362-.99h3.982v6.6h-3.982C98.235,217.619,97.083,217.357,96.8,216.628Zm88.9-2.311v-3.3h3.982c2.931,0,4.083.262,4.362.99.258.672,1.311.99,3.281.99,2.46,0,2.9.2,2.9,1.321s-.44,1.321-2.9,1.321c-1.969,0-3.023.318-3.281.99-.28.729-1.432.99-4.362.99H185.7ZM96.564,202.432c0-.363-1.337-.66-2.971-.66-2.729,0-2.971-.134-2.971-1.651s.242-1.651,2.971-1.651c1.634,0,2.971-.3,2.971-.66s1.871-.66,4.292-.66h4.292v5.942h-4.292c-2.421,0-4.292-.288-4.292-.66Zm89.138-2.311V197.15h4.292c2.421,0,4.292.288,4.292.66s1.337.66,2.971.66c2.729,0,2.971.134,2.971,1.651s-.242,1.651-2.971,1.651c-1.634,0-2.971.3-2.971.66s-1.871.66-4.292.66H185.7ZM96.564,187.906c0-.363-1.337-.66-2.971-.66-2.729,0-2.971-.134-2.971-1.651s.242-1.651,2.971-1.651c1.634,0,2.971-.3,2.971-.66s1.871-.66,4.292-.66h4.292v5.943h-4.292c-2.421,0-4.292-.288-4.292-.66ZM185.7,185.6v-2.971h4.292c2.421,0,4.292.288,4.292.66s1.337.66,2.971.66c2.729,0,2.971.134,2.971,1.651s-.242,1.651-2.971,1.651c-1.634,0-2.971.3-2.971.66s-1.871.66-4.292.66H185.7Zm-71.971-15.847c0-2.421.288-4.292.66-4.292s.66-1.337.66-2.971c0-2.729.135-2.971,1.651-2.971s1.651.242,1.651,2.971c0,1.634.3,2.971.66,2.971s.66,1.871.66,4.292v4.292h-5.943Zm14.526,0c0-2.421.288-4.292.66-4.292s.66-1.337.66-2.971c0-2.729.135-2.971,1.651-2.971s1.651.242,1.651,2.971c0,1.634.3,2.971.66,2.971s.66,1.871.66,4.292v4.292h-5.943Zm13.866.309c0-2.931.262-4.083.99-4.362.672-.258.99-1.311.99-3.281,0-2.46.2-2.9,1.321-2.9s1.321.44,1.321,2.9c0,1.969.318,3.023.99,3.281.729.28.99,1.432.99,4.362v3.982h-6.6Zm14.526-.309c0-2.421.288-4.292.66-4.292s.66-1.337.66-2.971c0-2.729.135-2.971,1.651-2.971s1.651.242,1.651,2.971c0,1.634.3,2.971.66,2.971s.66,1.871.66,4.292v4.292H156.65Zm14.526,0c0-2.421.288-4.292.66-4.292s.66-1.337.66-2.971c0-2.729.134-2.971,1.651-2.971s1.651.242,1.651,2.971c0,1.634.3,2.971.66,2.971s.66,1.871.66,4.292v4.292h-5.943Z" transform="translate(-89.961 -158.852)" fill="none" stroke="aqua" stroke-width="1"/>
      <path id="path958" d="M115.052,266.149c0-1.634-.3-2.971-.66-2.971s-.66-1.871-.66-4.292v-4.292h5.943v4.292c0,2.421-.288,4.292-.66,4.292s-.66,1.337-.66,2.971c0,2.729-.135,2.971-1.651,2.971S115.052,268.878,115.052,266.149Zm14.526,0c0-1.634-.3-2.971-.66-2.971s-.66-1.871-.66-4.292v-4.292H134.2v4.292c0,2.421-.288,4.292-.66,4.292s-.66,1.337-.66,2.971c0,2.729-.135,2.971-1.651,2.971S129.578,268.878,129.578,266.149Zm14.526.071c0-1.969-.318-3.023-.99-3.281-.729-.28-.99-1.432-.99-4.362v-3.982h6.6v3.982c0,2.931-.262,4.083-.99,4.362-.672.258-.99,1.311-.99,3.281,0,2.46-.2,2.9-1.321,2.9S144.1,268.68,144.1,266.22Zm13.866-.071c0-1.634-.3-2.971-.66-2.971s-.66-1.871-.66-4.292v-4.292h5.943v4.292c0,2.421-.288,4.292-.66,4.292s-.66,1.337-.66,2.971c0,2.729-.135,2.971-1.651,2.971S157.97,268.878,157.97,266.149Zm14.526,0c0-1.634-.3-2.971-.66-2.971s-.66-1.871-.66-4.292v-4.292h5.943v4.292c0,2.421-.288,4.292-.66,4.292s-.66,1.337-.66,2.971c0,2.729-.135,2.971-1.651,2.971S172.5,268.878,172.5,266.149Zm-63.67-15.234c-.918-.918-1.038-5.151-1.038-36.6s.12-35.681,1.038-36.6,5.151-1.038,36.6-1.038,35.681.12,36.6,1.038,1.038,5.151,1.038,36.6-.12,35.681-1.038,36.6-5.151,1.038-36.6,1.038S109.744,251.833,108.826,250.915Zm62.72-19.926c-.238-1-.588-2.336-.776-2.971-.249-.839.031-1.155,1.022-1.155a4.606,4.606,0,0,0,2.686-1.321c1.188-1.188,1.321-2.2,1.321-10.087,0-12.048.3-11.7-10.212-11.7H157.43l-.225,6.881c-.2,6.21-.381,7.048-1.826,8.584-1.565,1.664-1.8,1.7-10.4,1.7h-8.8v1.764a5.113,5.113,0,0,0,1.093,2.971c.982,1.085,2.337,1.21,13.371,1.236l12.278.029,4.292,2.893c2.36,1.591,4.4,2.915,4.528,2.942s.042-.768-.2-1.766Zm-47.121-9.524,3.76-2.526h12.034c10.271,0,12.211-.16,13.242-1.093,1.065-.964,1.207-2.233,1.207-10.763,0-6.641-.248-9.918-.792-10.462-.577-.577-5.67-.792-18.781-.792-21.9,0-20.044-1.086-20.044,11.7,0,7.887.133,8.9,1.321,10.087a4.606,4.606,0,0,0,2.686,1.321c.991,0,1.271.317,1.022,1.155-.189.635-.549,2.017-.8,3.07-.521,2.178-.727,2.246,5.146-1.7ZM96.564,245.35c0-.363-1.337-.66-2.971-.66-2.729,0-2.971-.134-2.971-1.651s.242-1.651,2.971-1.651c1.634,0,2.971-.3,2.971-.66s1.871-.66,4.292-.66h4.292v5.942h-4.292c-2.421,0-4.292-.288-4.292-.66Zm89.138-2.311v-2.971h4.292c2.421,0,4.292.288,4.292.66s1.337.66,2.971.66c2.729,0,2.971.135,2.971,1.651s-.242,1.651-2.971,1.651c-1.634,0-2.971.3-2.971.66s-1.871.66-4.292.66H185.7ZM96.564,230.824c0-.363-1.337-.66-2.971-.66-2.729,0-2.971-.134-2.971-1.651s.242-1.651,2.971-1.651c1.634,0,2.971-.3,2.971-.66s1.871-.66,4.292-.66h4.292v5.943h-4.292c-2.421,0-4.292-.288-4.292-.66Zm89.138-2.311v-2.971h4.292c2.421,0,4.292.288,4.292.66s1.337.66,2.971.66c2.729,0,2.971.134,2.971,1.651s-.242,1.651-2.971,1.651c-1.634,0-2.971.3-2.971.66s-1.871.66-4.292.66H185.7ZM96.8,216.628c-.258-.672-1.311-.99-3.281-.99-2.46,0-2.9-.2-2.9-1.321s.44-1.321,2.9-1.321c1.969,0,3.023-.318,3.281-.99.28-.729,1.432-.99,4.362-.99h3.982v6.6h-3.982C98.234,217.618,97.082,217.357,96.8,216.628Zm88.9-2.311v-3.3h3.982c2.931,0,4.083.262,4.362.99.258.672,1.311.99,3.281.99,2.46,0,2.9.2,2.9,1.321s-.44,1.321-2.9,1.321c-1.969,0-3.023.318-3.281.99-.28.729-1.432.99-4.362.99H185.7ZM96.564,202.432c0-.363-1.337-.66-2.971-.66-2.729,0-2.971-.134-2.971-1.651s.242-1.651,2.971-1.651c1.634,0,2.971-.3,2.971-.66s1.871-.66,4.292-.66h4.292v5.943h-4.292c-2.421,0-4.292-.288-4.292-.66Zm89.138-2.311V197.15h4.292c2.421,0,4.292.288,4.292.66s1.337.66,2.971.66c2.729,0,2.971.134,2.971,1.651s-.242,1.651-2.971,1.651c-1.634,0-2.971.3-2.971.66s-1.871.66-4.292.66H185.7ZM96.564,187.906c0-.363-1.337-.66-2.971-.66-2.729,0-2.971-.134-2.971-1.651s.242-1.651,2.971-1.651c1.634,0,2.971-.3,2.971-.66s1.871-.66,4.292-.66h4.292v5.943h-4.292c-2.421,0-4.292-.288-4.292-.66Zm89.138-2.311v-2.971h4.292c2.421,0,4.292.288,4.292.66s1.337.66,2.971.66c2.729,0,2.971.134,2.971,1.651s-.242,1.651-2.971,1.651c-1.634,0-2.971.3-2.971.66s-1.871.66-4.292.66H185.7Zm-71.971-15.847c0-2.421.288-4.292.66-4.292s.66-1.337.66-2.971c0-2.729.135-2.971,1.651-2.971s1.651.242,1.651,2.971c0,1.634.3,2.971.66,2.971s.66,1.871.66,4.292v4.292h-5.943Zm14.526,0c0-2.421.288-4.292.66-4.292s.66-1.337.66-2.971c0-2.729.135-2.971,1.651-2.971s1.651.242,1.651,2.971c0,1.634.3,2.971.66,2.971s.66,1.871.66,4.292v4.292h-5.943Zm13.866.309c0-2.931.262-4.083.99-4.362.672-.258.99-1.311.99-3.281,0-2.46.2-2.9,1.321-2.9s1.321.44,1.321,2.9c0,1.969.318,3.023.99,3.281.729.28.99,1.432.99,4.362v3.982h-6.6Zm14.526-.309c0-2.421.288-4.292.66-4.292s.66-1.337.66-2.971c0-2.729.135-2.971,1.651-2.971s1.651.242,1.651,2.971c0,1.634.3,2.971.66,2.971s.66,1.871.66,4.292v4.292h-5.943Zm14.526,0c0-2.421.288-4.292.66-4.292s.66-1.337.66-2.971c0-2.729.135-2.971,1.651-2.971s1.651.242,1.651,2.971c0,1.634.3,2.971.66,2.971s.66,1.871.66,4.292v4.292h-5.943Z" transform="translate(-89.961 -158.853)" fill="none" stroke="aqua" stroke-width="1"/>
      <path id="path956" d="M115.052,266.149c0-1.634-.3-2.971-.66-2.971s-.66-1.871-.66-4.292v-4.292h5.943v4.292c0,2.421-.288,4.292-.66,4.292s-.66,1.337-.66,2.971c0,2.729-.135,2.971-1.651,2.971S115.052,268.878,115.052,266.149Zm14.526,0c0-1.634-.3-2.971-.66-2.971s-.66-1.871-.66-4.292v-4.292H134.2v4.292c0,2.421-.288,4.292-.66,4.292s-.66,1.337-.66,2.971c0,2.729-.135,2.971-1.651,2.971S129.578,268.878,129.578,266.149Zm14.526.071c0-1.969-.318-3.023-.99-3.281-.729-.28-.99-1.432-.99-4.362v-3.982h6.6v3.982c0,2.931-.262,4.083-.99,4.362-.672.258-.99,1.311-.99,3.281,0,2.46-.2,2.9-1.321,2.9S144.1,268.68,144.1,266.22Zm13.866-.071c0-1.634-.3-2.971-.66-2.971s-.66-1.871-.66-4.292v-4.292h5.943v4.292c0,2.421-.288,4.292-.66,4.292s-.66,1.337-.66,2.971c0,2.729-.135,2.971-1.651,2.971S157.97,268.878,157.97,266.149Zm14.526,0c0-1.634-.3-2.971-.66-2.971s-.66-1.871-.66-4.292v-4.292h5.943v4.292c0,2.421-.288,4.292-.66,4.292s-.66,1.337-.66,2.971c0,2.729-.135,2.971-1.651,2.971S172.5,268.878,172.5,266.149Zm-63.67-15.234c-.918-.918-1.038-5.151-1.038-36.6s.12-35.681,1.038-36.6,5.151-1.038,36.6-1.038,35.681.12,36.6,1.038,1.038,5.151,1.038,36.6-.12,35.681-1.038,36.6-5.151,1.038-36.6,1.038S109.744,251.833,108.826,250.915Zm62.72-19.926c-.238-1-.588-2.336-.776-2.971-.249-.839.031-1.155,1.022-1.155a4.606,4.606,0,0,0,2.686-1.321c1.191-1.191,1.321-2.2,1.321-10.264,0-8.615-.059-9-1.621-10.564-1.532-1.532-2.034-1.621-9.186-1.621h-7.565L157.2,210.3c-.2,6.562-.368,7.365-1.824,8.914-1.565,1.664-1.8,1.7-10.4,1.7h-8.8v1.764a5.113,5.113,0,0,0,1.093,2.971c.983,1.086,2.31,1.207,13.226,1.207h12.134l4.429,2.971c2.436,1.634,4.539,2.971,4.673,2.971s.049-.817-.189-1.816Zm-47.121-9.524,3.76-2.526h12.2c10.214,0,12.373-.169,13.242-1.038.849-.849,1.038-2.8,1.038-10.763,0-6.684-.248-9.973-.792-10.517-.577-.577-5.63-.792-18.6-.792-15.644,0-17.955.133-19.016,1.093s-1.207,2.212-1.207,10.087c0,9.957.618,11.93,3.74,11.93,1.334,0,1.591.24,1.237,1.155a23.679,23.679,0,0,0-.834,3.074c-.44,2.18-.653,2.249,5.23-1.7ZM96.564,245.35c0-.363-1.337-.66-2.971-.66-2.729,0-2.971-.134-2.971-1.651s.242-1.651,2.971-1.651c1.634,0,2.971-.3,2.971-.66s1.871-.66,4.292-.66h4.292v5.942h-4.292c-2.421,0-4.292-.288-4.292-.66Zm89.138-2.311v-2.971h4.292c2.421,0,4.292.288,4.292.66s1.337.66,2.971.66c2.729,0,2.971.135,2.971,1.651s-.242,1.651-2.971,1.651c-1.634,0-2.971.3-2.971.66s-1.871.66-4.292.66H185.7ZM96.564,230.824c0-.363-1.337-.66-2.971-.66-2.729,0-2.971-.134-2.971-1.651s.242-1.651,2.971-1.651c1.634,0,2.971-.3,2.971-.66s1.871-.66,4.292-.66h4.292v5.943h-4.292c-2.421,0-4.292-.288-4.292-.66Zm89.138-2.311v-2.971h4.292c2.421,0,4.292.288,4.292.66s1.337.66,2.971.66c2.729,0,2.971.134,2.971,1.651s-.242,1.651-2.971,1.651c-1.634,0-2.971.3-2.971.66s-1.871.66-4.292.66H185.7ZM96.8,216.628c-.258-.672-1.311-.99-3.281-.99-2.46,0-2.9-.2-2.9-1.321s.44-1.321,2.9-1.321c1.969,0,3.023-.318,3.281-.99.28-.729,1.432-.99,4.362-.99h3.982v6.6h-3.982C98.234,217.618,97.082,217.357,96.8,216.628Zm88.9-2.311v-3.3h3.982c2.931,0,4.083.262,4.362.99.258.672,1.311.99,3.281.99,2.46,0,2.9.2,2.9,1.321s-.44,1.321-2.9,1.321c-1.969,0-3.023.318-3.281.99-.28.729-1.432.99-4.362.99H185.7ZM96.564,202.432c0-.363-1.337-.66-2.971-.66-2.729,0-2.971-.134-2.971-1.651s.242-1.651,2.971-1.651c1.634,0,2.971-.3,2.971-.66s1.871-.66,4.292-.66h4.292v5.943h-4.292c-2.421,0-4.292-.288-4.292-.66Zm89.138-2.311V197.15h4.292c2.421,0,4.292.288,4.292.66s1.337.66,2.971.66c2.729,0,2.971.134,2.971,1.651s-.242,1.651-2.971,1.651c-1.634,0-2.971.3-2.971.66s-1.871.66-4.292.66H185.7ZM96.564,187.906c0-.363-1.337-.66-2.971-.66-2.729,0-2.971-.134-2.971-1.651s.242-1.651,2.971-1.651c1.634,0,2.971-.3,2.971-.66s1.871-.66,4.292-.66h4.292v5.943h-4.292c-2.421,0-4.292-.288-4.292-.66Zm89.138-2.311v-2.971h4.292c2.421,0,4.292.288,4.292.66s1.337.66,2.971.66c2.729,0,2.971.134,2.971,1.651s-.242,1.651-2.971,1.651c-1.634,0-2.971.3-2.971.66s-1.871.66-4.292.66H185.7Zm-71.971-15.847c0-2.421.288-4.292.66-4.292s.66-1.337.66-2.971c0-2.729.135-2.971,1.651-2.971s1.651.242,1.651,2.971c0,1.634.3,2.971.66,2.971s.66,1.871.66,4.292v4.292h-5.943Zm14.526,0c0-2.421.288-4.292.66-4.292s.66-1.337.66-2.971c0-2.729.135-2.971,1.651-2.971s1.651.242,1.651,2.971c0,1.634.3,2.971.66,2.971s.66,1.871.66,4.292v4.292h-5.943Zm13.866.309c0-2.931.262-4.083.99-4.362.672-.258.99-1.311.99-3.281,0-2.46.2-2.9,1.321-2.9s1.321.44,1.321,2.9c0,1.969.318,3.023.99,3.281.729.28.99,1.432.99,4.362v3.982h-6.6Zm14.526-.309c0-2.421.288-4.292.66-4.292s.66-1.337.66-2.971c0-2.729.135-2.971,1.651-2.971s1.651.242,1.651,2.971c0,1.634.3,2.971.66,2.971s.66,1.871.66,4.292v4.292h-5.943Zm14.526,0c0-2.421.288-4.292.66-4.292s.66-1.337.66-2.971c0-2.729.135-2.971,1.651-2.971s1.651.242,1.651,2.971c0,1.634.3,2.971.66,2.971s.66,1.871.66,4.292v4.292h-5.943Z" transform="translate(-89.961 -158.853)" fill="none" stroke="aqua" stroke-width="1"/>
      <path id="path954" d="M115.052,265.82c0-1.816-.3-3.3-.66-3.3s-.66-1.761-.66-3.962V254.6h5.943v3.962c0,2.2-.293,3.962-.66,3.962s-.66,1.486-.66,3.3c0,3.081-.11,3.3-1.651,3.3S115.052,268.9,115.052,265.82Zm14.526.369c0-1.613-.3-3.116-.66-3.34s-.66-2.173-.66-4.331V254.6H134.2v3.962c0,2.2-.293,3.962-.66,3.962s-.66,1.486-.66,3.3c0,3.081-.11,3.3-1.651,3.3-1.513,0-1.651-.245-1.651-2.932Zm14.526-.06c0-2.05-.312-3.112-.99-3.372-.725-.278-.99-1.422-.99-4.271V254.6h6.6v3.891c0,2.85-.265,3.993-.99,4.271-.679.26-.99,1.322-.99,3.372,0,2.552-.194,2.992-1.321,2.992S144.1,268.681,144.1,266.129Zm13.866-.309c0-1.816-.3-3.3-.66-3.3s-.66-1.761-.66-3.962V254.6h5.943v3.923c0,2.157-.3,4.106-.66,4.331s-.66,1.728-.66,3.34c0,2.688-.138,2.932-1.651,2.932-1.541,0-1.651-.22-1.651-3.3Zm14.526.369c0-1.613-.3-3.116-.66-3.34s-.66-2.173-.66-4.331V254.6h5.943v3.962c0,2.2-.293,3.962-.66,3.962s-.66,1.486-.66,3.3c0,3.081-.11,3.3-1.651,3.3-1.513,0-1.651-.245-1.651-2.932Zm-63.67-15.273c-.918-.918-1.038-5.151-1.038-36.6s.12-35.681,1.038-36.6,5.151-1.038,36.6-1.038,35.681.12,36.6,1.038,1.038,5.151,1.038,36.6-.12,35.681-1.038,36.6-5.151,1.038-36.6,1.038S109.744,251.834,108.826,250.916Zm62.808-19.926a22.7,22.7,0,0,0-.813-2.971c-.354-.915-.1-1.155,1.237-1.155,3.125,0,3.74-1.968,3.74-11.984,0-8.989-.012-9.058-1.74-10.418-1.526-1.2-2.653-1.368-9.185-1.368h-7.446L157.2,210.3c-.2,6.562-.368,7.365-1.824,8.914-1.565,1.664-1.8,1.7-10.4,1.7h-8.8v1.934c0,3.775.831,4.009,14.264,4.009h12.189l4.429,2.971c2.436,1.634,4.544,2.971,4.684,2.971s.09-.817-.112-1.816Zm-47.21-9.524,3.76-2.526h12.2c10.214,0,12.373-.169,13.242-1.038.849-.849,1.038-2.8,1.038-10.763,0-6.684-.248-9.973-.792-10.517-.577-.577-5.63-.792-18.6-.792-15.644,0-17.955.133-19.016,1.093s-1.207,2.212-1.207,10.087c0,9.957.618,11.93,3.74,11.93,1.334,0,1.591.24,1.237,1.155a23.679,23.679,0,0,0-.834,3.074c-.44,2.18-.653,2.249,5.23-1.7Zm-27.2,23.885c0-.363-1.486-.66-3.3-.66-3.081,0-3.3-.11-3.3-1.651,0-1.513.245-1.651,2.932-1.651,1.613,0,3.116-.3,3.34-.66s2.173-.66,4.331-.66h3.923v5.942h-3.962c-2.2,0-3.962-.293-3.962-.66ZM185.7,243.04v-2.971h3.923c2.158,0,4.106.3,4.331.66s1.728.66,3.34.66c2.688,0,2.932.138,2.932,1.651,0,1.541-.22,1.651-3.3,1.651-1.816,0-3.3.3-3.3.66s-1.761.66-3.962.66H185.7ZM96.894,230.825c-.224-.363-1.728-.66-3.34-.66-2.688,0-2.932-.138-2.932-1.651,0-1.541.22-1.651,3.3-1.651,1.816,0,3.3-.3,3.3-.66s1.761-.66,3.962-.66h3.962v5.943h-3.922c-2.158,0-4.106-.3-4.331-.66Zm88.808-2.311v-2.971h3.962c2.2,0,3.962.293,3.962.66s1.486.66,3.3.66c3.081,0,3.3.11,3.3,1.651,0,1.513-.245,1.651-2.932,1.651-1.613,0-3.116.3-3.34.66s-2.173.66-4.331.66H185.7ZM96.986,216.629c-.26-.679-1.322-.99-3.372-.99-2.552,0-2.992-.194-2.992-1.321S91.062,213,93.614,213c2.05,0,3.112-.312,3.372-.99.278-.725,1.421-.99,4.271-.99h3.891v6.6h-3.891C98.407,217.619,97.264,217.354,96.986,216.629Zm88.716-2.311v-3.3h3.891c2.85,0,3.993.265,4.271.99.26.679,1.322.99,3.372.99,2.552,0,2.992.194,2.992,1.321s-.44,1.321-2.992,1.321c-2.05,0-3.112.312-3.372.99-.278.725-1.422.99-4.271.99H185.7ZM97.224,202.433c0-.363-1.486-.66-3.3-.66-3.081,0-3.3-.11-3.3-1.651,0-1.513.245-1.651,2.932-1.651,1.613,0,3.116-.3,3.34-.66s2.173-.66,4.331-.66h3.923v5.943h-3.962c-2.2,0-3.962-.293-3.962-.66Zm88.478-2.311v-2.971h3.923c2.158,0,4.106.3,4.331.66s1.728.66,3.34.66c2.688,0,2.932.138,2.932,1.651,0,1.541-.22,1.651-3.3,1.651-1.816,0-3.3.3-3.3.66s-1.761.66-3.962.66H185.7ZM96.894,187.907c-.224-.363-1.728-.66-3.34-.66-2.688,0-2.932-.138-2.932-1.651,0-1.541.22-1.651,3.3-1.651,1.816,0,3.3-.3,3.3-.66s1.761-.66,3.962-.66h3.962v5.943h-3.922c-2.158,0-4.106-.3-4.331-.66ZM185.7,185.6v-2.971h3.962c2.2,0,3.962.293,3.962.66s1.486.66,3.3.66c3.081,0,3.3.11,3.3,1.651s-.22,1.651-3.3,1.651c-1.816,0-3.3.3-3.3.66s-1.761.66-3.962.66H185.7Zm-71.969-15.518c0-2.2.293-3.962.66-3.962s.66-1.486.66-3.3c0-3.081.11-3.3,1.651-3.3,1.513,0,1.651.245,1.651,2.932,0,1.613.3,3.116.66,3.34s.66,2.173.66,4.331v3.923h-5.943Zm14.526.039c0-2.157.3-4.106.66-4.331s.66-1.728.66-3.34c0-2.688.138-2.932,1.651-2.932,1.541,0,1.651.22,1.651,3.3,0,1.816.3,3.3.66,3.3s.66,1.761.66,3.962v3.962h-5.943Zm13.866.032c0-2.85.265-3.993.99-4.271.679-.26.99-1.322.99-3.372,0-2.552.194-2.992,1.321-2.992s1.321.44,1.321,2.992c0,2.05.312,3.112.99,3.372.725.278.99,1.421.99,4.271v3.891h-6.6Zm14.526-.071c0-2.2.293-3.962.66-3.962s.66-1.486.66-3.3c0-3.081.11-3.3,1.651-3.3,1.513,0,1.651.245,1.651,2.932,0,1.613.3,3.116.66,3.34s.66,2.173.66,4.331v3.923h-5.943Zm14.526.039c0-2.158.3-4.106.66-4.331s.66-1.728.66-3.34c0-2.688.138-2.932,1.651-2.932,1.541,0,1.651.22,1.651,3.3,0,1.816.3,3.3.66,3.3s.66,1.761.66,3.962v3.962h-5.943Z" transform="translate(-89.961 -158.853)" fill="none" stroke="aqua" stroke-width="1"/>
      <path id="path952" d="M115.052,265.82c0-1.816-.3-3.3-.66-3.3s-.66-1.761-.66-3.962V254.6h5.943v3.962c0,2.2-.293,3.962-.66,3.962s-.66,1.486-.66,3.3c0,3.081-.11,3.3-1.651,3.3S115.052,268.9,115.052,265.82Zm14.526,0c0-1.816-.3-3.3-.66-3.3s-.66-1.761-.66-3.962V254.6H134.2v3.962c0,2.2-.293,3.962-.66,3.962s-.66,1.486-.66,3.3c0,3.081-.11,3.3-1.651,3.3S129.578,268.9,129.578,265.82Zm14.526.309c0-2.05-.312-3.112-.99-3.372-.725-.278-.99-1.422-.99-4.271V254.6h6.6v3.891c0,2.85-.265,3.993-.99,4.271-.679.26-.99,1.322-.99,3.372,0,2.552-.194,2.992-1.321,2.992S144.1,268.681,144.1,266.129Zm13.866-.309c0-1.816-.3-3.3-.66-3.3s-.66-1.761-.66-3.962V254.6h5.943v3.962c0,2.2-.293,3.962-.66,3.962s-.66,1.486-.66,3.3c0,3.081-.11,3.3-1.651,3.3S157.97,268.9,157.97,265.82Zm14.526,0c0-1.816-.3-3.3-.66-3.3s-.66-1.761-.66-3.962V254.6h5.943v3.962c0,2.2-.293,3.962-.66,3.962s-.66,1.486-.66,3.3c0,3.081-.11,3.3-1.651,3.3S172.5,268.9,172.5,265.82Zm-63.67-14.9c-.918-.918-1.038-5.151-1.038-36.6s.12-35.681,1.038-36.6,5.151-1.038,36.6-1.038,35.681.12,36.6,1.038,1.038,5.151,1.038,36.6-.12,35.681-1.038,36.6-5.151,1.038-36.6,1.038S109.744,251.834,108.826,250.916Zm62.444-21.7c-.611-2.214-.558-2.35.911-2.35,2.98,0,3.616-2.093,3.616-11.906,0-11.955.414-11.474-10.1-11.751l-8.233-.217-.253,7.384c-.244,7.119-.319,7.44-2.092,8.966-1.736,1.494-2.32,1.582-10.387,1.582h-8.547v1.934c0,3.775.831,4.009,14.264,4.009h12.189l4.435,2.975c2.439,1.636,4.529,2.694,4.643,2.35a8.7,8.7,0,0,0-.441-2.975Zm-46.846-7.748,3.76-2.526h12.2c10.214,0,12.373-.169,13.242-1.038.85-.85,1.038-2.811,1.038-10.857,0-9.4-.063-9.864-1.467-10.847-1.233-.863-4.093-1.028-17.871-1.028-16.107,0-18.452.266-19.773,2.245-.267.4-.49,4.746-.5,9.658-.01,9.78.624,11.867,3.613,11.867,1.453,0,1.523.155.953,2.142-.844,2.944-.78,3.976.211,3.395C120.293,224.21,122.356,222.855,124.424,221.466Zm-27.2,23.885c0-.363-1.486-.66-3.3-.66-3.081,0-3.3-.11-3.3-1.651s.22-1.651,3.3-1.651c1.816,0,3.3-.3,3.3-.66s1.761-.66,3.962-.66h3.962v5.943h-3.962c-2.2,0-3.962-.293-3.962-.66ZM185.7,243.04v-2.971h3.962c2.2,0,3.962.293,3.962.66s1.486.66,3.3.66c3.081,0,3.3.11,3.3,1.651s-.22,1.651-3.3,1.651c-1.816,0-3.3.3-3.3.66s-1.761.66-3.962.66H185.7ZM96.894,230.825c-.224-.363-1.728-.66-3.34-.66-2.688,0-2.932-.138-2.932-1.651,0-1.541.22-1.651,3.3-1.651,1.816,0,3.3-.3,3.3-.66s1.761-.66,3.962-.66h3.962v5.943h-3.922c-2.158,0-4.106-.3-4.331-.66Zm88.808-2.311v-2.971h3.962c2.2,0,3.962.293,3.962.66s1.486.66,3.3.66c3.081,0,3.3.11,3.3,1.651s-.22,1.651-3.3,1.651c-1.816,0-3.3.3-3.3.66s-1.761.66-3.962.66H185.7ZM96.986,216.629c-.26-.679-1.322-.99-3.372-.99-2.552,0-2.992-.194-2.992-1.321S91.062,213,93.614,213c2.05,0,3.112-.312,3.372-.99.278-.725,1.421-.99,4.271-.99h3.891v6.6h-3.891C98.407,217.619,97.264,217.354,96.986,216.629Zm88.716-2.311v-3.3h3.891c2.85,0,3.993.265,4.271.99.26.679,1.322.99,3.372.99,2.552,0,2.992.194,2.992,1.321s-.44,1.321-2.992,1.321c-2.05,0-3.112.312-3.372.99-.278.725-1.422.99-4.271.99H185.7ZM97.224,202.433c0-.363-1.486-.66-3.3-.66-3.081,0-3.3-.11-3.3-1.651,0-1.513.245-1.651,2.932-1.651,1.613,0,3.116-.3,3.34-.66s2.173-.66,4.331-.66h3.923v5.942h-3.962c-2.2,0-3.962-.293-3.962-.66Zm88.478-2.311v-2.971h3.962c2.2,0,3.962.293,3.962.66s1.486.66,3.3.66c3.081,0,3.3.11,3.3,1.651s-.22,1.651-3.3,1.651c-1.816,0-3.3.3-3.3.66s-1.761.66-3.962.66H185.7ZM97.224,187.907c0-.363-1.486-.66-3.3-.66-3.081,0-3.3-.11-3.3-1.651s.22-1.651,3.3-1.651c1.816,0,3.3-.3,3.3-.66s1.761-.66,3.962-.66h3.962v5.942h-3.962c-2.2,0-3.962-.293-3.962-.66ZM185.7,185.6v-2.971h3.962c2.2,0,3.962.293,3.962.66s1.486.66,3.3.66c3.081,0,3.3.11,3.3,1.651s-.22,1.651-3.3,1.651c-1.816,0-3.3.3-3.3.66s-1.761.66-3.962.66H185.7Zm-71.969-15.518c0-2.2.293-3.962.66-3.962s.66-1.486.66-3.3c0-3.081.11-3.3,1.651-3.3s1.651.22,1.651,3.3c0,1.816.3,3.3.66,3.3s.66,1.761.66,3.962v3.962h-5.943Zm14.526.039c0-2.157.3-4.106.66-4.331s.66-1.728.66-3.34c0-2.688.138-2.932,1.651-2.932,1.541,0,1.651.22,1.651,3.3,0,1.816.3,3.3.66,3.3s.66,1.761.66,3.962v3.962h-5.943Zm13.866.032c0-2.85.265-3.993.99-4.271.679-.26.99-1.322.99-3.372,0-2.552.194-2.992,1.321-2.992s1.321.44,1.321,2.992c0,2.05.312,3.112.99,3.372.725.278.99,1.421.99,4.271v3.891h-6.6Zm14.526-.071c0-2.2.293-3.962.66-3.962s.66-1.486.66-3.3c0-3.081.11-3.3,1.651-3.3,1.513,0,1.651.245,1.651,2.932,0,1.613.3,3.116.66,3.34s.66,2.173.66,4.331v3.923h-5.943Zm14.526,0c0-2.2.293-3.962.66-3.962s.66-1.486.66-3.3c0-3.081.11-3.3,1.651-3.3s1.651.22,1.651,3.3c0,1.816.3,3.3.66,3.3s.66,1.761.66,3.962v3.962h-5.943Z" transform="translate(-89.961 -158.853)" fill="none" stroke="aqua" stroke-width="1"/>
      <path id="path950" d="M115.052,265.82c0-1.816-.3-3.3-.66-3.3s-.66-1.761-.66-3.962V254.6h5.943v3.962c0,2.2-.293,3.962-.66,3.962s-.66,1.486-.66,3.3c0,3.081-.11,3.3-1.651,3.3S115.052,268.9,115.052,265.82Zm14.526,0c0-1.816-.3-3.3-.66-3.3s-.66-1.761-.66-3.962V254.6H134.2v3.891c0,2.85-.265,3.993-.99,4.271-.679.26-.99,1.322-.99,3.372,0,2.552-.194,2.992-1.321,2.992-1.145,0-1.321-.44-1.321-3.3Zm14.526.369c0-1.613-.3-3.116-.66-3.34s-.66-2.173-.66-4.331V254.6h5.282v3.923c0,2.157-.3,4.106-.66,4.331s-.66,1.728-.66,3.34c0,2.492-.2,2.932-1.321,2.932S144.1,268.681,144.1,266.189Zm13.866-.369c0-1.816-.3-3.3-.66-3.3s-.66-1.761-.66-3.962V254.6h5.943v3.962c0,2.2-.293,3.962-.66,3.962s-.66,1.486-.66,3.3c0,3.081-.11,3.3-1.651,3.3S157.97,268.9,157.97,265.82Zm14.526,0c0-1.816-.3-3.3-.66-3.3s-.66-1.761-.66-3.962V254.6h5.943v3.962c0,2.2-.293,3.962-.66,3.962s-.66,1.486-.66,3.3c0,3.081-.11,3.3-1.651,3.3S172.5,268.9,172.5,265.82Zm-63.615-15.073c-.988-1.092-1.093-4.59-1.093-36.543,0-33.394.066-35.4,1.207-36.428,1.092-.988,4.59-1.093,36.543-1.093,33.394,0,35.4.066,36.428,1.207.988,1.092,1.093,4.59,1.093,36.543,0,33.394-.066,35.4-1.207,36.428-1.092.988-4.59,1.093-36.543,1.093-33.394,0-35.4-.066-36.428-1.207Zm62.389-21.533c-.611-2.214-.558-2.35.911-2.35,2.989,0,3.616-2.085,3.616-12.032,0-12.113.248-11.846-10.75-11.593l-8.068.185-.186,7.4c-.178,7.079-.26,7.455-1.9,8.749-1.529,1.2-2.653,1.352-10.213,1.352h-8.495v2.288c0,1.586.392,2.5,1.277,2.971.745.4,6.252.684,13.226.684h11.949l4.435,2.975c2.439,1.636,4.529,2.694,4.643,2.35a8.7,8.7,0,0,0-.441-2.975Zm-46.846-7.748,3.76-2.526h11.965c6.985,0,12.5-.284,13.242-.684,1.178-.63,1.277-1.475,1.277-10.879,0-10.031-.026-10.213-1.583-11.233-1.358-.89-4.043-1.009-18.872-.841-16.228.185-17.346.275-18.225,1.478-.7.957-.936,3.551-.936,10.253,0,9.819.635,11.906,3.623,11.906,1.453,0,1.523.155.953,2.142-.844,2.944-.78,3.976.211,3.395.454-.266,2.518-1.621,4.586-3.01Zm-27.2,23.885c0-.363-1.486-.66-3.3-.66-3.081,0-3.3-.11-3.3-1.651s.22-1.651,3.3-1.651c1.816,0,3.3-.3,3.3-.66s1.761-.66,3.962-.66h3.962v5.943h-3.962c-2.2,0-3.962-.293-3.962-.66ZM185.7,243.04v-2.971h3.962c2.2,0,3.962.293,3.962.66s1.486.66,3.3.66c3.081,0,3.3.11,3.3,1.651s-.22,1.651-3.3,1.651c-1.816,0-3.3.3-3.3.66s-1.761.66-3.962.66H185.7ZM97.224,230.825c0-.363-1.486-.66-3.3-.66-3.081,0-3.3-.11-3.3-1.651s.22-1.651,3.3-1.651c1.816,0,3.3-.3,3.3-.66s1.761-.66,3.962-.66h3.962v5.943h-3.962c-2.2,0-3.962-.293-3.962-.66Zm88.478-2.311v-2.971h3.962c2.2,0,3.962.293,3.962.66s1.486.66,3.3.66c3.081,0,3.3.11,3.3,1.651s-.22,1.651-3.3,1.651c-1.816,0-3.3.3-3.3.66s-1.761.66-3.962.66H185.7ZM96.894,216.3c-.224-.363-1.728-.66-3.34-.66-2.492,0-2.932-.2-2.932-1.321S91.062,213,93.554,213c1.613,0,3.116-.3,3.34-.66s2.173-.66,4.331-.66h3.923v5.282h-3.922c-2.158,0-4.106-.3-4.331-.66Zm88.808-1.981v-2.641h3.923c2.158,0,4.106.3,4.331.66s1.728.66,3.34.66c2.492,0,2.932.2,2.932,1.321s-.44,1.321-2.932,1.321c-1.613,0-3.116.3-3.34.66s-2.173.66-4.331.66H185.7ZM96.986,202.1c-.26-.679-1.322-.99-3.372-.99-2.552,0-2.992-.194-2.992-1.321,0-1.144.44-1.321,3.3-1.321,1.816,0,3.3-.3,3.3-.66s1.761-.66,3.962-.66h3.962v5.943h-3.891c-2.85,0-3.993-.265-4.271-.99Zm88.716-1.981v-2.971h3.962c2.2,0,3.962.293,3.962.66s1.486.66,3.3.66c2.861,0,3.3.176,3.3,1.321,0,1.126-.44,1.321-2.992,1.321-2.05,0-3.112.312-3.372.99-.278.725-1.421.99-4.271.99H185.7ZM97.224,187.907c0-.363-1.486-.66-3.3-.66-3.081,0-3.3-.11-3.3-1.651s.22-1.651,3.3-1.651c1.816,0,3.3-.3,3.3-.66s1.761-.66,3.962-.66h3.962v5.942h-3.962c-2.2,0-3.962-.293-3.962-.66ZM185.7,185.6v-2.971h3.962c2.2,0,3.962.293,3.962.66s1.486.66,3.3.66c3.081,0,3.3.11,3.3,1.651s-.22,1.651-3.3,1.651c-1.816,0-3.3.3-3.3.66s-1.761.66-3.962.66H185.7Zm-71.969-15.518c0-2.2.293-3.962.66-3.962s.66-1.486.66-3.3c0-3.081.11-3.3,1.651-3.3s1.651.22,1.651,3.3c0,1.816.3,3.3.66,3.3s.66,1.761.66,3.962v3.962h-5.943Zm14.526,0c0-2.2.293-3.962.66-3.962s.66-1.486.66-3.3c0-2.861.176-3.3,1.321-3.3,1.126,0,1.321.44,1.321,2.992,0,2.05.312,3.112.99,3.372.725.278.99,1.422.99,4.271v3.891h-5.943Zm14.526.039c0-2.157.3-4.106.66-4.331s.66-1.728.66-3.34c0-2.492.2-2.932,1.321-2.932s1.321.44,1.321,2.932c0,1.613.3,3.116.66,3.34s.66,2.173.66,4.331v3.923h-5.282Zm13.866-.039c0-2.2.293-3.962.66-3.962s.66-1.486.66-3.3c0-3.081.11-3.3,1.651-3.3s1.651.22,1.651,3.3c0,1.816.3,3.3.66,3.3s.66,1.761.66,3.962v3.962h-5.943Zm14.526,0c0-2.2.293-3.962.66-3.962s.66-1.486.66-3.3c0-3.081.11-3.3,1.651-3.3s1.651.22,1.651,3.3c0,1.816.3,3.3.66,3.3s.66,1.761.66,3.962v3.962h-5.943Z" transform="translate(-89.961 -158.853)" fill="none" stroke="aqua" stroke-width="1"/>
    </g>
  </g>
</svg>
